<svg width="198" height="47" viewBox="0 0 198 47" fill="none" xmlns="http://www.w3.org/2000/svg">
<path d="M67.1882 15.994H64.0498V32.1419H67.1882V15.994Z" fill="#2A3362"/>
<path d="M79.3346 26.4123C79.3346 28.641 77.9008 29.6423 75.9916 29.6423C74.0825 29.6423 72.8065 28.641 72.8065 26.5253V20.7706H69.6681V27.2539C69.6681 30.4819 71.6922 32.3697 75.0585 32.3697C77.1741 32.3697 78.3566 31.5904 79.1495 30.7099H79.3326L79.6054 32.1437H82.4925V20.7706H79.3346V26.4123Z" fill="#2A3362"/>
<path d="M110.121 29.8917C107.824 29.8917 106.528 28.8456 106.324 27.3221H116.284C116.33 27.0054 116.353 26.6857 116.353 26.3656C116.331 22.2746 113.236 20.5427 109.924 20.5427C106.08 20.5427 103.191 22.8415 103.191 26.5487C103.191 30.0729 105.967 32.3697 110.128 32.3697C113.61 32.3697 115.928 30.8248 116.407 28.4579H113.306C112.918 29.391 111.804 29.8917 110.121 29.8917ZM109.926 23.0227C111.928 23.0227 113.088 23.9091 113.271 25.1656H106.392C106.686 23.9616 107.847 23.0227 109.916 23.0227H109.926Z" fill="#2A3362"/>
<path d="M121.685 22.4031H121.49L121.194 20.7648H118.342V32.1437H121.48V27.2539C121.48 25.0467 122.752 23.8194 125.119 23.8194C125.549 23.8134 125.979 23.8513 126.401 23.9324V20.7706H125.963C123.87 20.7706 122.571 21.2031 121.685 22.4031Z" fill="#2A3362"/>
<path d="M141.81 28.5942H141.629L138.945 21.4758H135.715L133.077 28.5728H132.872L130.371 20.7706H127.254L131.098 32.1437H134.511L137.24 24.887H137.421L140.106 32.1437H143.54L147.384 20.7706H144.267L141.81 28.5942Z" fill="#2A3362"/>
<path d="M159.875 28.8319V25.0253C159.875 21.9317 157.259 20.5447 154.006 20.5447C150.55 20.5447 148.389 22.183 148.093 24.6357H151.231C151.459 23.5662 152.369 22.9759 154.006 22.9759C155.642 22.9759 156.733 23.5896 156.733 24.8403V25.1305L151.615 25.5201C149.25 25.7033 147.524 26.7494 147.524 28.978C147.524 31.2748 149.503 32.3658 152.414 32.3658C154.763 32.3658 156.195 31.7112 157.072 30.7235H157.228C157.721 31.834 158.72 32.1398 159.807 32.1398H161.126V29.8235H160.83C160.169 29.8235 159.875 29.506 159.875 28.8319ZM156.735 27.626C156.735 29.4241 154.592 30.0144 152.755 30.0144C151.504 30.0144 150.686 29.6969 150.686 28.8319C150.686 28.0527 151.391 27.6728 152.439 27.5812L156.737 27.2637L156.735 27.626Z" fill="#2A3362"/>
<path d="M171.478 20.7706L167.816 29.0053H167.611L163.904 20.7706H160.514L165.813 32.1437H169.567L174.842 20.7706H171.478Z" fill="#2A3362"/>
<path d="M184.875 28.4579C184.486 29.391 183.373 29.8917 181.69 29.8917C179.393 29.8917 178.098 28.8456 177.893 27.3221H187.854C187.9 27.0054 187.923 26.6857 187.922 26.3656C187.901 22.2746 184.805 20.5427 181.493 20.5427C177.65 20.5427 174.763 22.8415 174.763 26.5487C174.763 30.0729 177.537 32.3697 181.698 32.3697C185.179 32.3697 187.497 30.8248 187.977 28.4579H184.875ZM181.485 23.0227C183.488 23.0227 184.647 23.9091 184.83 25.1656H177.954C178.252 23.9616 179.409 23.0227 181.478 23.0227H181.485Z" fill="#2A3362"/>
<path d="M58.9497 19.933C58.9497 18.9316 59.6549 18.5011 60.5646 18.5011C60.9878 18.505 61.4085 18.566 61.8153 18.6823L62.3394 16.4069C61.5797 16.1383 60.7801 16 59.9744 15.9978C57.6542 15.9978 55.7898 17.2271 55.7898 19.7732V20.7707H53.082V23.2623H55.7898V32.1437H58.9497V23.2603H62.4874V20.7707H58.9497V19.933Z" fill="#2A3362"/>
<path d="M89.418 17.5641H86.4958L86.3322 20.7707H83.862V23.2623H86.2737V28.8689C86.2737 30.7781 87.2478 32.3755 90.17 32.3755C90.9275 32.3755 91.6828 32.2919 92.422 32.1262V29.732C91.9958 29.8275 91.5612 29.881 91.1245 29.8917C89.5563 29.8917 89.4199 29.0053 89.4199 28.3215V23.2565H92.5369V20.7707H89.418V17.5641Z" fill="#2A3362"/>
<path d="M99.2735 17.5641H96.3611L96.1975 20.7707H93.7214V23.2623H96.1332V28.8689C96.1332 30.7781 97.1072 32.3755 100.029 32.3755C100.785 32.3732 101.538 32.2876 102.276 32.1203V29.732C101.849 29.8275 101.415 29.881 100.978 29.8917C99.4099 29.8917 99.2735 29.0053 99.2735 28.3215V23.2565H102.4V20.7707H99.2735V17.5641Z" fill="#2A3362"/>
<path d="M9.39569 15.5635C9.39569 13.7381 9.92947 12.1796 11.0496 11.0594L12.9977 13.0076C10.8295 15.168 12.7231 21.8851 18.8966 28.0645C25.0701 34.2439 31.7911 36.1355 33.9574 33.9711L35.9055 35.9192C32.2509 39.5739 23.9266 36.9809 16.9582 30.0106C12.125 25.1754 9.39569 19.6896 9.39569 15.5635Z" fill="#009A46"/>
<path d="M21.6805 37.5984C19.8551 37.5984 18.2966 37.0646 17.1745 35.9445L19.1226 33.9964C21.287 36.1607 28.004 34.2672 34.1834 28.0897C40.3628 21.9123 42.2525 15.1952 40.0881 13.0309L42.0362 11.0828C45.6928 14.7374 43.0979 23.0617 36.1276 30.03C31.2924 34.8711 25.8066 37.5984 21.6805 37.5984Z" fill="#FF5805"/>
<path d="M36.7725 27.2423C35.59 23.837 33.1743 20.198 29.9697 16.9953C23.0013 10.025 14.6771 7.43008 11.0224 11.0867C10.7633 11.3477 10.9873 11.9925 11.525 12.5302C12.0627 13.0679 12.7075 13.29 12.9666 13.0309C15.1329 10.8665 21.85 12.7601 28.0274 18.9395C30.9496 21.8616 33.1276 25.1247 34.1776 28.1443C35.0971 30.7918 35.0075 32.9269 33.936 33.9983C33.675 34.2574 33.901 34.9042 34.4367 35.4399C34.9724 35.9757 35.6192 36.2017 35.8802 35.9406C37.7524 34.0685 38.0699 30.9749 36.7725 27.2423Z" fill="#F5AFCB"/>
<path d="M42.0323 11.0867C40.1563 9.21066 37.0666 8.89312 33.3301 10.1925C29.9268 11.3731 26.2858 13.7907 23.0831 16.9933C16.1147 23.9617 13.5198 32.286 17.1745 35.9426C17.4355 36.2017 18.0804 35.9776 18.618 35.4419C19.1557 34.9062 19.3797 34.2594 19.1187 33.9984C16.9485 31.834 18.8479 25.1169 25.0273 18.9376C27.9495 16.0154 31.2125 13.8374 34.2321 12.7874C36.8796 11.8698 39.0147 11.9575 40.0881 13.0289C40.3472 13.288 40.994 13.064 41.5297 12.5263C42.0654 11.9887 42.2914 11.3458 42.0323 11.0867Z" fill="#FF9B00"/>
</svg>
