<svg width="40" height="41" viewBox="0 0 40 41" fill="none" xmlns="http://www.w3.org/2000/svg">
    <path d="M10.0083 22.78C10.0567 22.2867 10.4417 21.78 11.0717 21.61C11.7033 21.44 12.2883 21.6883 12.5767 22.0933C12.7696 22.363 13.0618 22.5449 13.3889 22.5991C13.716 22.6534 14.0512 22.5754 14.3208 22.3825C14.5905 22.1896 14.7724 21.8974 14.8266 21.5703C14.8809 21.2432 14.8029 20.908 14.61 20.6383C13.6933 19.355 12.0233 18.7667 10.425 19.195C8.82667 19.6233 7.67333 20.9683 7.52 22.5383C7.50413 22.7017 7.5206 22.8666 7.56846 23.0237C7.61633 23.1807 7.69465 23.3267 7.79896 23.4535C7.90328 23.5802 8.03153 23.6852 8.17641 23.7624C8.32128 23.8396 8.47995 23.8875 8.64333 23.9033C8.80672 23.9192 8.97163 23.9027 9.12865 23.8549C9.28567 23.807 9.43173 23.7287 9.55848 23.6244C9.68523 23.5201 9.7902 23.3918 9.86738 23.2469C9.94457 23.1021 9.99246 22.9434 10.0083 22.78ZM19.6683 20.1917C19.7167 19.6983 20.1017 19.1917 20.7317 19.0217C21.3633 18.8517 21.9483 19.1 22.2367 19.5033C22.4326 19.7645 22.723 19.9386 23.0457 19.9884C23.3683 20.0382 23.6977 19.9598 23.9633 19.77C24.2289 19.5801 24.4097 19.2939 24.467 18.9725C24.5243 18.651 24.4536 18.32 24.27 18.05C23.3533 16.7667 21.6833 16.1783 20.085 16.6067C18.4867 17.035 17.3333 18.3783 17.18 19.95C17.148 20.28 17.2483 20.6092 17.459 20.8652C17.6696 21.1211 17.9734 21.283 18.3033 21.315C18.6333 21.3471 18.9625 21.2467 19.2185 21.036C19.4745 20.8254 19.6363 20.5216 19.6683 20.1917ZM22.7467 26.5483C23.0104 26.7454 23.1857 27.0385 23.2346 27.3641C23.2835 27.6897 23.2019 28.0214 23.0077 28.2872C22.8134 28.553 22.5221 28.7315 22.1971 28.7838C21.8721 28.8361 21.5395 28.7581 21.2717 28.5667L21.255 28.5567C21.0014 28.4105 20.7296 28.2985 20.4467 28.2233C19.845 28.06 18.8967 27.9517 17.6367 28.29C16.3767 28.6267 15.6117 29.195 15.17 29.6367C14.9625 29.8434 14.7832 30.0765 14.6367 30.33L14.6283 30.3467C14.5619 30.4968 14.4666 30.6324 14.3477 30.7457C14.2289 30.859 14.0889 30.9478 13.9358 31.007C13.7826 31.0662 13.6193 31.0946 13.4552 31.0907C13.2911 31.0868 13.1293 31.0506 12.9792 30.9842C12.829 30.9177 12.6934 30.8224 12.5801 30.7036C12.4668 30.5847 12.3781 30.4448 12.3189 30.2916C12.2597 30.1385 12.2312 29.9752 12.2351 29.811C12.239 29.6469 12.2752 29.4851 12.3417 29.335L12.3433 29.3333V29.33L12.3483 29.3233L12.3533 29.31L12.3717 29.2717L12.425 29.165C12.4694 29.0783 12.5333 28.9694 12.6167 28.8383C12.7833 28.5783 13.0367 28.2383 13.3983 27.875C14.125 27.1433 15.2717 26.335 16.99 25.875C18.7083 25.4133 20.1067 25.5417 21.1017 25.8117C21.5967 25.945 21.985 26.1117 22.26 26.255C22.4069 26.3317 22.5498 26.4157 22.6883 26.5067L22.7217 26.5317L22.7367 26.54L22.7417 26.545L22.7467 26.5483Z" fill="white"/>
    <path fill-rule="evenodd" clip-rule="evenodd" d="M22.0883 4.25001L22.155 4.28334C24.1017 5.19501 24.9767 5.60167 25.8817 5.88834C26.2039 5.99056 26.5278 6.08167 26.8533 6.16167C27.7733 6.38501 28.7233 6.49001 30.845 6.71834L30.92 6.72501C32.2667 6.87001 33.3867 6.99167 34.27 7.19167C35.1933 7.40334 36.0267 7.73834 36.6833 8.43001C37.0667 8.83001 37.3733 9.29834 37.5933 9.80834C37.9683 10.675 37.97 11.5817 37.8333 12.5417C37.7 13.465 37.4117 14.595 37.06 15.9683L35.6333 21.5333C34.44 26.1883 31.4117 28.775 28.3717 30.1817C27.1633 32.805 25.2667 34.815 23.6983 36.1533L23.6633 36.1833C23.2467 36.54 22.835 36.8917 22.2967 37.2C21.7383 37.5183 21.09 37.7667 20.1817 38.0217C19.2733 38.2767 18.5933 38.4 17.9517 38.415C17.335 38.43 16.8067 38.34 16.275 38.2483L16.2283 38.2417C12.36 37.585 6.20833 35.385 4.36666 28.2L2.94 22.6333C2.59 21.2617 2.3 20.1333 2.16666 19.2067C2.03 18.2483 2.03166 17.3433 2.40666 16.475C2.62666 15.965 2.935 15.4983 3.31666 15.0967C3.97333 14.405 4.80666 14.07 5.73 13.86C6.61333 13.6567 7.73166 13.5367 9.08 13.3933L9.15499 13.385C10.0217 13.2917 10.69 13.2183 11.2433 13.1517L12.285 9.08501C12.6367 7.71167 12.9267 6.58334 13.255 5.71167C13.5933 4.81167 14.0317 4.01667 14.7883 3.44834C15.23 3.11501 15.73 2.86834 16.2617 2.71667C17.1783 2.45667 18.0683 2.60667 18.965 2.90501C19.825 3.19167 20.8517 3.67001 22.0883 4.25001ZM33.2117 20.9133C32.525 23.5933 31.1117 25.415 29.44 26.6633C29.7024 24.8797 29.6003 23.0614 29.14 21.3183L27.59 15.265C27.8164 15.1768 28.0121 15.0244 28.1533 14.8267C28.4417 14.4233 29.0283 14.1767 29.66 14.345C30.29 14.5133 30.6733 15.0217 30.7217 15.515C30.7537 15.845 30.9155 16.1487 31.1715 16.3594C31.4275 16.57 31.7567 16.6704 32.0867 16.6383C32.4166 16.6063 32.7204 16.4445 32.931 16.1885C33.1417 15.9325 33.242 15.6033 33.21 15.2733C33.0583 13.7033 31.905 12.3583 30.3067 11.93C29.7137 11.7673 29.0909 11.7452 28.4879 11.8656C27.8849 11.9859 27.3184 12.2454 26.8333 12.6233L26.745 12.38C26.4067 11.48 25.9683 10.685 25.2117 10.1167C24.7697 9.78433 24.2702 9.5363 23.7383 9.38501C22.8717 9.14001 22.0283 9.26001 21.1833 9.52667C21.0081 9.45489 20.8289 9.39313 20.6467 9.34167C19.0467 8.91334 17.3767 9.50167 16.46 10.785C16.2711 11.0488 16.1922 11.3757 16.24 11.6967C15.3233 12.1167 14.7267 12.3633 14.1183 12.5567L13.965 12.6067L14.6883 9.77834C15.0633 8.31667 15.3217 7.32167 15.5933 6.59501C15.8617 5.88167 16.0867 5.60167 16.2883 5.45001C16.4883 5.30001 16.7117 5.19001 16.9433 5.12334C17.165 5.06001 17.4917 5.05167 18.1767 5.28001C18.88 5.51334 19.7733 5.93001 21.0967 6.55001L21.185 6.59167C23.0183 7.45001 24.0467 7.93167 25.125 8.27501C25.5005 8.39278 25.8794 8.49834 26.2617 8.59167C27.3617 8.85834 28.4817 8.98001 30.48 9.19501L30.5783 9.20501C32.02 9.36001 32.9917 9.46667 33.7117 9.63167C34.4083 9.79001 34.6967 9.97001 34.8717 10.1533C35.0494 10.34 35.1917 10.5567 35.2983 10.8033C35.41 11.06 35.4667 11.4317 35.3583 12.1867C35.2483 12.9617 34.9933 13.9583 34.62 15.4183L33.2117 20.9133ZM21.825 11.9467C21.12 12.18 20.2267 12.5967 18.9033 13.2167L18.815 13.2583C16.9817 14.1167 15.9533 14.5983 14.875 14.9417C14.4994 15.0595 14.1206 15.165 13.7383 15.2583C12.6383 15.525 11.5183 15.6467 9.51999 15.8617L9.42166 15.8717C7.97999 16.0267 7.00833 16.1333 6.28833 16.2983C5.59166 16.4567 5.30333 16.6367 5.12833 16.82C4.94808 17.0092 4.80353 17.2294 4.70166 17.47C4.59 17.7267 4.53333 18.0983 4.64166 18.8533C4.75166 19.6283 5.00666 20.625 5.38 22.085L6.78833 27.58C8.25833 33.3133 13.1183 35.18 16.6483 35.78C17.2283 35.8783 17.535 35.9267 17.8917 35.9167C18.2417 35.9083 18.7017 35.8417 19.5083 35.6167C20.3133 35.39 20.745 35.2083 21.0567 35.03C21.3733 34.8483 21.62 34.6433 22.075 34.255C24.8583 31.88 28.195 27.695 26.72 21.9383L25.3117 16.445C24.9367 14.9833 24.6783 13.9883 24.4067 13.2617C24.1383 12.5483 23.9133 12.2683 23.7117 12.1167C23.5153 11.9684 23.2932 11.8577 23.0567 11.79C22.835 11.7267 22.5083 11.7183 21.8233 11.9467" fill="white"/>
    </svg>
    