<svg width="69" height="29" viewBox="0 0 69 29" fill="none" xmlns="http://www.w3.org/2000/svg">
<g clip-path="url(#clip0_681_14648)">
<path d="M5.55622 11.2259C5.55622 10.4948 6.15621 10.2134 7.15012 10.2134C8.575 10.2134 10.375 10.6448 11.8 11.4135V7.00717C10.2438 6.38846 8.70631 6.1447 7.15012 6.1447C3.34375 6.1447 0.8125 8.13225 0.8125 11.4511C0.8125 16.6259 7.93744 15.801 7.93744 18.0323C7.93744 18.8947 7.18756 19.176 6.13749 19.176C4.58129 19.176 2.59374 18.5385 1.01869 17.676L1.01869 22.1385C2.76249 22.8885 4.525 23.2072 6.13749 23.2072C10.0375 23.2072 12.7187 21.276 12.7187 17.9198C12.7 12.3323 5.55622 13.3259 5.55622 11.2259ZM18.2312 2.39476L13.6562 3.36968L13.6375 18.3884C13.6375 21.1636 15.7188 23.2072 18.4938 23.2072C20.0313 23.2072 21.1562 22.926 21.7749 22.5885V18.7822C21.1751 19.026 18.2125 19.8885 18.2125 17.1134V10.4572H21.7749V6.46348H18.2125L18.2312 2.39476ZM27.6063 7.85092L27.3063 6.46348H23.2563V22.8697H27.9438V11.751C29.0499 10.3073 30.925 10.5698 31.5063 10.776V6.46348C30.9063 6.23843 28.7125 5.82592 27.6063 7.85092ZM32.65 6.46348H37.3562V22.8697H32.65V6.46348ZM32.65 5.03846L37.3562 4.02596V0.219727L32.65 1.21351V5.03846ZM47.1437 6.1447C45.3062 6.1447 44.125 7.00717 43.4688 7.60728L43.2249 6.44475H39.1V28.3071L43.7875 27.3135L43.8063 22.0072C44.4813 22.4947 45.475 23.1884 47.125 23.1884C50.4813 23.1884 53.5375 20.4884 53.5375 14.5448C53.5188 9.10718 50.425 6.1447 47.1437 6.1447ZM46.0188 19.0634C44.9125 19.0634 44.2561 18.6698 43.8063 18.1822L43.7875 11.2259C44.275 10.6822 44.95 10.3073 46.0188 10.3073C47.725 10.3073 48.9062 12.2197 48.9062 14.6759C48.9062 17.1885 47.7437 19.0634 46.0188 19.0634ZM68.3125 14.7322C68.3125 9.93221 65.9874 6.1447 61.5438 6.1447C57.0811 6.1447 54.3811 9.93234 54.3811 14.6948C54.3811 20.3384 57.5688 23.1884 62.1436 23.1884C64.375 23.1884 66.0625 22.6822 67.3374 21.9698V18.2197C66.0626 18.8572 64.6 19.251 62.7438 19.251C60.9249 19.251 59.3125 18.6135 59.1063 16.401L68.2751 16.401C68.2751 16.1571 68.3125 15.1822 68.3125 14.7322ZM59.05 12.951C59.05 10.8323 60.3438 9.95093 61.5251 9.95093C62.6687 9.95093 63.8876 10.8323 63.8876 12.951H59.05Z" fill="#6772E5"/>
</g>
<defs>
<clipPath id="clip0_681_14648">
<rect width="67.5" height="28.215" fill="white" transform="translate(0.8125 0.21875)"/>
</clipPath>
</defs>
</svg>
