<svg width="637" height="656" viewBox="0 0 637 656" fill="none" xmlns="http://www.w3.org/2000/svg">
<g filter="url(#filter0_d_3196_36)">
<rect x="10" y="6" width="617" height="479" rx="30" fill="white"/>
</g>
<g filter="url(#filter1_d_3196_36)">
<rect x="10" y="519" width="617" height="123" rx="30" fill="white"/>
</g>
<path d="M10 549C10 532.431 23.4315 519 40 519H133V642H40C23.4315 642 10 628.569 10 612V549Z" fill="#FF6600"/>
<path d="M60.08 67.36C59.232 67.36 58.408 67.232 57.608 66.976C56.824 66.72 56.104 66.304 55.448 65.728C54.792 65.136 54.24 64.336 53.792 63.328L55.784 62.2C56.344 63.208 56.96 63.936 57.632 64.384C58.304 64.832 59.144 65.056 60.152 65.056C61.128 65.056 61.864 64.84 62.36 64.408C62.872 63.976 63.128 63.384 63.128 62.632C63.128 62.184 63.016 61.792 62.792 61.456C62.584 61.12 62.208 60.808 61.664 60.52C61.12 60.232 60.352 59.968 59.36 59.728C58.112 59.408 57.136 59.016 56.432 58.552C55.744 58.072 55.264 57.528 54.992 56.92C54.72 56.296 54.584 55.624 54.584 54.904C54.584 54.008 54.792 53.232 55.208 52.576C55.624 51.904 56.224 51.384 57.008 51.016C57.792 50.632 58.72 50.44 59.792 50.44C61.072 50.44 62.128 50.688 62.96 51.184C63.792 51.664 64.496 52.328 65.072 53.176L63.056 54.472C62.56 53.864 62.04 53.432 61.496 53.176C60.968 52.904 60.4 52.768 59.792 52.768C58.864 52.768 58.152 52.952 57.656 53.32C57.176 53.688 56.936 54.216 56.936 54.904C56.936 55.496 57.16 56.008 57.608 56.44C58.072 56.872 58.968 57.248 60.296 57.568C61.64 57.904 62.688 58.304 63.44 58.768C64.208 59.216 64.744 59.76 65.048 60.4C65.368 61.024 65.528 61.776 65.528 62.656C65.528 63.536 65.304 64.328 64.856 65.032C64.408 65.736 63.776 66.304 62.96 66.736C62.144 67.152 61.184 67.36 60.08 67.36ZM73.1158 67.24C71.9798 67.24 70.9798 66.992 70.1158 66.496C69.2518 65.984 68.5798 65.272 68.0998 64.36C67.6198 63.448 67.3798 62.384 67.3798 61.168C67.3798 59.936 67.6198 58.864 68.0998 57.952C68.5798 57.04 69.2518 56.328 70.1158 55.816C70.9798 55.304 71.9798 55.048 73.1158 55.048C74.2678 55.048 75.2758 55.304 76.1398 55.816C77.0038 56.328 77.6758 57.04 78.1558 57.952C78.6358 58.864 78.8758 59.936 78.8758 61.168C78.8758 61.28 78.8678 61.4 78.8518 61.528C78.8518 61.64 78.8438 61.744 78.8278 61.84H69.6598V59.776H77.0998L76.4278 61.168C76.4278 59.952 76.1558 58.952 75.6118 58.168C75.0678 57.384 74.2358 56.992 73.1158 56.992C72.1238 56.992 71.3318 57.312 70.7398 57.952C70.1478 58.576 69.8518 59.4 69.8518 60.424V61.672C69.8518 62.744 70.1398 63.6 70.7158 64.24C71.2918 64.864 72.0918 65.176 73.1158 65.176C74.0598 65.176 74.7878 64.976 75.2998 64.576C75.8118 64.176 76.2598 63.68 76.6438 63.088L78.4438 64.216C77.8998 65.224 77.1958 65.984 76.3318 66.496C75.4838 66.992 74.4118 67.24 73.1158 67.24ZM83.8698 67.12C83.4538 67.12 83.0858 67.024 82.7658 66.832C82.4458 66.624 82.1898 66.328 81.9978 65.944C81.8218 65.56 81.7338 65.088 81.7338 64.528V50.656H84.0858V63.688C84.0858 64.184 84.2058 64.52 84.4458 64.696C84.7018 64.872 84.9898 64.96 85.3098 64.96V66.88C85.1018 66.96 84.8778 67.016 84.6378 67.048C84.3978 67.096 84.1418 67.12 83.8698 67.12ZM93.3995 67.24C92.2635 67.24 91.2635 66.992 90.3995 66.496C89.5355 65.984 88.8635 65.272 88.3835 64.36C87.9035 63.448 87.6635 62.384 87.6635 61.168C87.6635 59.936 87.9035 58.864 88.3835 57.952C88.8635 57.04 89.5355 56.328 90.3995 55.816C91.2635 55.304 92.2635 55.048 93.3995 55.048C94.5515 55.048 95.5595 55.304 96.4235 55.816C97.2875 56.328 97.9595 57.04 98.4395 57.952C98.9195 58.864 99.1595 59.936 99.1595 61.168C99.1595 61.28 99.1515 61.4 99.1355 61.528C99.1355 61.64 99.1275 61.744 99.1115 61.84H89.9435V59.776H97.3835L96.7115 61.168C96.7115 59.952 96.4395 58.952 95.8955 58.168C95.3515 57.384 94.5195 56.992 93.3995 56.992C92.4075 56.992 91.6155 57.312 91.0235 57.952C90.4315 58.576 90.1355 59.4 90.1355 60.424V61.672C90.1355 62.744 90.4235 63.6 90.9995 64.24C91.5755 64.864 92.3755 65.176 93.3995 65.176C94.3435 65.176 95.0715 64.976 95.5835 64.576C96.0955 64.176 96.5435 63.68 96.9275 63.088L98.7275 64.216C98.1835 65.224 97.4795 65.984 96.6155 66.496C95.7675 66.992 94.6955 67.24 93.3995 67.24ZM107.295 67.24C106.095 67.24 105.055 66.984 104.175 66.472C103.295 65.944 102.615 65.224 102.135 64.312C101.655 63.4 101.415 62.344 101.415 61.144C101.415 59.944 101.655 58.888 102.135 57.976C102.615 57.064 103.295 56.352 104.175 55.84C105.055 55.312 106.095 55.048 107.295 55.048C108.431 55.048 109.463 55.36 110.391 55.984C111.319 56.592 111.991 57.408 112.407 58.432L110.127 59.392C109.871 58.72 109.487 58.216 108.975 57.88C108.463 57.528 107.879 57.352 107.223 57.352C106.263 57.352 105.463 57.688 104.823 58.36C104.183 59.016 103.863 59.944 103.863 61.144C103.863 62.344 104.183 63.28 104.823 63.952C105.463 64.608 106.263 64.936 107.223 64.936C107.879 64.936 108.463 64.768 108.975 64.432C109.487 64.08 109.871 63.568 110.127 62.896L112.407 63.856C111.975 64.88 111.295 65.704 110.367 66.328C109.455 66.936 108.431 67.24 107.295 67.24ZM119.386 67.216C118.362 67.216 117.546 66.92 116.938 66.328C116.346 65.72 116.05 64.784 116.05 63.52V55.432V55.288L116.506 52.648H118.45V63.568C118.45 64.016 118.562 64.352 118.786 64.576C119.026 64.8 119.322 64.912 119.674 64.912C119.946 64.912 120.186 64.896 120.394 64.864C120.602 64.832 120.786 64.792 120.946 64.744V66.976C120.738 67.04 120.506 67.096 120.25 67.144C120.01 67.192 119.722 67.216 119.386 67.216ZM114.25 57.496V55.288H120.946V57.496H114.25ZM131.869 67V50.656H137.245C138.813 50.656 140.213 50.984 141.445 51.64C142.677 52.296 143.645 53.24 144.349 54.472C145.053 55.688 145.405 57.152 145.405 58.864C145.405 60.608 145.045 62.088 144.325 63.304C143.621 64.504 142.653 65.424 141.421 66.064C140.189 66.688 138.789 67 137.221 67H131.869ZM134.269 65.272L133.549 64.744H137.101C138.173 64.744 139.141 64.536 140.005 64.12C140.885 63.688 141.589 63.04 142.117 62.176C142.645 61.312 142.909 60.208 142.909 58.864C142.909 57.568 142.645 56.48 142.117 55.6C141.605 54.704 140.909 54.032 140.029 53.584C139.165 53.136 138.197 52.912 137.125 52.912H133.381L134.269 52.048V65.272ZM152.022 67.336C151.11 67.336 150.326 67.176 149.67 66.856C149.014 66.536 148.51 66.08 148.158 65.488C147.822 64.88 147.654 64.16 147.654 63.328C147.654 62.56 147.83 61.88 148.182 61.288C148.534 60.68 149.038 60.2 149.694 59.848C150.35 59.496 151.126 59.32 152.022 59.32C153.142 59.32 154.038 59.576 154.71 60.088C155.398 60.584 155.878 61.272 156.15 62.152H154.806V59.152C154.806 58.656 154.638 58.2 154.302 57.784C153.966 57.368 153.374 57.16 152.526 57.16C152.078 57.16 151.582 57.216 151.038 57.328C150.51 57.424 149.958 57.6 149.382 57.856L148.662 56.008C149.318 55.688 149.998 55.448 150.702 55.288C151.406 55.128 152.094 55.048 152.766 55.048C153.774 55.048 154.606 55.232 155.262 55.6C155.918 55.968 156.406 56.464 156.726 57.088C157.046 57.696 157.206 58.384 157.206 59.152V67H155.478L154.878 64.864L156.15 64.504C155.862 65.448 155.35 66.16 154.614 66.64C153.878 67.104 153.014 67.336 152.022 67.336ZM152.454 65.2C153.158 65.2 153.726 65.04 154.158 64.72C154.59 64.384 154.806 63.92 154.806 63.328C154.806 62.72 154.59 62.256 154.158 61.936C153.726 61.616 153.158 61.456 152.454 61.456C151.75 61.456 151.182 61.616 150.75 61.936C150.318 62.256 150.102 62.72 150.102 63.328C150.102 63.92 150.318 64.384 150.75 64.72C151.182 65.04 151.75 65.2 152.454 65.2ZM164.875 67.216C163.851 67.216 163.035 66.92 162.427 66.328C161.835 65.72 161.539 64.784 161.539 63.52V55.432V55.288L161.995 52.648H163.939V63.568C163.939 64.016 164.051 64.352 164.275 64.576C164.515 64.8 164.811 64.912 165.163 64.912C165.435 64.912 165.675 64.896 165.883 64.864C166.091 64.832 166.275 64.792 166.435 64.744V66.976C166.227 67.04 165.995 67.096 165.739 67.144C165.499 67.192 165.211 67.216 164.875 67.216ZM159.739 57.496V55.288H166.435V57.496H159.739ZM174.682 67.24C173.546 67.24 172.546 66.992 171.682 66.496C170.818 65.984 170.146 65.272 169.666 64.36C169.186 63.448 168.946 62.384 168.946 61.168C168.946 59.936 169.186 58.864 169.666 57.952C170.146 57.04 170.818 56.328 171.682 55.816C172.546 55.304 173.546 55.048 174.682 55.048C175.834 55.048 176.842 55.304 177.706 55.816C178.57 56.328 179.242 57.04 179.722 57.952C180.202 58.864 180.442 59.936 180.442 61.168C180.442 61.28 180.434 61.4 180.418 61.528C180.418 61.64 180.41 61.744 180.394 61.84H171.226V59.776H178.666L177.994 61.168C177.994 59.952 177.722 58.952 177.178 58.168C176.634 57.384 175.802 56.992 174.682 56.992C173.69 56.992 172.898 57.312 172.306 57.952C171.714 58.576 171.418 59.4 171.418 60.424V61.672C171.418 62.744 171.706 63.6 172.282 64.24C172.858 64.864 173.658 65.176 174.682 65.176C175.626 65.176 176.354 64.976 176.866 64.576C177.378 64.176 177.826 63.68 178.21 63.088L180.01 64.216C179.466 65.224 178.762 65.984 177.898 66.496C177.05 66.992 175.978 67.24 174.682 67.24Z" fill="#040171"/>
<path d="M171.864 569L174.864 552.656H177L181.488 564.584H181.56L186.048 552.656H188.184L191.184 569H188.664L187.344 561.224C187.152 560.104 186.992 559 186.864 557.912C186.736 556.808 186.656 555.704 186.624 554.6H187.224C186.936 555.928 186.632 557.096 186.312 558.104C186.008 559.112 185.656 560.152 185.256 561.224L182.448 568.736H180.6L177.792 561.224C177.392 560.136 177.032 559.096 176.712 558.104C176.408 557.096 176.112 555.928 175.824 554.6H176.424C176.392 555.704 176.312 556.808 176.184 557.912C176.056 559 175.896 560.104 175.704 561.224L174.384 569H171.864ZM199.583 569.24C198.399 569.24 197.351 568.992 196.439 568.496C195.543 567.984 194.847 567.272 194.351 566.36C193.855 565.448 193.607 564.384 193.607 563.168C193.607 561.936 193.855 560.864 194.351 559.952C194.847 559.04 195.543 558.328 196.439 557.816C197.351 557.304 198.399 557.048 199.583 557.048C200.783 557.048 201.831 557.304 202.727 557.816C203.623 558.328 204.319 559.04 204.815 559.952C205.327 560.864 205.583 561.936 205.583 563.168C205.583 564.384 205.327 565.448 204.815 566.36C204.319 567.272 203.623 567.984 202.727 568.496C201.831 568.992 200.783 569.24 199.583 569.24ZM199.583 566.936C200.655 566.936 201.511 566.592 202.151 565.904C202.807 565.2 203.135 564.288 203.135 563.168C203.135 562.032 202.807 561.112 202.151 560.408C201.511 559.704 200.655 559.352 199.583 559.352C198.527 559.352 197.671 559.704 197.015 560.408C196.375 561.096 196.055 562.008 196.055 563.144C196.055 564.28 196.375 565.2 197.015 565.904C197.671 566.592 198.527 566.936 199.583 566.936ZM215.266 557.048C216.098 557.048 216.754 557.192 217.234 557.48C217.714 557.752 218.066 558.128 218.29 558.608C218.514 559.072 218.658 559.6 218.722 560.192C218.786 560.784 218.818 561.392 218.818 562.016V569H216.418V561.512C216.418 560.68 216.226 560.12 215.842 559.832C215.474 559.544 215.034 559.4 214.522 559.4C214.01 559.4 213.49 559.504 212.962 559.712C212.434 559.92 211.962 560.2 211.546 560.552C211.13 560.904 210.81 561.296 210.586 561.728V560.384H210.97V569H208.57V557.288H210.394L210.898 559.352L210.298 559.424C210.746 558.912 211.234 558.48 211.762 558.128C212.29 557.776 212.85 557.512 213.442 557.336C214.034 557.144 214.642 557.048 215.266 557.048ZM226.156 567.512C226.156 568.36 225.877 569.24 225.317 570.152C224.772 571.08 223.948 571.92 222.844 572.672L222.1 571.976C222.612 571.496 223.004 570.944 223.276 570.32C223.564 569.696 223.709 569.192 223.709 568.808C223.709 568.056 223.54 567.48 223.204 567.08C222.868 566.68 222.5 566.376 222.1 566.168C222.276 565.896 222.452 565.688 222.628 565.544C222.82 565.384 223.036 565.272 223.276 565.208C223.516 565.128 223.781 565.088 224.069 565.088C224.437 565.088 224.781 565.192 225.1 565.4C225.42 565.592 225.676 565.872 225.869 566.24C226.061 566.592 226.156 567.016 226.156 567.512ZM241.642 569.24C240.506 569.24 239.514 568.904 238.666 568.232C237.834 567.56 237.194 566.6 236.746 565.352C236.298 564.088 236.074 562.584 236.074 560.84C236.074 559.112 236.298 557.624 236.746 556.376C237.194 555.112 237.834 554.144 238.666 553.472C239.514 552.784 240.506 552.44 241.642 552.44C242.794 552.44 243.786 552.784 244.618 553.472C245.45 554.144 246.09 555.112 246.538 556.376C246.986 557.624 247.21 559.112 247.21 560.84C247.21 562.584 246.986 564.088 246.538 565.352C246.09 566.6 245.45 567.56 244.618 568.232C243.786 568.904 242.794 569.24 241.642 569.24ZM241.642 566.936C242.378 566.936 242.97 566.672 243.418 566.144C243.882 565.6 244.226 564.864 244.45 563.936C244.674 563.008 244.786 561.976 244.786 560.84C244.786 559.816 244.674 558.84 244.45 557.912C244.226 556.984 243.882 556.224 243.418 555.632C242.97 555.04 242.378 554.744 241.642 554.744C240.89 554.744 240.274 555.04 239.794 555.632C239.33 556.224 238.994 556.984 238.786 557.912C238.578 558.84 238.474 559.816 238.474 560.84C238.474 561.976 238.578 563.008 238.786 563.936C238.994 564.864 239.33 565.6 239.794 566.144C240.274 566.672 240.89 566.936 241.642 566.936ZM255.227 569.24C254.091 569.24 253.131 569.032 252.347 568.616C251.563 568.2 250.971 567.648 250.571 566.96C250.171 566.256 249.971 565.496 249.971 564.68C249.971 563.8 250.155 563.048 250.523 562.424C250.891 561.8 251.395 561.296 252.035 560.912C252.675 560.512 253.403 560.232 254.219 560.072V561.248C253.499 561.072 252.859 560.784 252.299 560.384C251.739 559.984 251.299 559.488 250.979 558.896C250.659 558.304 250.499 557.632 250.499 556.88C250.499 555.984 250.691 555.208 251.075 554.552C251.475 553.88 252.027 553.36 252.731 552.992C253.451 552.624 254.299 552.44 255.275 552.44C256.219 552.44 257.043 552.624 257.747 552.992C258.451 553.36 258.995 553.88 259.379 554.552C259.763 555.208 259.955 555.984 259.955 556.88C259.955 557.552 259.819 558.168 259.547 558.728C259.291 559.288 258.923 559.768 258.443 560.168C257.979 560.568 257.435 560.872 256.811 561.08L256.787 560.192C257.523 560.384 258.163 560.68 258.707 561.08C259.267 561.48 259.699 561.984 260.003 562.592C260.323 563.184 260.483 563.88 260.483 564.68C260.483 565.496 260.283 566.256 259.883 566.96C259.483 567.648 258.891 568.2 258.107 568.616C257.323 569.032 256.363 569.24 255.227 569.24ZM255.227 566.888C256.075 566.888 256.755 566.648 257.267 566.168C257.795 565.688 258.059 565.056 258.059 564.272C258.059 563.44 257.795 562.776 257.267 562.28C256.755 561.784 256.075 561.536 255.227 561.536C254.379 561.536 253.691 561.784 253.163 562.28C252.651 562.776 252.395 563.44 252.395 564.272C252.395 565.056 252.651 565.688 253.163 566.168C253.691 566.648 254.379 566.888 255.227 566.888ZM255.227 559.28C255.931 559.28 256.515 559.064 256.979 558.632C257.443 558.184 257.675 557.632 257.675 556.976C257.675 556.352 257.443 555.832 256.979 555.416C256.515 555 255.931 554.792 255.227 554.792C254.539 554.792 253.955 555 253.475 555.416C253.011 555.832 252.779 556.352 252.779 556.976C252.779 557.632 253.011 558.184 253.475 558.632C253.955 559.064 254.539 559.28 255.227 559.28ZM265.553 569.12C265.217 569.12 264.905 569.032 264.617 568.856C264.329 568.68 264.097 568.448 263.921 568.16C263.745 567.872 263.657 567.56 263.657 567.224C263.657 566.872 263.745 566.56 263.921 566.288C264.097 566 264.329 565.768 264.617 565.592C264.905 565.416 265.217 565.328 265.553 565.328C265.905 565.328 266.225 565.416 266.513 565.592C266.801 565.768 267.033 566 267.209 566.288C267.385 566.56 267.473 566.872 267.473 567.224C267.473 567.56 267.385 567.872 267.209 568.16C267.033 568.448 266.801 568.68 266.513 568.856C266.225 569.032 265.905 569.12 265.553 569.12ZM265.553 561.08C265.217 561.08 264.905 560.992 264.617 560.816C264.329 560.64 264.097 560.408 263.921 560.12C263.745 559.832 263.657 559.52 263.657 559.184C263.657 558.832 263.745 558.52 263.921 558.248C264.097 557.96 264.329 557.728 264.617 557.552C264.905 557.376 265.217 557.288 265.553 557.288C265.905 557.288 266.225 557.376 266.513 557.552C266.801 557.728 267.033 557.96 267.209 558.248C267.385 558.52 267.473 558.832 267.473 559.184C267.473 559.52 267.385 559.832 267.209 560.12C267.033 560.408 266.801 560.64 266.513 560.816C266.225 560.992 265.905 561.08 265.553 561.08ZM275.982 569.24C274.846 569.24 273.854 568.904 273.006 568.232C272.174 567.56 271.534 566.6 271.086 565.352C270.638 564.088 270.414 562.584 270.414 560.84C270.414 559.112 270.638 557.624 271.086 556.376C271.534 555.112 272.174 554.144 273.006 553.472C273.854 552.784 274.846 552.44 275.982 552.44C277.134 552.44 278.126 552.784 278.958 553.472C279.79 554.144 280.43 555.112 280.878 556.376C281.326 557.624 281.55 559.112 281.55 560.84C281.55 562.584 281.326 564.088 280.878 565.352C280.43 566.6 279.79 567.56 278.958 568.232C278.126 568.904 277.134 569.24 275.982 569.24ZM275.982 566.936C276.718 566.936 277.31 566.672 277.758 566.144C278.222 565.6 278.566 564.864 278.79 563.936C279.014 563.008 279.126 561.976 279.126 560.84C279.126 559.816 279.014 558.84 278.79 557.912C278.566 556.984 278.222 556.224 277.758 555.632C277.31 555.04 276.718 554.744 275.982 554.744C275.23 554.744 274.614 555.04 274.134 555.632C273.67 556.224 273.334 556.984 273.126 557.912C272.918 558.84 272.814 559.816 272.814 560.84C272.814 561.976 272.918 563.008 273.126 563.936C273.334 564.864 273.67 565.6 274.134 566.144C274.614 566.672 275.23 566.936 275.982 566.936ZM289.663 569.24C288.527 569.24 287.535 568.904 286.687 568.232C285.855 567.56 285.215 566.6 284.767 565.352C284.319 564.088 284.095 562.584 284.095 560.84C284.095 559.112 284.319 557.624 284.767 556.376C285.215 555.112 285.855 554.144 286.687 553.472C287.535 552.784 288.527 552.44 289.663 552.44C290.815 552.44 291.807 552.784 292.639 553.472C293.471 554.144 294.111 555.112 294.559 556.376C295.007 557.624 295.231 559.112 295.231 560.84C295.231 562.584 295.007 564.088 294.559 565.352C294.111 566.6 293.471 567.56 292.639 568.232C291.807 568.904 290.815 569.24 289.663 569.24ZM289.663 566.936C290.399 566.936 290.991 566.672 291.439 566.144C291.903 565.6 292.247 564.864 292.471 563.936C292.695 563.008 292.807 561.976 292.807 560.84C292.807 559.816 292.695 558.84 292.471 557.912C292.247 556.984 291.903 556.224 291.439 555.632C290.991 555.04 290.399 554.744 289.663 554.744C288.911 554.744 288.295 555.04 287.815 555.632C287.351 556.224 287.015 556.984 286.807 557.912C286.599 558.84 286.495 559.816 286.495 560.84C286.495 561.976 286.599 563.008 286.807 563.936C287.015 564.864 287.351 565.6 287.815 566.144C288.295 566.672 288.911 566.936 289.663 566.936ZM307.826 561.464H311.21C312.266 561.464 313.114 561.176 313.754 560.6C314.394 560.024 314.714 559.224 314.714 558.2C314.714 557.112 314.394 556.296 313.754 555.752C313.13 555.192 312.29 554.912 311.234 554.912H307.826L308.258 554.36V569H305.858V552.656H311.642C312.762 552.656 313.738 552.904 314.57 553.4C315.402 553.896 316.05 554.56 316.514 555.392C316.978 556.224 317.21 557.16 317.21 558.2C317.21 559.224 316.978 560.16 316.514 561.008C316.05 561.84 315.394 562.504 314.546 563C313.714 563.48 312.738 563.72 311.618 563.72H307.826V561.464ZM319.512 569L322.512 552.656H324.648L329.136 564.584H329.208L333.696 552.656H335.832L338.832 569H336.312L334.992 561.224C334.8 560.104 334.64 559 334.512 557.912C334.384 556.808 334.304 555.704 334.272 554.6H334.872C334.584 555.928 334.28 557.096 333.96 558.104C333.656 559.112 333.304 560.152 332.904 561.224L330.096 568.736H328.248L325.44 561.224C325.04 560.136 324.68 559.096 324.36 558.104C324.056 557.096 323.76 555.928 323.472 554.6H324.072C324.04 555.704 323.96 556.808 323.832 557.912C323.704 559 323.544 560.104 323.352 561.224L322.032 569H319.512ZM355.385 563.192H348.185V560.936H355.385V563.192ZM370.359 569.24C369.223 569.24 368.231 568.904 367.383 568.232C366.551 567.56 365.911 566.6 365.463 565.352C365.015 564.088 364.791 562.584 364.791 560.84C364.791 559.112 365.015 557.624 365.463 556.376C365.911 555.112 366.551 554.144 367.383 553.472C368.231 552.784 369.223 552.44 370.359 552.44C371.511 552.44 372.503 552.784 373.335 553.472C374.167 554.144 374.807 555.112 375.255 556.376C375.703 557.624 375.927 559.112 375.927 560.84C375.927 562.584 375.703 564.088 375.255 565.352C374.807 566.6 374.167 567.56 373.335 568.232C372.503 568.904 371.511 569.24 370.359 569.24ZM370.359 566.936C371.095 566.936 371.687 566.672 372.135 566.144C372.599 565.6 372.943 564.864 373.167 563.936C373.391 563.008 373.503 561.976 373.503 560.84C373.503 559.816 373.391 558.84 373.167 557.912C372.943 556.984 372.599 556.224 372.135 555.632C371.687 555.04 371.095 554.744 370.359 554.744C369.607 554.744 368.991 555.04 368.511 555.632C368.047 556.224 367.711 556.984 367.503 557.912C367.295 558.84 367.191 559.816 367.191 560.84C367.191 561.976 367.295 563.008 367.503 563.936C367.711 564.864 368.047 565.6 368.511 566.144C368.991 566.672 369.607 566.936 370.359 566.936ZM381.448 555.176L382.336 555.536C382.224 555.84 382.016 556.136 381.712 556.424C381.408 556.712 380.992 556.952 380.464 557.144C379.936 557.336 379.272 557.432 378.472 557.432V555.128C379.16 555.128 379.752 555.032 380.248 554.84C380.744 554.632 381.152 554.344 381.472 553.976C381.808 553.592 382.056 553.152 382.216 552.656H383.848V569H381.448V555.176ZM389.817 569.12C389.481 569.12 389.169 569.032 388.881 568.856C388.593 568.68 388.361 568.448 388.185 568.16C388.009 567.872 387.921 567.56 387.921 567.224C387.921 566.872 388.009 566.56 388.185 566.288C388.361 566 388.593 565.768 388.881 565.592C389.169 565.416 389.481 565.328 389.817 565.328C390.169 565.328 390.489 565.416 390.777 565.592C391.065 565.768 391.297 566 391.473 566.288C391.649 566.56 391.737 566.872 391.737 567.224C391.737 567.56 391.649 567.872 391.473 568.16C391.297 568.448 391.065 568.68 390.777 568.856C390.489 569.032 390.169 569.12 389.817 569.12ZM389.817 561.08C389.481 561.08 389.169 560.992 388.881 560.816C388.593 560.64 388.361 560.408 388.185 560.12C388.009 559.832 387.921 559.52 387.921 559.184C387.921 558.832 388.009 558.52 388.185 558.248C388.361 557.96 388.593 557.728 388.881 557.552C389.169 557.376 389.481 557.288 389.817 557.288C390.169 557.288 390.489 557.376 390.777 557.552C391.065 557.728 391.297 557.96 391.473 558.248C391.649 558.52 391.737 558.832 391.737 559.184C391.737 559.52 391.649 559.832 391.473 560.12C391.297 560.408 391.065 560.64 390.777 560.816C390.489 560.992 390.169 561.08 389.817 561.08ZM407.2 569.24C406.064 569.24 405.072 568.904 404.224 568.232C403.392 567.56 402.752 566.6 402.304 565.352C401.856 564.088 401.632 562.584 401.632 560.84C401.632 559.112 401.856 557.624 402.304 556.376C402.752 555.112 403.392 554.144 404.224 553.472C405.072 552.784 406.064 552.44 407.2 552.44C408.352 552.44 409.344 552.784 410.176 553.472C411.008 554.144 411.648 555.112 412.096 556.376C412.544 557.624 412.768 559.112 412.768 560.84C412.768 562.584 412.544 564.088 412.096 565.352C411.648 566.6 411.008 567.56 410.176 568.232C409.344 568.904 408.352 569.24 407.2 569.24ZM407.2 566.936C407.936 566.936 408.528 566.672 408.976 566.144C409.44 565.6 409.784 564.864 410.008 563.936C410.232 563.008 410.344 561.976 410.344 560.84C410.344 559.816 410.232 558.84 410.008 557.912C409.784 556.984 409.44 556.224 408.976 555.632C408.528 555.04 407.936 554.744 407.2 554.744C406.448 554.744 405.832 555.04 405.352 555.632C404.888 556.224 404.552 556.984 404.344 557.912C404.136 558.84 404.032 559.816 404.032 560.84C404.032 561.976 404.136 563.008 404.344 563.936C404.552 564.864 404.888 565.6 405.352 566.144C405.832 566.672 406.448 566.936 407.2 566.936ZM420.881 569.24C419.745 569.24 418.753 568.904 417.905 568.232C417.073 567.56 416.433 566.6 415.985 565.352C415.537 564.088 415.313 562.584 415.313 560.84C415.313 559.112 415.537 557.624 415.985 556.376C416.433 555.112 417.073 554.144 417.905 553.472C418.753 552.784 419.745 552.44 420.881 552.44C422.033 552.44 423.025 552.784 423.857 553.472C424.689 554.144 425.329 555.112 425.777 556.376C426.225 557.624 426.449 559.112 426.449 560.84C426.449 562.584 426.225 564.088 425.777 565.352C425.329 566.6 424.689 567.56 423.857 568.232C423.025 568.904 422.033 569.24 420.881 569.24ZM420.881 566.936C421.617 566.936 422.209 566.672 422.657 566.144C423.121 565.6 423.465 564.864 423.689 563.936C423.913 563.008 424.025 561.976 424.025 560.84C424.025 559.816 423.913 558.84 423.689 557.912C423.465 556.984 423.121 556.224 422.657 555.632C422.209 555.04 421.617 554.744 420.881 554.744C420.129 554.744 419.513 555.04 419.033 555.632C418.569 556.224 418.233 556.984 418.025 557.912C417.817 558.84 417.713 559.816 417.713 560.84C417.713 561.976 417.817 563.008 418.025 563.936C418.233 564.864 418.569 565.6 419.033 566.144C419.513 566.672 420.129 566.936 420.881 566.936ZM438.589 562.928H447.397V565.184H438.589V562.928ZM435.517 569L441.349 552.656H444.613L450.445 569H447.997L442.765 554.336H443.197L437.965 569H435.517ZM452.511 569L455.511 552.656H457.647L462.135 564.584H462.207L466.695 552.656H468.831L471.831 569H469.311L467.991 561.224C467.799 560.104 467.639 559 467.511 557.912C467.383 556.808 467.303 555.704 467.271 554.6H467.871C467.583 555.928 467.279 557.096 466.959 558.104C466.655 559.112 466.303 560.152 465.903 561.224L463.095 568.736H461.247L458.439 561.224C458.039 560.136 457.679 559.096 457.359 558.104C457.055 557.096 456.759 555.928 456.471 554.6H457.071C457.039 555.704 456.959 556.808 456.831 557.912C456.703 559 456.543 560.104 456.351 561.224L455.031 569H452.511Z" fill="#040171"/>
<path d="M177.732 606.18C176.496 606.18 175.41 605.91 174.474 605.37C173.55 604.818 172.83 604.068 172.314 603.12C171.798 602.16 171.54 601.08 171.54 599.88C171.54 598.968 171.696 598.128 172.008 597.36C172.32 596.592 172.752 595.926 173.304 595.362C173.868 594.798 174.522 594.36 175.266 594.048C176.022 593.736 176.844 593.58 177.732 593.58C179.124 593.58 180.264 593.868 181.152 594.444C182.04 595.008 182.766 595.77 183.33 596.73L181.566 597.252C181.014 596.496 180.42 595.986 179.784 595.722C179.16 595.446 178.476 595.308 177.732 595.308C176.904 595.308 176.16 595.506 175.5 595.902C174.852 596.298 174.336 596.838 173.952 597.522C173.568 598.206 173.376 598.992 173.376 599.88C173.376 600.756 173.568 601.542 173.952 602.238C174.336 602.922 174.852 603.462 175.5 603.858C176.16 604.254 176.904 604.452 177.732 604.452C178.476 604.452 179.16 604.32 179.784 604.056C180.42 603.78 181.014 603.264 181.566 602.508L183.33 603.03C182.766 603.99 182.04 604.758 181.152 605.334C180.264 605.898 179.124 606.18 177.732 606.18ZM189.256 606.18C188.368 606.18 187.582 605.994 186.898 605.622C186.226 605.238 185.704 604.704 185.332 604.02C184.96 603.336 184.774 602.538 184.774 601.626C184.774 600.702 184.96 599.898 185.332 599.214C185.704 598.53 186.226 597.996 186.898 597.612C187.582 597.228 188.368 597.036 189.256 597.036C190.156 597.036 190.942 597.228 191.614 597.612C192.286 597.996 192.808 598.53 193.18 599.214C193.564 599.898 193.756 600.702 193.756 601.626C193.756 602.538 193.564 603.336 193.18 604.02C192.808 604.704 192.286 605.238 191.614 605.622C190.942 605.994 190.156 606.18 189.256 606.18ZM189.256 604.452C190.06 604.452 190.702 604.194 191.182 603.678C191.674 603.15 191.92 602.466 191.92 601.626C191.92 600.774 191.674 600.084 191.182 599.556C190.702 599.028 190.06 598.764 189.256 598.764C188.464 598.764 187.822 599.028 187.33 599.556C186.85 600.072 186.61 600.756 186.61 601.608C186.61 602.46 186.85 603.15 187.33 603.678C187.822 604.194 188.464 604.452 189.256 604.452ZM201.018 597.036C201.642 597.036 202.134 597.144 202.494 597.36C202.854 597.564 203.118 597.846 203.286 598.206C203.454 598.554 203.562 598.95 203.61 599.394C203.658 599.838 203.682 600.294 203.682 600.762V606H201.882V600.384C201.882 599.76 201.738 599.34 201.45 599.124C201.174 598.908 200.844 598.8 200.46 598.8C200.076 598.8 199.686 598.878 199.29 599.034C198.894 599.19 198.54 599.4 198.228 599.664C197.916 599.928 197.676 600.222 197.508 600.546V599.538H197.796V606H195.996V597.216H197.364L197.742 598.764L197.292 598.818C197.628 598.434 197.994 598.11 198.39 597.846C198.786 597.582 199.206 597.384 199.65 597.252C200.094 597.108 200.55 597.036 201.018 597.036ZM210.232 606.18C209.332 606.18 208.552 605.988 207.892 605.604C207.232 605.208 206.722 604.668 206.362 603.984C206.002 603.3 205.822 602.508 205.822 601.608C205.822 600.708 206.002 599.916 206.362 599.232C206.722 598.548 207.232 598.014 207.892 597.63C208.552 597.234 209.332 597.036 210.232 597.036C211.084 597.036 211.858 597.27 212.554 597.738C213.25 598.194 213.754 598.806 214.066 599.574L212.356 600.294C212.164 599.79 211.876 599.412 211.492 599.16C211.108 598.896 210.67 598.764 210.178 598.764C209.458 598.764 208.858 599.016 208.378 599.52C207.898 600.012 207.658 600.708 207.658 601.608C207.658 602.508 207.898 603.21 208.378 603.714C208.858 604.206 209.458 604.452 210.178 604.452C210.67 604.452 211.108 604.326 211.492 604.074C211.876 603.81 212.164 603.426 212.356 602.922L214.066 603.642C213.742 604.41 213.232 605.028 212.536 605.496C211.852 605.952 211.084 606.18 210.232 606.18ZM219.734 606.18C218.882 606.18 218.132 605.994 217.484 605.622C216.836 605.238 216.332 604.704 215.972 604.02C215.612 603.336 215.432 602.538 215.432 601.626C215.432 600.702 215.612 599.898 215.972 599.214C216.332 598.53 216.836 597.996 217.484 597.612C218.132 597.228 218.882 597.036 219.734 597.036C220.598 597.036 221.354 597.228 222.002 597.612C222.65 597.996 223.154 598.53 223.514 599.214C223.874 599.898 224.054 600.702 224.054 601.626C224.054 601.71 224.048 601.8 224.036 601.896C224.036 601.98 224.03 602.058 224.018 602.13H217.142V600.582H222.722L222.218 601.626C222.218 600.714 222.014 599.964 221.606 599.376C221.198 598.788 220.574 598.494 219.734 598.494C218.99 598.494 218.396 598.734 217.952 599.214C217.508 599.682 217.286 600.3 217.286 601.068V602.004C217.286 602.808 217.502 603.45 217.934 603.93C218.366 604.398 218.966 604.632 219.734 604.632C220.442 604.632 220.988 604.482 221.372 604.182C221.756 603.882 222.092 603.51 222.38 603.066L223.73 603.912C223.322 604.668 222.794 605.238 222.146 605.622C221.51 605.994 220.706 606.18 219.734 606.18ZM227.654 597.216L228.086 599.592V606H226.286V597.216H227.654ZM227.816 600.33L227.384 600.132V598.818L227.546 598.62C227.666 598.404 227.852 598.176 228.104 597.936C228.368 597.684 228.674 597.474 229.022 597.306C229.37 597.126 229.724 597.036 230.084 597.036C230.264 597.036 230.432 597.048 230.588 597.072C230.756 597.096 230.882 597.138 230.966 597.198V598.818H230.408C229.592 598.818 228.998 598.944 228.626 599.196C228.254 599.436 227.984 599.814 227.816 600.33ZM236.446 606.162C235.678 606.162 235.066 605.94 234.61 605.496C234.166 605.04 233.944 604.338 233.944 603.39V597.324V597.216L234.286 595.236H235.744V603.426C235.744 603.762 235.828 604.014 235.996 604.182C236.176 604.35 236.398 604.434 236.662 604.434C236.866 604.434 237.046 604.422 237.202 604.398C237.358 604.374 237.496 604.344 237.616 604.308V605.982C237.46 606.03 237.286 606.072 237.094 606.108C236.914 606.144 236.698 606.162 236.446 606.162ZM232.594 598.872V597.216H237.616V598.872H232.594ZM243.023 606.18C242.411 606.18 241.805 606.036 241.205 605.748C240.617 605.46 240.131 604.968 239.747 604.272L241.115 603.372C241.451 603.816 241.769 604.14 242.069 604.344C242.369 604.536 242.759 604.632 243.239 604.632C243.623 604.632 243.917 604.536 244.121 604.344C244.337 604.14 244.445 603.894 244.445 603.606C244.445 603.414 244.391 603.246 244.283 603.102C244.187 602.958 244.013 602.826 243.761 602.706C243.509 602.574 243.149 602.448 242.681 602.328C241.817 602.1 241.151 601.8 240.683 601.428C240.215 601.056 239.981 600.468 239.981 599.664C239.981 599.184 240.101 598.746 240.341 598.35C240.581 597.954 240.929 597.636 241.385 597.396C241.841 597.156 242.381 597.036 243.005 597.036C243.749 597.036 244.385 597.192 244.913 597.504C245.441 597.804 245.855 598.164 246.155 598.584L244.769 599.61C244.601 599.394 244.355 599.184 244.031 598.98C243.707 598.764 243.299 598.656 242.807 598.656C242.507 598.656 242.231 598.74 241.979 598.908C241.727 599.076 241.601 599.31 241.601 599.61C241.601 599.91 241.715 600.156 241.943 600.348C242.183 600.528 242.615 600.69 243.239 600.834C244.295 601.086 245.045 601.416 245.489 601.824C245.933 602.22 246.155 602.748 246.155 603.408C246.155 603.984 246.005 604.482 245.705 604.902C245.417 605.31 245.033 605.628 244.553 605.856C244.085 606.072 243.575 606.18 243.023 606.18Z" fill="#525151"/>
<line x1="133.517" y1="116" x2="133.517" y2="402.01" stroke="#C1C1C1"/>
<line x1="222.517" y1="116" x2="222.517" y2="402.01" stroke="#C1C1C1"/>
<line x1="316.508" y1="402.003" x2="316.508" y2="115.997" stroke="#C1C1C1"/>
<line x1="505.508" y1="402.003" x2="505.508" y2="115.997" stroke="#C1C1C1"/>
<line x1="53" y1="189.5" x2="591.033" y2="189.5" stroke="#C1C1C1"/>
<line x1="53" y1="266.5" x2="591.033" y2="266.5" stroke="#C1C1C1"/>
<line x1="53" y1="343.5" x2="591.033" y2="343.5" stroke="#C1C1C1"/>
<line x1="409.508" y1="402.003" x2="409.508" y2="115.997" stroke="#C1C1C1"/>
<rect x="235" y="193" width="70" height="70" rx="35" fill="#FF6600"/>
<path d="M260.684 220.568L261.868 221.048C261.719 221.453 261.441 221.848 261.036 222.232C260.631 222.616 260.076 222.936 259.372 223.192C258.668 223.448 257.783 223.576 256.716 223.576V220.504C257.633 220.504 258.423 220.376 259.084 220.12C259.745 219.843 260.289 219.459 260.716 218.968C261.164 218.456 261.495 217.869 261.708 217.208H263.884V239H260.684V220.568ZM275.106 239.32C273.591 239.32 272.311 239.043 271.266 238.488C270.22 237.933 269.431 237.197 268.898 236.28C268.364 235.341 268.098 234.328 268.098 233.24C268.098 232.067 268.343 231.064 268.834 230.232C269.324 229.4 269.996 228.728 270.85 228.216C271.703 227.683 272.674 227.309 273.762 227.096V228.664C272.802 228.429 271.948 228.045 271.202 227.512C270.455 226.979 269.868 226.317 269.442 225.528C269.015 224.739 268.802 223.843 268.802 222.84C268.802 221.645 269.058 220.611 269.57 219.736C270.103 218.84 270.839 218.147 271.778 217.656C272.738 217.165 273.868 216.92 275.17 216.92C276.428 216.92 277.527 217.165 278.466 217.656C279.404 218.147 280.13 218.84 280.642 219.736C281.154 220.611 281.41 221.645 281.41 222.84C281.41 223.736 281.228 224.557 280.866 225.304C280.524 226.051 280.034 226.691 279.394 227.224C278.775 227.757 278.05 228.163 277.218 228.44L277.186 227.256C278.167 227.512 279.02 227.907 279.746 228.44C280.492 228.973 281.068 229.645 281.474 230.456C281.9 231.245 282.114 232.173 282.114 233.24C282.114 234.328 281.847 235.341 281.314 236.28C280.78 237.197 279.991 237.933 278.946 238.488C277.9 239.043 276.62 239.32 275.106 239.32ZM275.106 236.184C276.236 236.184 277.143 235.864 277.826 235.224C278.53 234.584 278.882 233.741 278.882 232.696C278.882 231.587 278.53 230.701 277.826 230.04C277.143 229.379 276.236 229.048 275.106 229.048C273.975 229.048 273.058 229.379 272.354 230.04C271.671 230.701 271.33 231.587 271.33 232.696C271.33 233.741 271.671 234.584 272.354 235.224C273.058 235.864 273.975 236.184 275.106 236.184ZM275.106 226.04C276.044 226.04 276.823 225.752 277.442 225.176C278.06 224.579 278.37 223.843 278.37 222.968C278.37 222.136 278.06 221.443 277.442 220.888C276.823 220.333 276.044 220.056 275.106 220.056C274.188 220.056 273.41 220.333 272.77 220.888C272.151 221.443 271.842 222.136 271.842 222.968C271.842 223.843 272.151 224.579 272.77 225.176C273.41 225.752 274.188 226.04 275.106 226.04Z" fill="white"/>
<circle cx="362.5" cy="151.5" r="12.5" fill="#040171"/>
<circle cx="362.5" cy="225.5" r="12.5" fill="#040171" fill-opacity="0.5"/>
<circle cx="362.5" cy="299.5" r="12.5" fill="#040171"/>
<circle cx="362.5" cy="373.5" r="12.5" fill="#040171" fill-opacity="0.25"/>
<circle cx="457.5" cy="151.5" r="12.5" fill="#040171"/>
<circle cx="85.5" cy="151.5" r="12.5" fill="#040171" fill-opacity="0.25"/>
<circle cx="80.5" cy="449" r="7.5" fill="#040171" fill-opacity="0.25"/>
<path d="M101.664 450.446H108.27V452.138H101.664V450.446ZM99.36 455L103.734 442.742H106.182L110.556 455H108.72L104.796 444.002H105.12L101.196 455H99.36ZM119.012 446.216L115.7 455H113.99L110.498 446.216H112.496L114.944 453.038H114.71L117.05 446.216H119.012ZM123.286 455.252C122.602 455.252 122.014 455.132 121.522 454.892C121.03 454.652 120.652 454.31 120.388 453.866C120.136 453.41 120.01 452.87 120.01 452.246C120.01 451.67 120.142 451.16 120.406 450.716C120.67 450.26 121.048 449.9 121.54 449.636C122.032 449.372 122.614 449.24 123.286 449.24C124.126 449.24 124.798 449.432 125.302 449.816C125.818 450.188 126.178 450.704 126.382 451.364H125.374V449.114C125.374 448.742 125.248 448.4 124.996 448.088C124.744 447.776 124.3 447.62 123.664 447.62C123.328 447.62 122.956 447.662 122.548 447.746C122.152 447.818 121.738 447.95 121.306 448.142L120.766 446.756C121.258 446.516 121.768 446.336 122.296 446.216C122.824 446.096 123.34 446.036 123.844 446.036C124.6 446.036 125.224 446.174 125.716 446.45C126.208 446.726 126.574 447.098 126.814 447.566C127.054 448.022 127.174 448.538 127.174 449.114V455H125.878L125.428 453.398L126.382 453.128C126.166 453.836 125.782 454.37 125.23 454.73C124.678 455.078 124.03 455.252 123.286 455.252ZM123.61 453.65C124.138 453.65 124.564 453.53 124.888 453.29C125.212 453.038 125.374 452.69 125.374 452.246C125.374 451.79 125.212 451.442 124.888 451.202C124.564 450.962 124.138 450.842 123.61 450.842C123.082 450.842 122.656 450.962 122.332 451.202C122.008 451.442 121.846 451.79 121.846 452.246C121.846 452.69 122.008 453.038 122.332 453.29C122.656 453.53 123.082 453.65 123.61 453.65ZM131.786 455H129.986V446.216H131.786V455ZM129.716 443.516C129.716 443.168 129.818 442.886 130.022 442.67C130.238 442.442 130.526 442.328 130.886 442.328C131.234 442.328 131.516 442.442 131.732 442.67C131.948 442.886 132.056 443.168 132.056 443.516C132.056 443.852 131.948 444.134 131.732 444.362C131.516 444.578 131.234 444.686 130.886 444.686C130.526 444.686 130.238 444.578 130.022 444.362C129.818 444.134 129.716 443.852 129.716 443.516ZM136.275 455.09C135.963 455.09 135.687 455.018 135.447 454.874C135.207 454.718 135.015 454.496 134.871 454.208C134.739 453.92 134.673 453.566 134.673 453.146V442.742H136.437V452.516C136.437 452.888 136.527 453.14 136.707 453.272C136.899 453.404 137.115 453.47 137.355 453.47V454.91C137.199 454.97 137.031 455.012 136.851 455.036C136.671 455.072 136.479 455.09 136.275 455.09ZM142.221 455.252C141.537 455.252 140.949 455.132 140.457 454.892C139.965 454.652 139.587 454.31 139.323 453.866C139.071 453.41 138.945 452.87 138.945 452.246C138.945 451.67 139.077 451.16 139.341 450.716C139.605 450.26 139.983 449.9 140.475 449.636C140.967 449.372 141.549 449.24 142.221 449.24C143.061 449.24 143.733 449.432 144.237 449.816C144.753 450.188 145.113 450.704 145.317 451.364H144.309V449.114C144.309 448.742 144.183 448.4 143.931 448.088C143.679 447.776 143.235 447.62 142.599 447.62C142.263 447.62 141.891 447.662 141.483 447.746C141.087 447.818 140.673 447.95 140.241 448.142L139.701 446.756C140.193 446.516 140.703 446.336 141.231 446.216C141.759 446.096 142.275 446.036 142.779 446.036C143.535 446.036 144.159 446.174 144.651 446.45C145.143 446.726 145.509 447.098 145.749 447.566C145.989 448.022 146.109 448.538 146.109 449.114V455H144.813L144.363 453.398L145.317 453.128C145.101 453.836 144.717 454.37 144.165 454.73C143.613 455.078 142.965 455.252 142.221 455.252ZM142.545 453.65C143.073 453.65 143.499 453.53 143.823 453.29C144.147 453.038 144.309 452.69 144.309 452.246C144.309 451.79 144.147 451.442 143.823 451.202C143.499 450.962 143.073 450.842 142.545 450.842C142.017 450.842 141.591 450.962 141.267 451.202C140.943 451.442 140.781 451.79 140.781 452.246C140.781 452.69 140.943 453.038 141.267 453.29C141.591 453.53 142.017 453.65 142.545 453.65ZM153.33 455.18C152.538 455.18 151.848 454.988 151.26 454.604C150.672 454.22 150.21 453.686 149.874 453.002C149.55 452.306 149.388 451.502 149.388 450.59C149.388 449.678 149.55 448.88 149.874 448.196C150.21 447.512 150.672 446.984 151.26 446.612C151.848 446.228 152.538 446.036 153.33 446.036C154.146 446.036 154.854 446.228 155.454 446.612C156.066 446.984 156.54 447.512 156.876 448.196C157.212 448.88 157.38 449.678 157.38 450.59C157.38 451.502 157.212 452.306 156.876 453.002C156.54 453.686 156.066 454.22 155.454 454.604C154.854 454.988 154.146 455.18 153.33 455.18ZM148.884 455V442.742H150.684V448.232H150.504V453.236H150.684L150.252 455H148.884ZM153.06 453.632C153.804 453.632 154.404 453.356 154.86 452.804C155.316 452.24 155.544 451.502 155.544 450.59C155.544 449.69 155.316 448.964 154.86 448.412C154.404 447.86 153.804 447.584 153.06 447.584C152.328 447.584 151.734 447.86 151.278 448.412C150.822 448.964 150.594 449.696 150.594 450.608C150.594 451.52 150.822 452.252 151.278 452.804C151.734 453.356 152.328 453.632 153.06 453.632ZM161.204 455.09C160.892 455.09 160.616 455.018 160.376 454.874C160.136 454.718 159.944 454.496 159.8 454.208C159.668 453.92 159.602 453.566 159.602 453.146V442.742H161.366V452.516C161.366 452.888 161.456 453.14 161.636 453.272C161.828 453.404 162.044 453.47 162.284 453.47V454.91C162.128 454.97 161.96 455.012 161.78 455.036C161.6 455.072 161.408 455.09 161.204 455.09ZM168.351 455.18C167.499 455.18 166.749 454.994 166.101 454.622C165.453 454.238 164.949 453.704 164.589 453.02C164.229 452.336 164.049 451.538 164.049 450.626C164.049 449.702 164.229 448.898 164.589 448.214C164.949 447.53 165.453 446.996 166.101 446.612C166.749 446.228 167.499 446.036 168.351 446.036C169.215 446.036 169.971 446.228 170.619 446.612C171.267 446.996 171.771 447.53 172.131 448.214C172.491 448.898 172.671 449.702 172.671 450.626C172.671 450.71 172.665 450.8 172.653 450.896C172.653 450.98 172.647 451.058 172.635 451.13H165.759V449.582H171.339L170.835 450.626C170.835 449.714 170.631 448.964 170.223 448.376C169.815 447.788 169.191 447.494 168.351 447.494C167.607 447.494 167.013 447.734 166.569 448.214C166.125 448.682 165.903 449.3 165.903 450.068V451.004C165.903 451.808 166.119 452.45 166.551 452.93C166.983 453.398 167.583 453.632 168.351 453.632C169.059 453.632 169.605 453.482 169.989 453.182C170.373 452.882 170.709 452.51 170.997 452.066L172.347 452.912C171.939 453.668 171.411 454.238 170.763 454.622C170.127 454.994 169.323 455.18 168.351 455.18Z" fill="#525151"/>
<circle cx="237.5" cy="449" r="7.5" fill="#040171" fill-opacity="0.5"/>
<path d="M258.664 450.446H265.27V452.138H258.664V450.446ZM256.36 455L260.734 442.742H263.182L267.556 455H265.72L261.796 444.002H262.12L258.196 455H256.36ZM270.948 455.09C270.636 455.09 270.36 455.018 270.12 454.874C269.88 454.718 269.688 454.496 269.544 454.208C269.412 453.92 269.346 453.566 269.346 453.146V442.742H271.11V452.516C271.11 452.888 271.2 453.14 271.38 453.272C271.572 453.404 271.788 453.47 272.028 453.47V454.91C271.872 454.97 271.704 455.012 271.524 455.036C271.344 455.072 271.152 455.09 270.948 455.09ZM274.334 455V446.216H275.702L276.08 447.764L275.63 447.818C275.954 447.434 276.296 447.11 276.656 446.846C277.016 446.582 277.4 446.384 277.808 446.252C278.216 446.108 278.642 446.036 279.086 446.036C279.71 446.036 280.202 446.144 280.562 446.36C280.922 446.564 281.186 446.846 281.354 447.206C281.522 447.554 281.63 447.95 281.678 448.394C281.726 448.838 281.75 449.294 281.75 449.762V455H279.95V449.384C279.95 448.76 279.806 448.34 279.518 448.124C279.242 447.908 278.912 447.8 278.528 447.8C277.976 447.8 277.448 447.974 276.944 448.322C276.44 448.658 276.074 449.066 275.846 449.546V448.538H276.134V455H274.334ZM285.566 455V449.384C285.566 448.76 285.422 448.34 285.134 448.124C284.858 447.908 284.528 447.8 284.144 447.8C283.592 447.8 283.064 447.974 282.56 448.322C282.056 448.658 281.69 449.066 281.462 449.546L281.246 447.818C281.57 447.434 281.912 447.11 282.272 446.846C282.632 446.582 283.016 446.384 283.424 446.252C283.832 446.108 284.258 446.036 284.702 446.036C285.326 446.036 285.818 446.144 286.178 446.36C286.538 446.564 286.802 446.846 286.97 447.206C287.138 447.554 287.246 447.95 287.294 448.394C287.342 448.838 287.366 449.294 287.366 449.762V455H285.566ZM294.003 455.18C293.115 455.18 292.329 454.994 291.645 454.622C290.973 454.238 290.451 453.704 290.079 453.02C289.707 452.336 289.521 451.538 289.521 450.626C289.521 449.702 289.707 448.898 290.079 448.214C290.451 447.53 290.973 446.996 291.645 446.612C292.329 446.228 293.115 446.036 294.003 446.036C294.903 446.036 295.689 446.228 296.361 446.612C297.033 446.996 297.555 447.53 297.927 448.214C298.311 448.898 298.503 449.702 298.503 450.626C298.503 451.538 298.311 452.336 297.927 453.02C297.555 453.704 297.033 454.238 296.361 454.622C295.689 454.994 294.903 455.18 294.003 455.18ZM294.003 453.452C294.807 453.452 295.449 453.194 295.929 452.678C296.421 452.15 296.667 451.466 296.667 450.626C296.667 449.774 296.421 449.084 295.929 448.556C295.449 448.028 294.807 447.764 294.003 447.764C293.211 447.764 292.569 448.028 292.077 448.556C291.597 449.072 291.357 449.756 291.357 450.608C291.357 451.46 291.597 452.15 292.077 452.678C292.569 453.194 293.211 453.452 294.003 453.452ZM303.464 455.18C302.852 455.18 302.246 455.036 301.646 454.748C301.058 454.46 300.572 453.968 300.188 453.272L301.556 452.372C301.892 452.816 302.21 453.14 302.51 453.344C302.81 453.536 303.2 453.632 303.68 453.632C304.064 453.632 304.358 453.536 304.562 453.344C304.778 453.14 304.886 452.894 304.886 452.606C304.886 452.414 304.832 452.246 304.724 452.102C304.628 451.958 304.454 451.826 304.202 451.706C303.95 451.574 303.59 451.448 303.122 451.328C302.258 451.1 301.592 450.8 301.124 450.428C300.656 450.056 300.422 449.468 300.422 448.664C300.422 448.184 300.542 447.746 300.782 447.35C301.022 446.954 301.37 446.636 301.826 446.396C302.282 446.156 302.822 446.036 303.446 446.036C304.19 446.036 304.826 446.192 305.354 446.504C305.882 446.804 306.296 447.164 306.596 447.584L305.21 448.61C305.042 448.394 304.796 448.184 304.472 447.98C304.148 447.764 303.74 447.656 303.248 447.656C302.948 447.656 302.672 447.74 302.42 447.908C302.168 448.076 302.042 448.31 302.042 448.61C302.042 448.91 302.156 449.156 302.384 449.348C302.624 449.528 303.056 449.69 303.68 449.834C304.736 450.086 305.486 450.416 305.93 450.824C306.374 451.22 306.596 451.748 306.596 452.408C306.596 452.984 306.446 453.482 306.146 453.902C305.858 454.31 305.474 454.628 304.994 454.856C304.526 455.072 304.016 455.18 303.464 455.18ZM312.205 455.162C311.437 455.162 310.825 454.94 310.369 454.496C309.925 454.04 309.703 453.338 309.703 452.39V446.324V446.216L310.045 444.236H311.503V452.426C311.503 452.762 311.587 453.014 311.755 453.182C311.935 453.35 312.157 453.434 312.421 453.434C312.625 453.434 312.805 453.422 312.961 453.398C313.117 453.374 313.255 453.344 313.375 453.308V454.982C313.219 455.03 313.045 455.072 312.853 455.108C312.673 455.144 312.457 455.162 312.205 455.162ZM308.353 447.872V446.216H313.375V447.872H308.353ZM321.568 455V442.742H325.636C326.464 442.742 327.16 442.862 327.724 443.102C328.3 443.33 328.738 443.69 329.038 444.182C329.338 444.662 329.488 445.274 329.488 446.018C329.488 446.642 329.332 447.194 329.02 447.674C328.708 448.154 328.294 448.526 327.778 448.79C327.274 449.054 326.728 449.186 326.14 449.186L326.266 448.25C326.998 448.25 327.634 448.382 328.174 448.646C328.726 448.898 329.158 449.27 329.47 449.762C329.782 450.254 329.938 450.854 329.938 451.562C329.938 452.678 329.59 453.53 328.894 454.118C328.21 454.706 327.226 455 325.942 455H321.568ZM323.368 443.876V453.74L322.648 453.272H325.996C326.668 453.272 327.184 453.098 327.544 452.75C327.916 452.39 328.102 451.934 328.102 451.382C328.102 450.758 327.922 450.284 327.562 449.96C327.214 449.636 326.704 449.474 326.032 449.474H322.648V447.818H325.69C326.326 447.818 326.812 447.68 327.148 447.404C327.484 447.116 327.652 446.702 327.652 446.162C327.652 445.67 327.478 445.268 327.13 444.956C326.794 444.632 326.314 444.47 325.69 444.47H322.72L323.368 443.876ZM336.307 455.18C335.419 455.18 334.633 454.994 333.949 454.622C333.277 454.238 332.755 453.704 332.383 453.02C332.011 452.336 331.825 451.538 331.825 450.626C331.825 449.702 332.011 448.898 332.383 448.214C332.755 447.53 333.277 446.996 333.949 446.612C334.633 446.228 335.419 446.036 336.307 446.036C337.207 446.036 337.993 446.228 338.665 446.612C339.337 446.996 339.859 447.53 340.231 448.214C340.615 448.898 340.807 449.702 340.807 450.626C340.807 451.538 340.615 452.336 340.231 453.02C339.859 453.704 339.337 454.238 338.665 454.622C337.993 454.994 337.207 455.18 336.307 455.18ZM336.307 453.452C337.111 453.452 337.753 453.194 338.233 452.678C338.725 452.15 338.971 451.466 338.971 450.626C338.971 449.774 338.725 449.084 338.233 448.556C337.753 448.028 337.111 447.764 336.307 447.764C335.515 447.764 334.873 448.028 334.381 448.556C333.901 449.072 333.661 449.756 333.661 450.608C333.661 451.46 333.901 452.15 334.381 452.678C334.873 453.194 335.515 453.452 336.307 453.452ZM346.743 455.18C345.855 455.18 345.069 454.994 344.385 454.622C343.713 454.238 343.191 453.704 342.819 453.02C342.447 452.336 342.261 451.538 342.261 450.626C342.261 449.702 342.447 448.898 342.819 448.214C343.191 447.53 343.713 446.996 344.385 446.612C345.069 446.228 345.855 446.036 346.743 446.036C347.643 446.036 348.429 446.228 349.101 446.612C349.773 446.996 350.295 447.53 350.667 448.214C351.051 448.898 351.243 449.702 351.243 450.626C351.243 451.538 351.051 452.336 350.667 453.02C350.295 453.704 349.773 454.238 349.101 454.622C348.429 454.994 347.643 455.18 346.743 455.18ZM346.743 453.452C347.547 453.452 348.189 453.194 348.669 452.678C349.161 452.15 349.407 451.466 349.407 450.626C349.407 449.774 349.161 449.084 348.669 448.556C348.189 448.028 347.547 447.764 346.743 447.764C345.951 447.764 345.309 448.028 344.817 448.556C344.337 449.072 344.097 449.756 344.097 450.608C344.097 451.46 344.337 452.15 344.817 452.678C345.309 453.194 345.951 453.452 346.743 453.452ZM354.816 450.572V450.32L358.632 446.216H360.756L356.472 450.914L356.31 449.726L360.792 455H358.632L354.816 450.572ZM353.484 442.742H355.248V455H353.484V442.742ZM365.801 455.18C364.949 455.18 364.199 454.994 363.551 454.622C362.903 454.238 362.399 453.704 362.039 453.02C361.679 452.336 361.499 451.538 361.499 450.626C361.499 449.702 361.679 448.898 362.039 448.214C362.399 447.53 362.903 446.996 363.551 446.612C364.199 446.228 364.949 446.036 365.801 446.036C366.665 446.036 367.421 446.228 368.069 446.612C368.717 446.996 369.221 447.53 369.581 448.214C369.941 448.898 370.121 449.702 370.121 450.626C370.121 450.71 370.115 450.8 370.103 450.896C370.103 450.98 370.097 451.058 370.085 451.13H363.209V449.582H368.789L368.285 450.626C368.285 449.714 368.081 448.964 367.673 448.376C367.265 447.788 366.641 447.494 365.801 447.494C365.057 447.494 364.463 447.734 364.019 448.214C363.575 448.682 363.353 449.3 363.353 450.068V451.004C363.353 451.808 363.569 452.45 364.001 452.93C364.433 453.398 365.033 453.632 365.801 453.632C366.509 453.632 367.055 453.482 367.439 453.182C367.823 452.882 368.159 452.51 368.447 452.066L369.797 452.912C369.389 453.668 368.861 454.238 368.213 454.622C367.577 454.994 366.773 455.18 365.801 455.18ZM375.863 455.18C375.059 455.18 374.351 454.988 373.739 454.604C373.127 454.22 372.653 453.686 372.317 453.002C371.981 452.306 371.813 451.502 371.813 450.59C371.813 449.678 371.981 448.88 372.317 448.196C372.653 447.512 373.127 446.984 373.739 446.612C374.351 446.228 375.059 446.036 375.863 446.036C376.655 446.036 377.345 446.228 377.933 446.612C378.521 446.984 378.977 447.512 379.301 448.196C379.637 448.88 379.805 449.678 379.805 450.59C379.805 451.502 379.637 452.306 379.301 453.002C378.977 453.686 378.521 454.22 377.933 454.604C377.345 454.988 376.655 455.18 375.863 455.18ZM376.133 453.632C376.877 453.632 377.471 453.356 377.915 452.804C378.371 452.252 378.599 451.52 378.599 450.608C378.599 449.696 378.371 448.964 377.915 448.412C377.471 447.86 376.877 447.584 376.133 447.584C375.389 447.584 374.789 447.86 374.333 448.412C373.877 448.964 373.649 449.69 373.649 450.59C373.649 451.502 373.877 452.24 374.333 452.804C374.789 453.356 375.389 453.632 376.133 453.632ZM378.941 455L378.509 453.236H378.689V448.232H378.509V442.742H380.309V455H378.941Z" fill="#525151"/>
<circle cx="444.5" cy="449" r="7.5" fill="#040171"/>
<path d="M464.53 455V442.742H468.598C469.426 442.742 470.122 442.862 470.686 443.102C471.262 443.33 471.7 443.69 472 444.182C472.3 444.662 472.45 445.274 472.45 446.018C472.45 446.642 472.294 447.194 471.982 447.674C471.67 448.154 471.256 448.526 470.74 448.79C470.236 449.054 469.69 449.186 469.102 449.186L469.228 448.25C469.96 448.25 470.596 448.382 471.136 448.646C471.688 448.898 472.12 449.27 472.432 449.762C472.744 450.254 472.9 450.854 472.9 451.562C472.9 452.678 472.552 453.53 471.856 454.118C471.172 454.706 470.188 455 468.904 455H464.53ZM466.33 443.876V453.74L465.61 453.272H468.958C469.63 453.272 470.146 453.098 470.506 452.75C470.878 452.39 471.064 451.934 471.064 451.382C471.064 450.758 470.884 450.284 470.524 449.96C470.176 449.636 469.666 449.474 468.994 449.474H465.61V447.818H468.652C469.288 447.818 469.774 447.68 470.11 447.404C470.446 447.116 470.614 446.702 470.614 446.162C470.614 445.67 470.44 445.268 470.092 444.956C469.756 444.632 469.276 444.47 468.652 444.47H465.682L466.33 443.876ZM479.269 455.18C478.381 455.18 477.595 454.994 476.911 454.622C476.239 454.238 475.717 453.704 475.345 453.02C474.973 452.336 474.787 451.538 474.787 450.626C474.787 449.702 474.973 448.898 475.345 448.214C475.717 447.53 476.239 446.996 476.911 446.612C477.595 446.228 478.381 446.036 479.269 446.036C480.169 446.036 480.955 446.228 481.627 446.612C482.299 446.996 482.821 447.53 483.193 448.214C483.577 448.898 483.769 449.702 483.769 450.626C483.769 451.538 483.577 452.336 483.193 453.02C482.821 453.704 482.299 454.238 481.627 454.622C480.955 454.994 480.169 455.18 479.269 455.18ZM479.269 453.452C480.073 453.452 480.715 453.194 481.195 452.678C481.687 452.15 481.933 451.466 481.933 450.626C481.933 449.774 481.687 449.084 481.195 448.556C480.715 448.028 480.073 447.764 479.269 447.764C478.477 447.764 477.835 448.028 477.343 448.556C476.863 449.072 476.623 449.756 476.623 450.608C476.623 451.46 476.863 452.15 477.343 452.678C477.835 453.194 478.477 453.452 479.269 453.452ZM489.706 455.18C488.818 455.18 488.032 454.994 487.348 454.622C486.676 454.238 486.154 453.704 485.782 453.02C485.41 452.336 485.224 451.538 485.224 450.626C485.224 449.702 485.41 448.898 485.782 448.214C486.154 447.53 486.676 446.996 487.348 446.612C488.032 446.228 488.818 446.036 489.706 446.036C490.606 446.036 491.392 446.228 492.064 446.612C492.736 446.996 493.258 447.53 493.63 448.214C494.014 448.898 494.206 449.702 494.206 450.626C494.206 451.538 494.014 452.336 493.63 453.02C493.258 453.704 492.736 454.238 492.064 454.622C491.392 454.994 490.606 455.18 489.706 455.18ZM489.706 453.452C490.51 453.452 491.152 453.194 491.632 452.678C492.124 452.15 492.37 451.466 492.37 450.626C492.37 449.774 492.124 449.084 491.632 448.556C491.152 448.028 490.51 447.764 489.706 447.764C488.914 447.764 488.272 448.028 487.78 448.556C487.3 449.072 487.06 449.756 487.06 450.608C487.06 451.46 487.3 452.15 487.78 452.678C488.272 453.194 488.914 453.452 489.706 453.452ZM497.778 450.572V450.32L501.594 446.216H503.718L499.434 450.914L499.272 449.726L503.754 455H501.594L497.778 450.572ZM496.446 442.742H498.21V455H496.446V442.742ZM508.763 455.18C507.911 455.18 507.161 454.994 506.513 454.622C505.865 454.238 505.361 453.704 505.001 453.02C504.641 452.336 504.461 451.538 504.461 450.626C504.461 449.702 504.641 448.898 505.001 448.214C505.361 447.53 505.865 446.996 506.513 446.612C507.161 446.228 507.911 446.036 508.763 446.036C509.627 446.036 510.383 446.228 511.031 446.612C511.679 446.996 512.183 447.53 512.543 448.214C512.903 448.898 513.083 449.702 513.083 450.626C513.083 450.71 513.077 450.8 513.065 450.896C513.065 450.98 513.059 451.058 513.047 451.13H506.171V449.582H511.751L511.247 450.626C511.247 449.714 511.043 448.964 510.635 448.376C510.227 447.788 509.603 447.494 508.763 447.494C508.019 447.494 507.425 447.734 506.981 448.214C506.537 448.682 506.315 449.3 506.315 450.068V451.004C506.315 451.808 506.531 452.45 506.963 452.93C507.395 453.398 507.995 453.632 508.763 453.632C509.471 453.632 510.017 453.482 510.401 453.182C510.785 452.882 511.121 452.51 511.409 452.066L512.759 452.912C512.351 453.668 511.823 454.238 511.175 454.622C510.539 454.994 509.735 455.18 508.763 455.18ZM518.825 455.18C518.021 455.18 517.313 454.988 516.701 454.604C516.089 454.22 515.615 453.686 515.279 453.002C514.943 452.306 514.775 451.502 514.775 450.59C514.775 449.678 514.943 448.88 515.279 448.196C515.615 447.512 516.089 446.984 516.701 446.612C517.313 446.228 518.021 446.036 518.825 446.036C519.617 446.036 520.307 446.228 520.895 446.612C521.483 446.984 521.939 447.512 522.263 448.196C522.599 448.88 522.767 449.678 522.767 450.59C522.767 451.502 522.599 452.306 522.263 453.002C521.939 453.686 521.483 454.22 520.895 454.604C520.307 454.988 519.617 455.18 518.825 455.18ZM519.095 453.632C519.839 453.632 520.433 453.356 520.877 452.804C521.333 452.252 521.561 451.52 521.561 450.608C521.561 449.696 521.333 448.964 520.877 448.412C520.433 447.86 519.839 447.584 519.095 447.584C518.351 447.584 517.751 447.86 517.295 448.412C516.839 448.964 516.611 449.69 516.611 450.59C516.611 451.502 516.839 452.24 517.295 452.804C517.751 453.356 518.351 453.632 519.095 453.632ZM521.903 455L521.471 453.236H521.651V448.232H521.471V442.742H523.271V455H521.903Z" fill="#525151"/>
<circle cx="457.5" cy="225.5" r="12.5" fill="#040171" fill-opacity="0.5"/>
<circle cx="85.5" cy="225.5" r="12.5" fill="#040171" fill-opacity="0.5"/>
<circle cx="457.5" cy="299.5" r="12.5" fill="#040171" fill-opacity="0.5"/>
<circle cx="85.5" cy="299.5" r="12.5" fill="#040171" fill-opacity="0.5"/>
<circle cx="457.5" cy="373.5" r="12.5" fill="#040171" fill-opacity="0.25"/>
<circle cx="85.5" cy="373.5" r="12.5" fill="#040171" fill-opacity="0.25"/>
<circle cx="552.5" cy="151.5" r="12.5" fill="#040171" fill-opacity="0.5"/>
<circle cx="180.5" cy="151.5" r="12.5" fill="#040171" fill-opacity="0.25"/>
<circle cx="271.5" cy="151.5" r="12.5" fill="#040171" fill-opacity="0.5"/>
<circle cx="271.5" cy="299.5" r="12.5" fill="#040171"/>
<circle cx="271.5" cy="373.5" r="12.5" fill="#040171" fill-opacity="0.5"/>
<circle cx="552.5" cy="225.5" r="12.5" fill="#040171" fill-opacity="0.5"/>
<circle cx="180.5" cy="225.5" r="12.5" fill="#040171" fill-opacity="0.5"/>
<circle cx="552.5" cy="299.5" r="12.5" fill="#040171"/>
<circle cx="180.5" cy="299.5" r="12.5" fill="#040171"/>
<circle cx="552.5" cy="373.5" r="12.5" fill="#040171" fill-opacity="0.25"/>
<circle cx="180.5" cy="373.5" r="12.5" fill="#040171" fill-opacity="0.25"/>
<path d="M64.3411 557.176L65.2291 557.536C65.1171 557.84 64.9091 558.136 64.6051 558.424C64.3011 558.712 63.8851 558.952 63.3571 559.144C62.8291 559.336 62.1651 559.432 61.3651 559.432V557.128C62.0531 557.128 62.6451 557.032 63.1411 556.84C63.6371 556.632 64.0451 556.344 64.3651 555.976C64.7011 555.592 64.9491 555.152 65.1091 554.656H66.7411V571H64.3411V557.176ZM75.1574 571.24C74.0214 571.24 73.0614 571.032 72.2774 570.616C71.4934 570.2 70.9014 569.648 70.5014 568.96C70.1014 568.256 69.9014 567.496 69.9014 566.68C69.9014 565.8 70.0854 565.048 70.4534 564.424C70.8214 563.8 71.3254 563.296 71.9654 562.912C72.6054 562.512 73.3334 562.232 74.1494 562.072V563.248C73.4294 563.072 72.7894 562.784 72.2294 562.384C71.6694 561.984 71.2294 561.488 70.9094 560.896C70.5894 560.304 70.4294 559.632 70.4294 558.88C70.4294 557.984 70.6214 557.208 71.0054 556.552C71.4054 555.88 71.9574 555.36 72.6614 554.992C73.3814 554.624 74.2294 554.44 75.2054 554.44C76.1494 554.44 76.9734 554.624 77.6774 554.992C78.3814 555.36 78.9254 555.88 79.3094 556.552C79.6934 557.208 79.8854 557.984 79.8854 558.88C79.8854 559.552 79.7494 560.168 79.4774 560.728C79.2214 561.288 78.8534 561.768 78.3734 562.168C77.9094 562.568 77.3654 562.872 76.7414 563.08L76.7174 562.192C77.4534 562.384 78.0934 562.68 78.6374 563.08C79.1974 563.48 79.6294 563.984 79.9334 564.592C80.2534 565.184 80.4134 565.88 80.4134 566.68C80.4134 567.496 80.2134 568.256 79.8134 568.96C79.4134 569.648 78.8214 570.2 78.0374 570.616C77.2534 571.032 76.2934 571.24 75.1574 571.24ZM75.1574 568.888C76.0054 568.888 76.6854 568.648 77.1974 568.168C77.7254 567.688 77.9894 567.056 77.9894 566.272C77.9894 565.44 77.7254 564.776 77.1974 564.28C76.6854 563.784 76.0054 563.536 75.1574 563.536C74.3094 563.536 73.6214 563.784 73.0934 564.28C72.5814 564.776 72.3254 565.44 72.3254 566.272C72.3254 567.056 72.5814 567.688 73.0934 568.168C73.6214 568.648 74.3094 568.888 75.1574 568.888ZM75.1574 561.28C75.8614 561.28 76.4454 561.064 76.9094 560.632C77.3734 560.184 77.6054 559.632 77.6054 558.976C77.6054 558.352 77.3734 557.832 76.9094 557.416C76.4454 557 75.8614 556.792 75.1574 556.792C74.4694 556.792 73.8854 557 73.4054 557.416C72.9414 557.832 72.7094 558.352 72.7094 558.976C72.7094 559.632 72.9414 560.184 73.4054 560.632C73.8854 561.064 74.4694 561.28 75.1574 561.28ZM54.2206 600.36C53.3726 600.36 52.5486 600.232 51.7486 599.976C50.9646 599.72 50.2446 599.304 49.5886 598.728C48.9326 598.136 48.3806 597.336 47.9326 596.328L49.9246 595.2C50.4846 596.208 51.1006 596.936 51.7726 597.384C52.4446 597.832 53.2846 598.056 54.2926 598.056C55.2686 598.056 56.0046 597.84 56.5006 597.408C57.0126 596.976 57.2686 596.384 57.2686 595.632C57.2686 595.184 57.1566 594.792 56.9326 594.456C56.7246 594.12 56.3486 593.808 55.8046 593.52C55.2606 593.232 54.4926 592.968 53.5006 592.728C52.2526 592.408 51.2766 592.016 50.5726 591.552C49.8846 591.072 49.4046 590.528 49.1326 589.92C48.8606 589.296 48.7246 588.624 48.7246 587.904C48.7246 587.008 48.9326 586.232 49.3486 585.576C49.7646 584.904 50.3646 584.384 51.1486 584.016C51.9326 583.632 52.8606 583.44 53.9326 583.44C55.2126 583.44 56.2686 583.688 57.1006 584.184C57.9326 584.664 58.6366 585.328 59.2126 586.176L57.1966 587.472C56.7006 586.864 56.1806 586.432 55.6366 586.176C55.1086 585.904 54.5406 585.768 53.9326 585.768C53.0046 585.768 52.2926 585.952 51.7966 586.32C51.3166 586.688 51.0766 587.216 51.0766 587.904C51.0766 588.496 51.3006 589.008 51.7486 589.44C52.2126 589.872 53.1086 590.248 54.4366 590.568C55.7806 590.904 56.8286 591.304 57.5806 591.768C58.3486 592.216 58.8846 592.76 59.1886 593.4C59.5086 594.024 59.6686 594.776 59.6686 595.656C59.6686 596.536 59.4446 597.328 58.9966 598.032C58.5486 598.736 57.9166 599.304 57.1006 599.736C56.2846 600.152 55.3246 600.36 54.2206 600.36ZM66.5364 600.24C65.4004 600.24 64.4004 599.992 63.5364 599.496C62.6724 598.984 62.0004 598.272 61.5204 597.36C61.0404 596.448 60.8004 595.384 60.8004 594.168C60.8004 592.936 61.0404 591.864 61.5204 590.952C62.0004 590.04 62.6724 589.328 63.5364 588.816C64.4004 588.304 65.4004 588.048 66.5364 588.048C67.6884 588.048 68.6964 588.304 69.5604 588.816C70.4244 589.328 71.0964 590.04 71.5764 590.952C72.0564 591.864 72.2964 592.936 72.2964 594.168C72.2964 594.28 72.2884 594.4 72.2724 594.528C72.2724 594.64 72.2644 594.744 72.2484 594.84H63.0804V592.776H70.5204L69.8484 594.168C69.8484 592.952 69.5764 591.952 69.0324 591.168C68.4884 590.384 67.6564 589.992 66.5364 589.992C65.5444 589.992 64.7524 590.312 64.1604 590.952C63.5684 591.576 63.2724 592.4 63.2724 593.424V594.672C63.2724 595.744 63.5604 596.6 64.1364 597.24C64.7124 597.864 65.5124 598.176 66.5364 598.176C67.4804 598.176 68.2084 597.976 68.7204 597.576C69.2324 597.176 69.6804 596.68 70.0644 596.088L71.8644 597.216C71.3204 598.224 70.6164 598.984 69.7524 599.496C68.9044 599.992 67.8324 600.24 66.5364 600.24ZM80.4796 600.24C79.4236 600.24 78.5036 599.992 77.7196 599.496C76.9356 598.984 76.3196 598.272 75.8716 597.36C75.4396 596.448 75.2236 595.384 75.2236 594.168C75.2236 592.936 75.4396 591.864 75.8716 590.952C76.3196 590.04 76.9356 589.328 77.7196 588.816C78.5036 588.304 79.4236 588.048 80.4796 588.048C81.5676 588.048 82.5116 588.304 83.3116 588.816C84.1276 589.328 84.7596 590.04 85.2076 590.952C85.6556 591.864 85.8796 592.936 85.8796 594.168C85.8796 595.384 85.6556 596.448 85.2076 597.36C84.7596 598.272 84.1276 598.984 83.3116 599.496C82.5116 599.992 81.5676 600.24 80.4796 600.24ZM74.5516 604.56V588.288H76.3756L76.9516 590.64H76.7116V597.312H76.9516V604.56H74.5516ZM80.1196 598.176C81.1116 598.176 81.9116 597.808 82.5196 597.072C83.1276 596.336 83.4316 595.368 83.4316 594.168C83.4316 592.952 83.1276 591.976 82.5196 591.24C81.9116 590.488 81.1116 590.112 80.1196 590.112C79.1436 590.112 78.3516 590.48 77.7436 591.216C77.1356 591.952 76.8316 592.928 76.8316 594.144C76.8316 595.36 77.1356 596.336 77.7436 597.072C78.3516 597.808 79.1436 598.176 80.1196 598.176ZM92.0904 600.216C91.0664 600.216 90.2504 599.92 89.6424 599.328C89.0504 598.72 88.7544 597.784 88.7544 596.52V588.432V588.288L89.2104 585.648H91.1544V596.568C91.1544 597.016 91.2664 597.352 91.4904 597.576C91.7304 597.8 92.0264 597.912 92.3784 597.912C92.6504 597.912 92.8904 597.896 93.0984 597.864C93.3064 597.832 93.4904 597.792 93.6504 597.744V599.976C93.4424 600.04 93.2104 600.096 92.9544 600.144C92.7144 600.192 92.4264 600.216 92.0904 600.216ZM86.9544 590.496V588.288H93.6504V590.496H86.9544Z" fill="white"/>
<defs>
<filter id="filter0_d_3196_36" x="0" y="0" width="637" height="499" filterUnits="userSpaceOnUse" color-interpolation-filters="sRGB">
<feFlood flood-opacity="0" result="BackgroundImageFix"/>
<feColorMatrix in="SourceAlpha" type="matrix" values="0 0 0 0 0 0 0 0 0 0 0 0 0 0 0 0 0 0 127 0" result="hardAlpha"/>
<feOffset dy="4"/>
<feGaussianBlur stdDeviation="5"/>
<feComposite in2="hardAlpha" operator="out"/>
<feColorMatrix type="matrix" values="0 0 0 0 0 0 0 0 0 0 0 0 0 0 0 0 0 0 0.2 0"/>
<feBlend mode="normal" in2="BackgroundImageFix" result="effect1_dropShadow_3196_36"/>
<feBlend mode="normal" in="SourceGraphic" in2="effect1_dropShadow_3196_36" result="shape"/>
</filter>
<filter id="filter1_d_3196_36" x="0" y="513" width="637" height="143" filterUnits="userSpaceOnUse" color-interpolation-filters="sRGB">
<feFlood flood-opacity="0" result="BackgroundImageFix"/>
<feColorMatrix in="SourceAlpha" type="matrix" values="0 0 0 0 0 0 0 0 0 0 0 0 0 0 0 0 0 0 127 0" result="hardAlpha"/>
<feOffset dy="4"/>
<feGaussianBlur stdDeviation="5"/>
<feComposite in2="hardAlpha" operator="out"/>
<feColorMatrix type="matrix" values="0 0 0 0 0 0 0 0 0 0 0 0 0 0 0 0 0 0 0.2 0"/>
<feBlend mode="normal" in2="BackgroundImageFix" result="effect1_dropShadow_3196_36"/>
<feBlend mode="normal" in="SourceGraphic" in2="effect1_dropShadow_3196_36" result="shape"/>
</filter>
</defs>
</svg>
