<svg width="410" height="606" viewBox="0 0 410 606" fill="none" xmlns="http://www.w3.org/2000/svg">
<g filter="url(#filter0_d_3196_35)">
<rect x="10" y="6" width="390" height="463" rx="20" fill="white"/>
</g>
<path d="M38.9 62.3C38.1933 62.3 37.5067 62.1933 36.84 61.98C36.1867 61.7667 35.5867 61.42 35.04 60.94C34.4933 60.4467 34.0333 59.78 33.66 58.94L35.32 58C35.7867 58.84 36.3 59.4467 36.86 59.82C37.42 60.1933 38.12 60.38 38.96 60.38C39.7733 60.38 40.3867 60.2 40.8 59.84C41.2267 59.48 41.44 58.9867 41.44 58.36C41.44 57.9867 41.3467 57.66 41.16 57.38C40.9867 57.1 40.6733 56.84 40.22 56.6C39.7667 56.36 39.1267 56.14 38.3 55.94C37.26 55.6733 36.4467 55.3467 35.86 54.96C35.2867 54.56 34.8867 54.1067 34.66 53.6C34.4333 53.08 34.32 52.52 34.32 51.92C34.32 51.1733 34.4933 50.5267 34.84 49.98C35.1867 49.42 35.6867 48.9867 36.34 48.68C36.9933 48.36 37.7667 48.2 38.66 48.2C39.7267 48.2 40.6067 48.4067 41.3 48.82C41.9933 49.22 42.58 49.7733 43.06 50.48L41.38 51.56C40.9667 51.0533 40.5333 50.6933 40.08 50.48C39.64 50.2533 39.1667 50.14 38.66 50.14C37.8867 50.14 37.2933 50.2933 36.88 50.6C36.48 50.9067 36.28 51.3467 36.28 51.92C36.28 52.4133 36.4667 52.84 36.84 53.2C37.2267 53.56 37.9733 53.8733 39.08 54.14C40.2 54.42 41.0733 54.7533 41.7 55.14C42.34 55.5133 42.7867 55.9667 43.04 56.5C43.3067 57.02 43.44 57.6467 43.44 58.38C43.44 59.1133 43.2533 59.7733 42.88 60.36C42.5067 60.9467 41.98 61.42 41.3 61.78C40.62 62.1267 39.82 62.3 38.9 62.3ZM49.7631 62.2C48.8165 62.2 47.9831 61.9933 47.2631 61.58C46.5431 61.1533 45.9831 60.56 45.5831 59.8C45.1831 59.04 44.9831 58.1533 44.9831 57.14C44.9831 56.1133 45.1831 55.22 45.5831 54.46C45.9831 53.7 46.5431 53.1067 47.2631 52.68C47.9831 52.2533 48.8165 52.04 49.7631 52.04C50.7231 52.04 51.5631 52.2533 52.2831 52.68C53.0031 53.1067 53.5631 53.7 53.9631 54.46C54.3631 55.22 54.5631 56.1133 54.5631 57.14C54.5631 57.2333 54.5565 57.3333 54.5431 57.44C54.5431 57.5333 54.5365 57.62 54.5231 57.7H46.8831V55.98H53.0831L52.5231 57.14C52.5231 56.1267 52.2965 55.2933 51.8431 54.64C51.3898 53.9867 50.6965 53.66 49.7631 53.66C48.9365 53.66 48.2765 53.9267 47.7831 54.46C47.2898 54.98 47.0431 55.6667 47.0431 56.52V57.56C47.0431 58.4533 47.2831 59.1667 47.7631 59.7C48.2431 60.22 48.9098 60.48 49.7631 60.48C50.5498 60.48 51.1565 60.3133 51.5831 59.98C52.0098 59.6467 52.3831 59.2333 52.7031 58.74L54.2031 59.68C53.7498 60.52 53.1631 61.1533 52.4431 61.58C51.7365 61.9933 50.8431 62.2 49.7631 62.2ZM58.7248 62.1C58.3782 62.1 58.0715 62.02 57.8048 61.86C57.5382 61.6867 57.3248 61.44 57.1648 61.12C57.0182 60.8 56.9448 60.4067 56.9448 59.94V48.38H58.9048V59.24C58.9048 59.6533 59.0048 59.9333 59.2048 60.08C59.4182 60.2267 59.6582 60.3 59.9248 60.3V61.9C59.7515 61.9667 59.5648 62.0133 59.3648 62.04C59.1648 62.08 58.9515 62.1 58.7248 62.1ZM66.6662 62.2C65.7196 62.2 64.8862 61.9933 64.1662 61.58C63.4462 61.1533 62.8862 60.56 62.4862 59.8C62.0862 59.04 61.8862 58.1533 61.8862 57.14C61.8862 56.1133 62.0862 55.22 62.4862 54.46C62.8862 53.7 63.4462 53.1067 64.1662 52.68C64.8862 52.2533 65.7196 52.04 66.6662 52.04C67.6262 52.04 68.4662 52.2533 69.1862 52.68C69.9062 53.1067 70.4662 53.7 70.8662 54.46C71.2662 55.22 71.4662 56.1133 71.4662 57.14C71.4662 57.2333 71.4596 57.3333 71.4462 57.44C71.4462 57.5333 71.4396 57.62 71.4262 57.7H63.7862V55.98H69.9862L69.4262 57.14C69.4262 56.1267 69.1996 55.2933 68.7462 54.64C68.2929 53.9867 67.5996 53.66 66.6662 53.66C65.8396 53.66 65.1796 53.9267 64.6862 54.46C64.1929 54.98 63.9462 55.6667 63.9462 56.52V57.56C63.9462 58.4533 64.1862 59.1667 64.6662 59.7C65.1462 60.22 65.8129 60.48 66.6662 60.48C67.4529 60.48 68.0596 60.3133 68.4862 59.98C68.9129 59.6467 69.2862 59.2333 69.6062 58.74L71.1062 59.68C70.6529 60.52 70.0662 61.1533 69.3462 61.58C68.6396 61.9933 67.7462 62.2 66.6662 62.2ZM78.2456 62.2C77.2456 62.2 76.379 61.9867 75.6456 61.56C74.9123 61.12 74.3456 60.52 73.9456 59.76C73.5456 59 73.3456 58.12 73.3456 57.12C73.3456 56.12 73.5456 55.24 73.9456 54.48C74.3456 53.72 74.9123 53.1267 75.6456 52.7C76.379 52.26 77.2456 52.04 78.2456 52.04C79.1923 52.04 80.0523 52.3 80.8256 52.82C81.599 53.3267 82.159 54.0067 82.5056 54.86L80.6056 55.66C80.3923 55.1 80.0723 54.68 79.6456 54.4C79.219 54.1067 78.7323 53.96 78.1856 53.96C77.3856 53.96 76.719 54.24 76.1856 54.8C75.6523 55.3467 75.3856 56.12 75.3856 57.12C75.3856 58.12 75.6523 58.9 76.1856 59.46C76.719 60.0067 77.3856 60.28 78.1856 60.28C78.7323 60.28 79.219 60.14 79.6456 59.86C80.0723 59.5667 80.3923 59.14 80.6056 58.58L82.5056 59.38C82.1456 60.2333 81.579 60.92 80.8056 61.44C80.0456 61.9467 79.1923 62.2 78.2456 62.2ZM88.3214 62.18C87.4681 62.18 86.7881 61.9333 86.2814 61.44C85.7881 60.9333 85.5414 60.1533 85.5414 59.1V52.36V52.24L85.9214 50.04H87.5414V59.14C87.5414 59.5133 87.6347 59.7933 87.8214 59.98C88.0214 60.1667 88.2681 60.26 88.5614 60.26C88.7881 60.26 88.9881 60.2467 89.1614 60.22C89.3347 60.1933 89.4881 60.16 89.6214 60.12V61.98C89.4481 62.0333 89.2547 62.08 89.0414 62.12C88.8414 62.16 88.6014 62.18 88.3214 62.18ZM84.0414 54.08V52.24H89.6214V54.08H84.0414ZM98.7242 62V48.38H103.204C104.511 48.38 105.678 48.6533 106.704 49.2C107.731 49.7467 108.538 50.5333 109.124 51.56C109.711 52.5733 110.004 53.7933 110.004 55.22C110.004 56.6733 109.704 57.9067 109.104 58.92C108.518 59.92 107.711 60.6867 106.684 61.22C105.658 61.74 104.491 62 103.184 62H98.7242ZM100.724 60.56L100.124 60.12H103.084C103.978 60.12 104.784 59.9467 105.504 59.6C106.238 59.24 106.824 58.7 107.264 57.98C107.704 57.26 107.924 56.34 107.924 55.22C107.924 54.14 107.704 53.2333 107.264 52.5C106.838 51.7533 106.258 51.1933 105.524 50.82C104.804 50.4467 103.998 50.26 103.104 50.26H99.9842L100.724 49.54V60.56ZM115.518 62.28C114.758 62.28 114.105 62.1467 113.558 61.88C113.012 61.6133 112.592 61.2333 112.298 60.74C112.018 60.2333 111.878 59.6333 111.878 58.94C111.878 58.3 112.025 57.7333 112.318 57.24C112.612 56.7333 113.032 56.3333 113.578 56.04C114.125 55.7467 114.772 55.6 115.518 55.6C116.452 55.6 117.198 55.8133 117.758 56.24C118.332 56.6533 118.732 57.2267 118.958 57.96H117.838V55.46C117.838 55.0467 117.698 54.6667 117.418 54.32C117.138 53.9733 116.645 53.8 115.938 53.8C115.565 53.8 115.152 53.8467 114.698 53.94C114.258 54.02 113.798 54.1667 113.318 54.38L112.718 52.84C113.265 52.5733 113.832 52.3733 114.418 52.24C115.005 52.1067 115.578 52.04 116.138 52.04C116.978 52.04 117.672 52.1933 118.218 52.5C118.765 52.8067 119.172 53.22 119.438 53.74C119.705 54.2467 119.838 54.82 119.838 55.46V62H118.398L117.898 60.22L118.958 59.92C118.718 60.7067 118.292 61.3 117.678 61.7C117.065 62.0867 116.345 62.28 115.518 62.28ZM115.878 60.5C116.465 60.5 116.938 60.3667 117.298 60.1C117.658 59.82 117.838 59.4333 117.838 58.94C117.838 58.4333 117.658 58.0467 117.298 57.78C116.938 57.5133 116.465 57.38 115.878 57.38C115.292 57.38 114.818 57.5133 114.458 57.78C114.098 58.0467 113.918 58.4333 113.918 58.94C113.918 59.4333 114.098 59.82 114.458 60.1C114.818 60.3667 115.292 60.5 115.878 60.5ZM126.229 62.18C125.376 62.18 124.696 61.9333 124.189 61.44C123.696 60.9333 123.449 60.1533 123.449 59.1V52.36V52.24L123.829 50.04H125.449V59.14C125.449 59.5133 125.543 59.7933 125.729 59.98C125.929 60.1667 126.176 60.26 126.469 60.26C126.696 60.26 126.896 60.2467 127.069 60.22C127.243 60.1933 127.396 60.16 127.529 60.12V61.98C127.356 62.0333 127.163 62.08 126.949 62.12C126.749 62.16 126.509 62.18 126.229 62.18ZM121.949 54.08V52.24H127.529V54.08H121.949ZM134.401 62.2C133.455 62.2 132.621 61.9933 131.901 61.58C131.181 61.1533 130.621 60.56 130.221 59.8C129.821 59.04 129.621 58.1533 129.621 57.14C129.621 56.1133 129.821 55.22 130.221 54.46C130.621 53.7 131.181 53.1067 131.901 52.68C132.621 52.2533 133.455 52.04 134.401 52.04C135.361 52.04 136.201 52.2533 136.921 52.68C137.641 53.1067 138.201 53.7 138.601 54.46C139.001 55.22 139.201 56.1133 139.201 57.14C139.201 57.2333 139.195 57.3333 139.181 57.44C139.181 57.5333 139.175 57.62 139.161 57.7H131.521V55.98H137.721L137.161 57.14C137.161 56.1267 136.935 55.2933 136.481 54.64C136.028 53.9867 135.335 53.66 134.401 53.66C133.575 53.66 132.915 53.9267 132.421 54.46C131.928 54.98 131.681 55.6667 131.681 56.52V57.56C131.681 58.4533 131.921 59.1667 132.401 59.7C132.881 60.22 133.548 60.48 134.401 60.48C135.188 60.48 135.795 60.3133 136.221 59.98C136.648 59.6467 137.021 59.2333 137.341 58.74L138.841 59.68C138.388 60.52 137.801 61.1533 137.081 61.58C136.375 61.9933 135.481 62.2 134.401 62.2Z" fill="#040171"/>
<line x1="84.5" y1="95" x2="84.5" y2="381" stroke="#C1C1C1"/>
<line x1="140.5" y1="95" x2="140.5" y2="381" stroke="#C1C1C1"/>
<line x1="199.5" y1="381" x2="199.5" y2="95" stroke="#C1C1C1"/>
<line x1="319.5" y1="381" x2="319.5" y2="95" stroke="#C1C1C1"/>
<line x1="33" y1="168.5" x2="373" y2="168.5" stroke="#C1C1C1"/>
<line x1="33" y1="245.5" x2="373" y2="245.5" stroke="#C1C1C1"/>
<line x1="33" y1="322.5" x2="373" y2="322.5" stroke="#C1C1C1"/>
<line x1="258.5" y1="381" x2="258.5" y2="95" stroke="#C1C1C1"/>
<rect x="148" y="182" width="44" height="44" rx="22" fill="#FF6600"/>
<path d="M162.888 198.676L163.776 199.036C163.664 199.34 163.456 199.636 163.152 199.924C162.848 200.212 162.432 200.452 161.904 200.644C161.376 200.836 160.712 200.932 159.912 200.932V198.628C160.6 198.628 161.192 198.532 161.688 198.34C162.184 198.132 162.592 197.844 162.912 197.476C163.248 197.092 163.496 196.652 163.656 196.156H165.288V212.5H162.888V198.676ZM173.704 212.74C172.568 212.74 171.608 212.532 170.824 212.116C170.04 211.7 169.448 211.148 169.048 210.46C168.648 209.756 168.448 208.996 168.448 208.18C168.448 207.3 168.632 206.548 169 205.924C169.368 205.3 169.872 204.796 170.512 204.412C171.152 204.012 171.88 203.732 172.696 203.572V204.748C171.976 204.572 171.336 204.284 170.776 203.884C170.216 203.484 169.776 202.988 169.456 202.396C169.136 201.804 168.976 201.132 168.976 200.38C168.976 199.484 169.168 198.708 169.552 198.052C169.952 197.38 170.504 196.86 171.208 196.492C171.928 196.124 172.776 195.94 173.752 195.94C174.696 195.94 175.52 196.124 176.224 196.492C176.928 196.86 177.472 197.38 177.856 198.052C178.24 198.708 178.432 199.484 178.432 200.38C178.432 201.052 178.296 201.668 178.024 202.228C177.768 202.788 177.4 203.268 176.92 203.668C176.456 204.068 175.912 204.372 175.288 204.58L175.264 203.692C176 203.884 176.64 204.18 177.184 204.58C177.744 204.98 178.176 205.484 178.48 206.092C178.8 206.684 178.96 207.38 178.96 208.18C178.96 208.996 178.76 209.756 178.36 210.46C177.96 211.148 177.368 211.7 176.584 212.116C175.8 212.532 174.84 212.74 173.704 212.74ZM173.704 210.388C174.552 210.388 175.232 210.148 175.744 209.668C176.272 209.188 176.536 208.556 176.536 207.772C176.536 206.94 176.272 206.276 175.744 205.78C175.232 205.284 174.552 205.036 173.704 205.036C172.856 205.036 172.168 205.284 171.64 205.78C171.128 206.276 170.872 206.94 170.872 207.772C170.872 208.556 171.128 209.188 171.64 209.668C172.168 210.148 172.856 210.388 173.704 210.388ZM173.704 202.78C174.408 202.78 174.992 202.564 175.456 202.132C175.92 201.684 176.152 201.132 176.152 200.476C176.152 199.852 175.92 199.332 175.456 198.916C174.992 198.5 174.408 198.292 173.704 198.292C173.016 198.292 172.432 198.5 171.952 198.916C171.488 199.332 171.256 199.852 171.256 200.476C171.256 201.132 171.488 201.684 171.952 202.132C172.432 202.564 173.016 202.78 173.704 202.78Z" fill="white"/>
<circle cx="229" cy="130" r="8" fill="#040171"/>
<circle cx="229" cy="204" r="8" fill="#040171" fill-opacity="0.5"/>
<circle cx="229" cy="278" r="8" fill="#040171"/>
<circle cx="229" cy="352" r="8" fill="#040171" fill-opacity="0.25"/>
<circle cx="289" cy="130" r="8" fill="#040171"/>
<circle cx="54" cy="130" r="8" fill="#040171" fill-opacity="0.25"/>
<circle cx="29.5" cy="424" r="7.5" fill="#040171" fill-opacity="0.25"/>
<path d="M47.664 425.446H54.27V427.138H47.664V425.446ZM45.36 430L49.734 417.742H52.182L56.556 430H54.72L50.796 419.002H51.12L47.196 430H45.36ZM65.0123 421.216L61.7003 430H59.9903L56.4983 421.216H58.4963L60.9443 428.038H60.7103L63.0503 421.216H65.0123ZM69.2864 430.252C68.6024 430.252 68.0144 430.132 67.5224 429.892C67.0304 429.652 66.6524 429.31 66.3884 428.866C66.1364 428.41 66.0104 427.87 66.0104 427.246C66.0104 426.67 66.1424 426.16 66.4064 425.716C66.6704 425.26 67.0484 424.9 67.5404 424.636C68.0324 424.372 68.6144 424.24 69.2864 424.24C70.1264 424.24 70.7984 424.432 71.3024 424.816C71.8184 425.188 72.1784 425.704 72.3824 426.364H71.3744V424.114C71.3744 423.742 71.2484 423.4 70.9964 423.088C70.7444 422.776 70.3004 422.62 69.6644 422.62C69.3284 422.62 68.9564 422.662 68.5484 422.746C68.1524 422.818 67.7384 422.95 67.3064 423.142L66.7664 421.756C67.2584 421.516 67.7684 421.336 68.2964 421.216C68.8244 421.096 69.3404 421.036 69.8444 421.036C70.6004 421.036 71.2244 421.174 71.7164 421.45C72.2084 421.726 72.5744 422.098 72.8144 422.566C73.0544 423.022 73.1744 423.538 73.1744 424.114V430H71.8784L71.4284 428.398L72.3824 428.128C72.1664 428.836 71.7824 429.37 71.2304 429.73C70.6784 430.078 70.0304 430.252 69.2864 430.252ZM69.6104 428.65C70.1384 428.65 70.5644 428.53 70.8884 428.29C71.2124 428.038 71.3744 427.69 71.3744 427.246C71.3744 426.79 71.2124 426.442 70.8884 426.202C70.5644 425.962 70.1384 425.842 69.6104 425.842C69.0824 425.842 68.6564 425.962 68.3324 426.202C68.0084 426.442 67.8464 426.79 67.8464 427.246C67.8464 427.69 68.0084 428.038 68.3324 428.29C68.6564 428.53 69.0824 428.65 69.6104 428.65ZM77.7857 430H75.9857V421.216H77.7857V430ZM75.7157 418.516C75.7157 418.168 75.8177 417.886 76.0217 417.67C76.2377 417.442 76.5257 417.328 76.8857 417.328C77.2337 417.328 77.5157 417.442 77.7317 417.67C77.9477 417.886 78.0557 418.168 78.0557 418.516C78.0557 418.852 77.9477 419.134 77.7317 419.362C77.5157 419.578 77.2337 419.686 76.8857 419.686C76.5257 419.686 76.2377 419.578 76.0217 419.362C75.8177 419.134 75.7157 418.852 75.7157 418.516ZM82.2753 430.09C81.9633 430.09 81.6873 430.018 81.4473 429.874C81.2073 429.718 81.0153 429.496 80.8713 429.208C80.7393 428.92 80.6733 428.566 80.6733 428.146V417.742H82.4373V427.516C82.4373 427.888 82.5273 428.14 82.7073 428.272C82.8993 428.404 83.1153 428.47 83.3553 428.47V429.91C83.1993 429.97 83.0313 430.012 82.8513 430.036C82.6713 430.072 82.4793 430.09 82.2753 430.09ZM88.2208 430.252C87.5368 430.252 86.9488 430.132 86.4568 429.892C85.9648 429.652 85.5868 429.31 85.3228 428.866C85.0708 428.41 84.9448 427.87 84.9448 427.246C84.9448 426.67 85.0768 426.16 85.3408 425.716C85.6048 425.26 85.9828 424.9 86.4748 424.636C86.9668 424.372 87.5488 424.24 88.2208 424.24C89.0608 424.24 89.7328 424.432 90.2368 424.816C90.7528 425.188 91.1128 425.704 91.3168 426.364H90.3088V424.114C90.3088 423.742 90.1828 423.4 89.9308 423.088C89.6788 422.776 89.2348 422.62 88.5988 422.62C88.2628 422.62 87.8908 422.662 87.4828 422.746C87.0868 422.818 86.6728 422.95 86.2408 423.142L85.7008 421.756C86.1928 421.516 86.7028 421.336 87.2308 421.216C87.7588 421.096 88.2748 421.036 88.7788 421.036C89.5348 421.036 90.1588 421.174 90.6508 421.45C91.1428 421.726 91.5088 422.098 91.7488 422.566C91.9888 423.022 92.1088 423.538 92.1088 424.114V430H90.8128L90.3628 428.398L91.3168 428.128C91.1008 428.836 90.7168 429.37 90.1648 429.73C89.6128 430.078 88.9648 430.252 88.2208 430.252ZM88.5448 428.65C89.0728 428.65 89.4988 428.53 89.8228 428.29C90.1468 428.038 90.3088 427.69 90.3088 427.246C90.3088 426.79 90.1468 426.442 89.8228 426.202C89.4988 425.962 89.0728 425.842 88.5448 425.842C88.0168 425.842 87.5908 425.962 87.2668 426.202C86.9428 426.442 86.7808 426.79 86.7808 427.246C86.7808 427.69 86.9428 428.038 87.2668 428.29C87.5908 428.53 88.0168 428.65 88.5448 428.65ZM99.3302 430.18C98.5382 430.18 97.8482 429.988 97.2602 429.604C96.6722 429.22 96.2102 428.686 95.8742 428.002C95.5502 427.306 95.3882 426.502 95.3882 425.59C95.3882 424.678 95.5502 423.88 95.8742 423.196C96.2102 422.512 96.6722 421.984 97.2602 421.612C97.8482 421.228 98.5382 421.036 99.3302 421.036C100.146 421.036 100.854 421.228 101.454 421.612C102.066 421.984 102.54 422.512 102.876 423.196C103.212 423.88 103.38 424.678 103.38 425.59C103.38 426.502 103.212 427.306 102.876 428.002C102.54 428.686 102.066 429.22 101.454 429.604C100.854 429.988 100.146 430.18 99.3302 430.18ZM94.8842 430V417.742H96.6842V423.232H96.5042V428.236H96.6842L96.2522 430H94.8842ZM99.0602 428.632C99.8042 428.632 100.404 428.356 100.86 427.804C101.316 427.24 101.544 426.502 101.544 425.59C101.544 424.69 101.316 423.964 100.86 423.412C100.404 422.86 99.8042 422.584 99.0602 422.584C98.3282 422.584 97.7342 422.86 97.2782 423.412C96.8222 423.964 96.5942 424.696 96.5942 425.608C96.5942 426.52 96.8222 427.252 97.2782 427.804C97.7342 428.356 98.3282 428.632 99.0602 428.632ZM107.204 430.09C106.892 430.09 106.616 430.018 106.376 429.874C106.136 429.718 105.944 429.496 105.8 429.208C105.668 428.92 105.602 428.566 105.602 428.146V417.742H107.366V427.516C107.366 427.888 107.456 428.14 107.636 428.272C107.828 428.404 108.044 428.47 108.284 428.47V429.91C108.128 429.97 107.96 430.012 107.78 430.036C107.6 430.072 107.408 430.09 107.204 430.09ZM114.351 430.18C113.499 430.18 112.749 429.994 112.101 429.622C111.453 429.238 110.949 428.704 110.589 428.02C110.229 427.336 110.049 426.538 110.049 425.626C110.049 424.702 110.229 423.898 110.589 423.214C110.949 422.53 111.453 421.996 112.101 421.612C112.749 421.228 113.499 421.036 114.351 421.036C115.215 421.036 115.971 421.228 116.619 421.612C117.267 421.996 117.771 422.53 118.131 423.214C118.491 423.898 118.671 424.702 118.671 425.626C118.671 425.71 118.665 425.8 118.653 425.896C118.653 425.98 118.647 426.058 118.635 426.13H111.759V424.582H117.339L116.835 425.626C116.835 424.714 116.631 423.964 116.223 423.376C115.815 422.788 115.191 422.494 114.351 422.494C113.607 422.494 113.013 422.734 112.569 423.214C112.125 423.682 111.903 424.3 111.903 425.068V426.004C111.903 426.808 112.119 427.45 112.551 427.93C112.983 428.398 113.583 428.632 114.351 428.632C115.059 428.632 115.605 428.482 115.989 428.182C116.373 427.882 116.709 427.51 116.997 427.066L118.347 427.912C117.939 428.668 117.411 429.238 116.763 429.622C116.127 429.994 115.323 430.18 114.351 430.18Z" fill="#525151"/>
<circle cx="140.5" cy="424" r="7.5" fill="#040171" fill-opacity="0.5"/>
<path d="M158.664 425.446H165.27V427.138H158.664V425.446ZM156.36 430L160.734 417.742H163.182L167.556 430H165.72L161.796 419.002H162.12L158.196 430H156.36ZM170.948 430.09C170.636 430.09 170.36 430.018 170.12 429.874C169.88 429.718 169.688 429.496 169.544 429.208C169.412 428.92 169.346 428.566 169.346 428.146V417.742H171.11V427.516C171.11 427.888 171.2 428.14 171.38 428.272C171.572 428.404 171.788 428.47 172.028 428.47V429.91C171.872 429.97 171.704 430.012 171.524 430.036C171.344 430.072 171.152 430.09 170.948 430.09ZM174.334 430V421.216H175.702L176.08 422.764L175.63 422.818C175.954 422.434 176.296 422.11 176.656 421.846C177.016 421.582 177.4 421.384 177.808 421.252C178.216 421.108 178.642 421.036 179.086 421.036C179.71 421.036 180.202 421.144 180.562 421.36C180.922 421.564 181.186 421.846 181.354 422.206C181.522 422.554 181.63 422.95 181.678 423.394C181.726 423.838 181.75 424.294 181.75 424.762V430H179.95V424.384C179.95 423.76 179.806 423.34 179.518 423.124C179.242 422.908 178.912 422.8 178.528 422.8C177.976 422.8 177.448 422.974 176.944 423.322C176.44 423.658 176.074 424.066 175.846 424.546V423.538H176.134V430H174.334ZM185.566 430V424.384C185.566 423.76 185.422 423.34 185.134 423.124C184.858 422.908 184.528 422.8 184.144 422.8C183.592 422.8 183.064 422.974 182.56 423.322C182.056 423.658 181.69 424.066 181.462 424.546L181.246 422.818C181.57 422.434 181.912 422.11 182.272 421.846C182.632 421.582 183.016 421.384 183.424 421.252C183.832 421.108 184.258 421.036 184.702 421.036C185.326 421.036 185.818 421.144 186.178 421.36C186.538 421.564 186.802 421.846 186.97 422.206C187.138 422.554 187.246 422.95 187.294 423.394C187.342 423.838 187.366 424.294 187.366 424.762V430H185.566ZM194.003 430.18C193.115 430.18 192.329 429.994 191.645 429.622C190.973 429.238 190.451 428.704 190.079 428.02C189.707 427.336 189.521 426.538 189.521 425.626C189.521 424.702 189.707 423.898 190.079 423.214C190.451 422.53 190.973 421.996 191.645 421.612C192.329 421.228 193.115 421.036 194.003 421.036C194.903 421.036 195.689 421.228 196.361 421.612C197.033 421.996 197.555 422.53 197.927 423.214C198.311 423.898 198.503 424.702 198.503 425.626C198.503 426.538 198.311 427.336 197.927 428.02C197.555 428.704 197.033 429.238 196.361 429.622C195.689 429.994 194.903 430.18 194.003 430.18ZM194.003 428.452C194.807 428.452 195.449 428.194 195.929 427.678C196.421 427.15 196.667 426.466 196.667 425.626C196.667 424.774 196.421 424.084 195.929 423.556C195.449 423.028 194.807 422.764 194.003 422.764C193.211 422.764 192.569 423.028 192.077 423.556C191.597 424.072 191.357 424.756 191.357 425.608C191.357 426.46 191.597 427.15 192.077 427.678C192.569 428.194 193.211 428.452 194.003 428.452ZM203.464 430.18C202.852 430.18 202.246 430.036 201.646 429.748C201.058 429.46 200.572 428.968 200.188 428.272L201.556 427.372C201.892 427.816 202.21 428.14 202.51 428.344C202.81 428.536 203.2 428.632 203.68 428.632C204.064 428.632 204.358 428.536 204.562 428.344C204.778 428.14 204.886 427.894 204.886 427.606C204.886 427.414 204.832 427.246 204.724 427.102C204.628 426.958 204.454 426.826 204.202 426.706C203.95 426.574 203.59 426.448 203.122 426.328C202.258 426.1 201.592 425.8 201.124 425.428C200.656 425.056 200.422 424.468 200.422 423.664C200.422 423.184 200.542 422.746 200.782 422.35C201.022 421.954 201.37 421.636 201.826 421.396C202.282 421.156 202.822 421.036 203.446 421.036C204.19 421.036 204.826 421.192 205.354 421.504C205.882 421.804 206.296 422.164 206.596 422.584L205.21 423.61C205.042 423.394 204.796 423.184 204.472 422.98C204.148 422.764 203.74 422.656 203.248 422.656C202.948 422.656 202.672 422.74 202.42 422.908C202.168 423.076 202.042 423.31 202.042 423.61C202.042 423.91 202.156 424.156 202.384 424.348C202.624 424.528 203.056 424.69 203.68 424.834C204.736 425.086 205.486 425.416 205.93 425.824C206.374 426.22 206.596 426.748 206.596 427.408C206.596 427.984 206.446 428.482 206.146 428.902C205.858 429.31 205.474 429.628 204.994 429.856C204.526 430.072 204.016 430.18 203.464 430.18ZM212.205 430.162C211.437 430.162 210.825 429.94 210.369 429.496C209.925 429.04 209.703 428.338 209.703 427.39V421.324V421.216L210.045 419.236H211.503V427.426C211.503 427.762 211.587 428.014 211.755 428.182C211.935 428.35 212.157 428.434 212.421 428.434C212.625 428.434 212.805 428.422 212.961 428.398C213.117 428.374 213.255 428.344 213.375 428.308V429.982C213.219 430.03 213.045 430.072 212.853 430.108C212.673 430.144 212.457 430.162 212.205 430.162ZM208.353 422.872V421.216H213.375V422.872H208.353ZM221.568 430V417.742H225.636C226.464 417.742 227.16 417.862 227.724 418.102C228.3 418.33 228.738 418.69 229.038 419.182C229.338 419.662 229.488 420.274 229.488 421.018C229.488 421.642 229.332 422.194 229.02 422.674C228.708 423.154 228.294 423.526 227.778 423.79C227.274 424.054 226.728 424.186 226.14 424.186L226.266 423.25C226.998 423.25 227.634 423.382 228.174 423.646C228.726 423.898 229.158 424.27 229.47 424.762C229.782 425.254 229.938 425.854 229.938 426.562C229.938 427.678 229.59 428.53 228.894 429.118C228.21 429.706 227.226 430 225.942 430H221.568ZM223.368 418.876V428.74L222.648 428.272H225.996C226.668 428.272 227.184 428.098 227.544 427.75C227.916 427.39 228.102 426.934 228.102 426.382C228.102 425.758 227.922 425.284 227.562 424.96C227.214 424.636 226.704 424.474 226.032 424.474H222.648V422.818H225.69C226.326 422.818 226.812 422.68 227.148 422.404C227.484 422.116 227.652 421.702 227.652 421.162C227.652 420.67 227.478 420.268 227.13 419.956C226.794 419.632 226.314 419.47 225.69 419.47H222.72L223.368 418.876ZM236.307 430.18C235.419 430.18 234.633 429.994 233.949 429.622C233.277 429.238 232.755 428.704 232.383 428.02C232.011 427.336 231.825 426.538 231.825 425.626C231.825 424.702 232.011 423.898 232.383 423.214C232.755 422.53 233.277 421.996 233.949 421.612C234.633 421.228 235.419 421.036 236.307 421.036C237.207 421.036 237.993 421.228 238.665 421.612C239.337 421.996 239.859 422.53 240.231 423.214C240.615 423.898 240.807 424.702 240.807 425.626C240.807 426.538 240.615 427.336 240.231 428.02C239.859 428.704 239.337 429.238 238.665 429.622C237.993 429.994 237.207 430.18 236.307 430.18ZM236.307 428.452C237.111 428.452 237.753 428.194 238.233 427.678C238.725 427.15 238.971 426.466 238.971 425.626C238.971 424.774 238.725 424.084 238.233 423.556C237.753 423.028 237.111 422.764 236.307 422.764C235.515 422.764 234.873 423.028 234.381 423.556C233.901 424.072 233.661 424.756 233.661 425.608C233.661 426.46 233.901 427.15 234.381 427.678C234.873 428.194 235.515 428.452 236.307 428.452ZM246.743 430.18C245.855 430.18 245.069 429.994 244.385 429.622C243.713 429.238 243.191 428.704 242.819 428.02C242.447 427.336 242.261 426.538 242.261 425.626C242.261 424.702 242.447 423.898 242.819 423.214C243.191 422.53 243.713 421.996 244.385 421.612C245.069 421.228 245.855 421.036 246.743 421.036C247.643 421.036 248.429 421.228 249.101 421.612C249.773 421.996 250.295 422.53 250.667 423.214C251.051 423.898 251.243 424.702 251.243 425.626C251.243 426.538 251.051 427.336 250.667 428.02C250.295 428.704 249.773 429.238 249.101 429.622C248.429 429.994 247.643 430.18 246.743 430.18ZM246.743 428.452C247.547 428.452 248.189 428.194 248.669 427.678C249.161 427.15 249.407 426.466 249.407 425.626C249.407 424.774 249.161 424.084 248.669 423.556C248.189 423.028 247.547 422.764 246.743 422.764C245.951 422.764 245.309 423.028 244.817 423.556C244.337 424.072 244.097 424.756 244.097 425.608C244.097 426.46 244.337 427.15 244.817 427.678C245.309 428.194 245.951 428.452 246.743 428.452ZM254.816 425.572V425.32L258.632 421.216H260.756L256.472 425.914L256.31 424.726L260.792 430H258.632L254.816 425.572ZM253.484 417.742H255.248V430H253.484V417.742ZM265.801 430.18C264.949 430.18 264.199 429.994 263.551 429.622C262.903 429.238 262.399 428.704 262.039 428.02C261.679 427.336 261.499 426.538 261.499 425.626C261.499 424.702 261.679 423.898 262.039 423.214C262.399 422.53 262.903 421.996 263.551 421.612C264.199 421.228 264.949 421.036 265.801 421.036C266.665 421.036 267.421 421.228 268.069 421.612C268.717 421.996 269.221 422.53 269.581 423.214C269.941 423.898 270.121 424.702 270.121 425.626C270.121 425.71 270.115 425.8 270.103 425.896C270.103 425.98 270.097 426.058 270.085 426.13H263.209V424.582H268.789L268.285 425.626C268.285 424.714 268.081 423.964 267.673 423.376C267.265 422.788 266.641 422.494 265.801 422.494C265.057 422.494 264.463 422.734 264.019 423.214C263.575 423.682 263.353 424.3 263.353 425.068V426.004C263.353 426.808 263.569 427.45 264.001 427.93C264.433 428.398 265.033 428.632 265.801 428.632C266.509 428.632 267.055 428.482 267.439 428.182C267.823 427.882 268.159 427.51 268.447 427.066L269.797 427.912C269.389 428.668 268.861 429.238 268.213 429.622C267.577 429.994 266.773 430.18 265.801 430.18ZM275.863 430.18C275.059 430.18 274.351 429.988 273.739 429.604C273.127 429.22 272.653 428.686 272.317 428.002C271.981 427.306 271.813 426.502 271.813 425.59C271.813 424.678 271.981 423.88 272.317 423.196C272.653 422.512 273.127 421.984 273.739 421.612C274.351 421.228 275.059 421.036 275.863 421.036C276.655 421.036 277.345 421.228 277.933 421.612C278.521 421.984 278.977 422.512 279.301 423.196C279.637 423.88 279.805 424.678 279.805 425.59C279.805 426.502 279.637 427.306 279.301 428.002C278.977 428.686 278.521 429.22 277.933 429.604C277.345 429.988 276.655 430.18 275.863 430.18ZM276.133 428.632C276.877 428.632 277.471 428.356 277.915 427.804C278.371 427.252 278.599 426.52 278.599 425.608C278.599 424.696 278.371 423.964 277.915 423.412C277.471 422.86 276.877 422.584 276.133 422.584C275.389 422.584 274.789 422.86 274.333 423.412C273.877 423.964 273.649 424.69 273.649 425.59C273.649 426.502 273.877 427.24 274.333 427.804C274.789 428.356 275.389 428.632 276.133 428.632ZM278.941 430L278.509 428.236H278.689V423.232H278.509V417.742H280.309V430H278.941Z" fill="#525151"/>
<circle cx="302.5" cy="424" r="7.5" fill="#040171"/>
<path d="M319.53 430V417.742H323.598C324.426 417.742 325.122 417.862 325.686 418.102C326.262 418.33 326.7 418.69 327 419.182C327.3 419.662 327.45 420.274 327.45 421.018C327.45 421.642 327.294 422.194 326.982 422.674C326.67 423.154 326.256 423.526 325.74 423.79C325.236 424.054 324.69 424.186 324.102 424.186L324.228 423.25C324.96 423.25 325.596 423.382 326.136 423.646C326.688 423.898 327.12 424.27 327.432 424.762C327.744 425.254 327.9 425.854 327.9 426.562C327.9 427.678 327.552 428.53 326.856 429.118C326.172 429.706 325.188 430 323.904 430H319.53ZM321.33 418.876V428.74L320.61 428.272H323.958C324.63 428.272 325.146 428.098 325.506 427.75C325.878 427.39 326.064 426.934 326.064 426.382C326.064 425.758 325.884 425.284 325.524 424.96C325.176 424.636 324.666 424.474 323.994 424.474H320.61V422.818H323.652C324.288 422.818 324.774 422.68 325.11 422.404C325.446 422.116 325.614 421.702 325.614 421.162C325.614 420.67 325.44 420.268 325.092 419.956C324.756 419.632 324.276 419.47 323.652 419.47H320.682L321.33 418.876ZM334.269 430.18C333.381 430.18 332.595 429.994 331.911 429.622C331.239 429.238 330.717 428.704 330.345 428.02C329.973 427.336 329.787 426.538 329.787 425.626C329.787 424.702 329.973 423.898 330.345 423.214C330.717 422.53 331.239 421.996 331.911 421.612C332.595 421.228 333.381 421.036 334.269 421.036C335.169 421.036 335.955 421.228 336.627 421.612C337.299 421.996 337.821 422.53 338.193 423.214C338.577 423.898 338.769 424.702 338.769 425.626C338.769 426.538 338.577 427.336 338.193 428.02C337.821 428.704 337.299 429.238 336.627 429.622C335.955 429.994 335.169 430.18 334.269 430.18ZM334.269 428.452C335.073 428.452 335.715 428.194 336.195 427.678C336.687 427.15 336.933 426.466 336.933 425.626C336.933 424.774 336.687 424.084 336.195 423.556C335.715 423.028 335.073 422.764 334.269 422.764C333.477 422.764 332.835 423.028 332.343 423.556C331.863 424.072 331.623 424.756 331.623 425.608C331.623 426.46 331.863 427.15 332.343 427.678C332.835 428.194 333.477 428.452 334.269 428.452ZM344.706 430.18C343.818 430.18 343.032 429.994 342.348 429.622C341.676 429.238 341.154 428.704 340.782 428.02C340.41 427.336 340.224 426.538 340.224 425.626C340.224 424.702 340.41 423.898 340.782 423.214C341.154 422.53 341.676 421.996 342.348 421.612C343.032 421.228 343.818 421.036 344.706 421.036C345.606 421.036 346.392 421.228 347.064 421.612C347.736 421.996 348.258 422.53 348.63 423.214C349.014 423.898 349.206 424.702 349.206 425.626C349.206 426.538 349.014 427.336 348.63 428.02C348.258 428.704 347.736 429.238 347.064 429.622C346.392 429.994 345.606 430.18 344.706 430.18ZM344.706 428.452C345.51 428.452 346.152 428.194 346.632 427.678C347.124 427.15 347.37 426.466 347.37 425.626C347.37 424.774 347.124 424.084 346.632 423.556C346.152 423.028 345.51 422.764 344.706 422.764C343.914 422.764 343.272 423.028 342.78 423.556C342.3 424.072 342.06 424.756 342.06 425.608C342.06 426.46 342.3 427.15 342.78 427.678C343.272 428.194 343.914 428.452 344.706 428.452ZM352.778 425.572V425.32L356.594 421.216H358.718L354.434 425.914L354.272 424.726L358.754 430H356.594L352.778 425.572ZM351.446 417.742H353.21V430H351.446V417.742ZM363.763 430.18C362.911 430.18 362.161 429.994 361.513 429.622C360.865 429.238 360.361 428.704 360.001 428.02C359.641 427.336 359.461 426.538 359.461 425.626C359.461 424.702 359.641 423.898 360.001 423.214C360.361 422.53 360.865 421.996 361.513 421.612C362.161 421.228 362.911 421.036 363.763 421.036C364.627 421.036 365.383 421.228 366.031 421.612C366.679 421.996 367.183 422.53 367.543 423.214C367.903 423.898 368.083 424.702 368.083 425.626C368.083 425.71 368.077 425.8 368.065 425.896C368.065 425.98 368.059 426.058 368.047 426.13H361.171V424.582H366.751L366.247 425.626C366.247 424.714 366.043 423.964 365.635 423.376C365.227 422.788 364.603 422.494 363.763 422.494C363.019 422.494 362.425 422.734 361.981 423.214C361.537 423.682 361.315 424.3 361.315 425.068V426.004C361.315 426.808 361.531 427.45 361.963 427.93C362.395 428.398 362.995 428.632 363.763 428.632C364.471 428.632 365.017 428.482 365.401 428.182C365.785 427.882 366.121 427.51 366.409 427.066L367.759 427.912C367.351 428.668 366.823 429.238 366.175 429.622C365.539 429.994 364.735 430.18 363.763 430.18ZM373.825 430.18C373.021 430.18 372.313 429.988 371.701 429.604C371.089 429.22 370.615 428.686 370.279 428.002C369.943 427.306 369.775 426.502 369.775 425.59C369.775 424.678 369.943 423.88 370.279 423.196C370.615 422.512 371.089 421.984 371.701 421.612C372.313 421.228 373.021 421.036 373.825 421.036C374.617 421.036 375.307 421.228 375.895 421.612C376.483 421.984 376.939 422.512 377.263 423.196C377.599 423.88 377.767 424.678 377.767 425.59C377.767 426.502 377.599 427.306 377.263 428.002C376.939 428.686 376.483 429.22 375.895 429.604C375.307 429.988 374.617 430.18 373.825 430.18ZM374.095 428.632C374.839 428.632 375.433 428.356 375.877 427.804C376.333 427.252 376.561 426.52 376.561 425.608C376.561 424.696 376.333 423.964 375.877 423.412C375.433 422.86 374.839 422.584 374.095 422.584C373.351 422.584 372.751 422.86 372.295 423.412C371.839 423.964 371.611 424.69 371.611 425.59C371.611 426.502 371.839 427.24 372.295 427.804C372.751 428.356 373.351 428.632 374.095 428.632ZM376.903 430L376.471 428.236H376.651V423.232H376.471V417.742H378.271V430H376.903Z" fill="#525151"/>
<circle cx="289" cy="204" r="8" fill="#040171" fill-opacity="0.5"/>
<circle cx="54" cy="204" r="8" fill="#040171" fill-opacity="0.5"/>
<circle cx="289" cy="278" r="8" fill="#040171" fill-opacity="0.5"/>
<circle cx="54" cy="278" r="8" fill="#040171" fill-opacity="0.5"/>
<circle cx="289" cy="352" r="8" fill="#040171" fill-opacity="0.25"/>
<circle cx="54" cy="352" r="8" fill="#040171" fill-opacity="0.25"/>
<circle cx="349" cy="130" r="8" fill="#040171" fill-opacity="0.5"/>
<circle cx="114" cy="130" r="8" fill="#040171" fill-opacity="0.25"/>
<circle cx="171" cy="130" r="8" fill="#040171" fill-opacity="0.5"/>
<circle cx="171" cy="278" r="8" fill="#040171"/>
<circle cx="171" cy="352" r="8" fill="#040171" fill-opacity="0.5"/>
<circle cx="349" cy="204" r="8" fill="#040171" fill-opacity="0.5"/>
<circle cx="114" cy="204" r="8" fill="#040171" fill-opacity="0.5"/>
<circle cx="349" cy="278" r="8" fill="#040171"/>
<circle cx="114" cy="278" r="8" fill="#040171"/>
<circle cx="349" cy="352" r="8" fill="#040171" fill-opacity="0.25"/>
<circle cx="114" cy="352" r="8" fill="#040171" fill-opacity="0.25"/>
<g filter="url(#filter1_d_3196_35)">
<rect x="10" y="498" width="390" height="94" rx="20" fill="white"/>
</g>
<path d="M10 518C10 506.954 18.9543 498 30 498H119V592H30C18.9543 592 10 583.046 10 572V518Z" fill="#FF6600"/>
<path d="M138.648 539L140.898 526.742H142.5L145.866 535.688H145.92L149.286 526.742H150.888L153.138 539H151.248L150.258 533.168C150.114 532.328 149.994 531.5 149.898 530.684C149.802 529.856 149.742 529.028 149.718 528.2H150.168C149.952 529.196 149.724 530.072 149.484 530.828C149.256 531.584 148.992 532.364 148.692 533.168L146.586 538.802H145.2L143.094 533.168C142.794 532.352 142.524 531.572 142.284 530.828C142.056 530.072 141.834 529.196 141.618 528.2H142.068C142.044 529.028 141.984 529.856 141.888 530.684C141.792 531.5 141.672 532.328 141.528 533.168L140.538 539H138.648ZM159.437 539.18C158.549 539.18 157.763 538.994 157.079 538.622C156.407 538.238 155.885 537.704 155.513 537.02C155.141 536.336 154.955 535.538 154.955 534.626C154.955 533.702 155.141 532.898 155.513 532.214C155.885 531.53 156.407 530.996 157.079 530.612C157.763 530.228 158.549 530.036 159.437 530.036C160.337 530.036 161.123 530.228 161.795 530.612C162.467 530.996 162.989 531.53 163.361 532.214C163.745 532.898 163.937 533.702 163.937 534.626C163.937 535.538 163.745 536.336 163.361 537.02C162.989 537.704 162.467 538.238 161.795 538.622C161.123 538.994 160.337 539.18 159.437 539.18ZM159.437 537.452C160.241 537.452 160.883 537.194 161.363 536.678C161.855 536.15 162.101 535.466 162.101 534.626C162.101 533.774 161.855 533.084 161.363 532.556C160.883 532.028 160.241 531.764 159.437 531.764C158.645 531.764 158.003 532.028 157.511 532.556C157.031 533.072 156.791 533.756 156.791 534.608C156.791 535.46 157.031 536.15 157.511 536.678C158.003 537.194 158.645 537.452 159.437 537.452ZM171.199 530.036C171.823 530.036 172.315 530.144 172.675 530.36C173.035 530.564 173.299 530.846 173.467 531.206C173.635 531.554 173.743 531.95 173.791 532.394C173.839 532.838 173.863 533.294 173.863 533.762V539H172.063V533.384C172.063 532.76 171.919 532.34 171.631 532.124C171.355 531.908 171.025 531.8 170.641 531.8C170.257 531.8 169.867 531.878 169.471 532.034C169.075 532.19 168.721 532.4 168.409 532.664C168.097 532.928 167.857 533.222 167.689 533.546V532.538H167.977V539H166.177V530.216H167.545L167.923 531.764L167.473 531.818C167.809 531.434 168.175 531.11 168.571 530.846C168.967 530.582 169.387 530.384 169.831 530.252C170.275 530.108 170.731 530.036 171.199 530.036ZM179.367 537.884C179.367 538.52 179.157 539.18 178.737 539.864C178.329 540.56 177.711 541.19 176.883 541.754L176.325 541.232C176.709 540.872 177.003 540.458 177.207 539.99C177.423 539.522 177.531 539.144 177.531 538.856C177.531 538.292 177.405 537.86 177.153 537.56C176.901 537.26 176.625 537.032 176.325 536.876C176.457 536.672 176.589 536.516 176.721 536.408C176.865 536.288 177.027 536.204 177.207 536.156C177.387 536.096 177.585 536.066 177.801 536.066C178.077 536.066 178.335 536.144 178.575 536.3C178.815 536.444 179.007 536.654 179.151 536.93C179.295 537.194 179.367 537.512 179.367 537.884ZM190.982 539.18C190.13 539.18 189.386 538.928 188.75 538.424C188.126 537.92 187.646 537.2 187.31 536.264C186.974 535.316 186.806 534.188 186.806 532.88C186.806 531.584 186.974 530.468 187.31 529.532C187.646 528.584 188.126 527.858 188.75 527.354C189.386 526.838 190.13 526.58 190.982 526.58C191.846 526.58 192.59 526.838 193.214 527.354C193.838 527.858 194.318 528.584 194.654 529.532C194.99 530.468 195.158 531.584 195.158 532.88C195.158 534.188 194.99 535.316 194.654 536.264C194.318 537.2 193.838 537.92 193.214 538.424C192.59 538.928 191.846 539.18 190.982 539.18ZM190.982 537.452C191.534 537.452 191.978 537.254 192.314 536.858C192.662 536.45 192.92 535.898 193.088 535.202C193.256 534.506 193.34 533.732 193.34 532.88C193.34 532.112 193.256 531.38 193.088 530.684C192.92 529.988 192.662 529.418 192.314 528.974C191.978 528.53 191.534 528.308 190.982 528.308C190.418 528.308 189.956 528.53 189.596 528.974C189.248 529.418 188.996 529.988 188.84 530.684C188.684 531.38 188.606 532.112 188.606 532.88C188.606 533.732 188.684 534.506 188.84 535.202C188.996 535.898 189.248 536.45 189.596 536.858C189.956 537.254 190.418 537.452 190.982 537.452ZM201.171 539.18C200.319 539.18 199.599 539.024 199.011 538.712C198.423 538.4 197.979 537.986 197.679 537.47C197.379 536.942 197.229 536.372 197.229 535.76C197.229 535.1 197.367 534.536 197.643 534.068C197.919 533.6 198.297 533.222 198.777 532.934C199.257 532.634 199.803 532.424 200.415 532.304V533.186C199.875 533.054 199.395 532.838 198.975 532.538C198.555 532.238 198.225 531.866 197.985 531.422C197.745 530.978 197.625 530.474 197.625 529.91C197.625 529.238 197.769 528.656 198.057 528.164C198.357 527.66 198.771 527.27 199.299 526.994C199.839 526.718 200.475 526.58 201.207 526.58C201.915 526.58 202.533 526.718 203.061 526.994C203.589 527.27 203.997 527.66 204.285 528.164C204.573 528.656 204.717 529.238 204.717 529.91C204.717 530.414 204.615 530.876 204.411 531.296C204.219 531.716 203.943 532.076 203.583 532.376C203.235 532.676 202.827 532.904 202.359 533.06L202.341 532.394C202.893 532.538 203.373 532.76 203.781 533.06C204.201 533.36 204.525 533.738 204.753 534.194C204.993 534.638 205.113 535.16 205.113 535.76C205.113 536.372 204.963 536.942 204.663 537.47C204.363 537.986 203.919 538.4 203.331 538.712C202.743 539.024 202.023 539.18 201.171 539.18ZM201.171 537.416C201.807 537.416 202.317 537.236 202.701 536.876C203.097 536.516 203.295 536.042 203.295 535.454C203.295 534.83 203.097 534.332 202.701 533.96C202.317 533.588 201.807 533.402 201.171 533.402C200.535 533.402 200.019 533.588 199.623 533.96C199.239 534.332 199.047 534.83 199.047 535.454C199.047 536.042 199.239 536.516 199.623 536.876C200.019 537.236 200.535 537.416 201.171 537.416ZM201.171 531.71C201.699 531.71 202.137 531.548 202.485 531.224C202.833 530.888 203.007 530.474 203.007 529.982C203.007 529.514 202.833 529.124 202.485 528.812C202.137 528.5 201.699 528.344 201.171 528.344C200.655 528.344 200.217 528.5 199.857 528.812C199.509 529.124 199.335 529.514 199.335 529.982C199.335 530.474 199.509 530.888 199.857 531.224C200.217 531.548 200.655 531.71 201.171 531.71ZM208.915 539.09C208.663 539.09 208.429 539.024 208.213 538.892C207.997 538.76 207.823 538.586 207.691 538.37C207.559 538.154 207.493 537.92 207.493 537.668C207.493 537.404 207.559 537.17 207.691 536.966C207.823 536.75 207.997 536.576 208.213 536.444C208.429 536.312 208.663 536.246 208.915 536.246C209.179 536.246 209.419 536.312 209.635 536.444C209.851 536.576 210.025 536.75 210.157 536.966C210.289 537.17 210.355 537.404 210.355 537.668C210.355 537.92 210.289 538.154 210.157 538.37C210.025 538.586 209.851 538.76 209.635 538.892C209.419 539.024 209.179 539.09 208.915 539.09ZM208.915 533.06C208.663 533.06 208.429 532.994 208.213 532.862C207.997 532.73 207.823 532.556 207.691 532.34C207.559 532.124 207.493 531.89 207.493 531.638C207.493 531.374 207.559 531.14 207.691 530.936C207.823 530.72 207.997 530.546 208.213 530.414C208.429 530.282 208.663 530.216 208.915 530.216C209.179 530.216 209.419 530.282 209.635 530.414C209.851 530.546 210.025 530.72 210.157 530.936C210.289 531.14 210.355 531.374 210.355 531.638C210.355 531.89 210.289 532.124 210.157 532.34C210.025 532.556 209.851 532.73 209.635 532.862C209.419 532.994 209.179 533.06 208.915 533.06ZM216.737 539.18C215.885 539.18 215.141 538.928 214.505 538.424C213.881 537.92 213.401 537.2 213.065 536.264C212.729 535.316 212.561 534.188 212.561 532.88C212.561 531.584 212.729 530.468 213.065 529.532C213.401 528.584 213.881 527.858 214.505 527.354C215.141 526.838 215.885 526.58 216.737 526.58C217.601 526.58 218.345 526.838 218.969 527.354C219.593 527.858 220.073 528.584 220.409 529.532C220.745 530.468 220.913 531.584 220.913 532.88C220.913 534.188 220.745 535.316 220.409 536.264C220.073 537.2 219.593 537.92 218.969 538.424C218.345 538.928 217.601 539.18 216.737 539.18ZM216.737 537.452C217.289 537.452 217.733 537.254 218.069 536.858C218.417 536.45 218.675 535.898 218.843 535.202C219.011 534.506 219.095 533.732 219.095 532.88C219.095 532.112 219.011 531.38 218.843 530.684C218.675 529.988 218.417 529.418 218.069 528.974C217.733 528.53 217.289 528.308 216.737 528.308C216.173 528.308 215.711 528.53 215.351 528.974C215.003 529.418 214.751 529.988 214.595 530.684C214.439 531.38 214.361 532.112 214.361 532.88C214.361 533.732 214.439 534.506 214.595 535.202C214.751 535.898 215.003 536.45 215.351 536.858C215.711 537.254 216.173 537.452 216.737 537.452ZM226.997 539.18C226.145 539.18 225.401 538.928 224.765 538.424C224.141 537.92 223.661 537.2 223.325 536.264C222.989 535.316 222.821 534.188 222.821 532.88C222.821 531.584 222.989 530.468 223.325 529.532C223.661 528.584 224.141 527.858 224.765 527.354C225.401 526.838 226.145 526.58 226.997 526.58C227.861 526.58 228.605 526.838 229.229 527.354C229.853 527.858 230.333 528.584 230.669 529.532C231.005 530.468 231.173 531.584 231.173 532.88C231.173 534.188 231.005 535.316 230.669 536.264C230.333 537.2 229.853 537.92 229.229 538.424C228.605 538.928 227.861 539.18 226.997 539.18ZM226.997 537.452C227.549 537.452 227.993 537.254 228.329 536.858C228.677 536.45 228.935 535.898 229.103 535.202C229.271 534.506 229.355 533.732 229.355 532.88C229.355 532.112 229.271 531.38 229.103 530.684C228.935 529.988 228.677 529.418 228.329 528.974C227.993 528.53 227.549 528.308 226.997 528.308C226.433 528.308 225.971 528.53 225.611 528.974C225.263 529.418 225.011 529.988 224.855 530.684C224.699 531.38 224.621 532.112 224.621 532.88C224.621 533.732 224.699 534.506 224.855 535.202C225.011 535.898 225.263 536.45 225.611 536.858C225.971 537.254 226.433 537.452 226.997 537.452ZM240.62 533.348H243.158C243.95 533.348 244.586 533.132 245.066 532.7C245.546 532.268 245.786 531.668 245.786 530.9C245.786 530.084 245.546 529.472 245.066 529.064C244.598 528.644 243.968 528.434 243.176 528.434H240.62L240.944 528.02V539H239.144V526.742H243.482C244.322 526.742 245.054 526.928 245.678 527.3C246.302 527.672 246.788 528.17 247.136 528.794C247.484 529.418 247.658 530.12 247.658 530.9C247.658 531.668 247.484 532.37 247.136 533.006C246.788 533.63 246.296 534.128 245.66 534.5C245.036 534.86 244.304 535.04 243.464 535.04H240.62V533.348ZM249.384 539L251.634 526.742H253.236L256.602 535.688H256.656L260.022 526.742H261.624L263.874 539H261.984L260.994 533.168C260.85 532.328 260.73 531.5 260.634 530.684C260.538 529.856 260.478 529.028 260.454 528.2H260.904C260.688 529.196 260.46 530.072 260.22 530.828C259.992 531.584 259.728 532.364 259.428 533.168L257.322 538.802H255.936L253.83 533.168C253.53 532.352 253.26 531.572 253.02 530.828C252.792 530.072 252.57 529.196 252.354 528.2H252.804C252.78 529.028 252.72 529.856 252.624 530.684C252.528 531.5 252.408 532.328 252.264 533.168L251.274 539H249.384ZM276.289 534.644H270.889V532.952H276.289V534.644ZM287.52 539.18C286.668 539.18 285.924 538.928 285.288 538.424C284.664 537.92 284.184 537.2 283.848 536.264C283.512 535.316 283.344 534.188 283.344 532.88C283.344 531.584 283.512 530.468 283.848 529.532C284.184 528.584 284.664 527.858 285.288 527.354C285.924 526.838 286.668 526.58 287.52 526.58C288.384 526.58 289.128 526.838 289.752 527.354C290.376 527.858 290.856 528.584 291.192 529.532C291.528 530.468 291.696 531.584 291.696 532.88C291.696 534.188 291.528 535.316 291.192 536.264C290.856 537.2 290.376 537.92 289.752 538.424C289.128 538.928 288.384 539.18 287.52 539.18ZM287.52 537.452C288.072 537.452 288.516 537.254 288.852 536.858C289.2 536.45 289.458 535.898 289.626 535.202C289.794 534.506 289.878 533.732 289.878 532.88C289.878 532.112 289.794 531.38 289.626 530.684C289.458 529.988 289.2 529.418 288.852 528.974C288.516 528.53 288.072 528.308 287.52 528.308C286.956 528.308 286.494 528.53 286.134 528.974C285.786 529.418 285.534 529.988 285.378 530.684C285.222 531.38 285.144 532.112 285.144 532.88C285.144 533.732 285.222 534.506 285.378 535.202C285.534 535.898 285.786 536.45 286.134 536.858C286.494 537.254 286.956 537.452 287.52 537.452ZM295.836 528.632L296.502 528.902C296.418 529.13 296.262 529.352 296.034 529.568C295.806 529.784 295.494 529.964 295.098 530.108C294.702 530.252 294.204 530.324 293.604 530.324V528.596C294.12 528.596 294.564 528.524 294.936 528.38C295.308 528.224 295.614 528.008 295.854 527.732C296.106 527.444 296.292 527.114 296.412 526.742H297.636V539H295.836V528.632ZM302.112 539.09C301.86 539.09 301.626 539.024 301.41 538.892C301.194 538.76 301.02 538.586 300.888 538.37C300.756 538.154 300.69 537.92 300.69 537.668C300.69 537.404 300.756 537.17 300.888 536.966C301.02 536.75 301.194 536.576 301.41 536.444C301.626 536.312 301.86 536.246 302.112 536.246C302.376 536.246 302.616 536.312 302.832 536.444C303.048 536.576 303.222 536.75 303.354 536.966C303.486 537.17 303.552 537.404 303.552 537.668C303.552 537.92 303.486 538.154 303.354 538.37C303.222 538.586 303.048 538.76 302.832 538.892C302.616 539.024 302.376 539.09 302.112 539.09ZM302.112 533.06C301.86 533.06 301.626 532.994 301.41 532.862C301.194 532.73 301.02 532.556 300.888 532.34C300.756 532.124 300.69 531.89 300.69 531.638C300.69 531.374 300.756 531.14 300.888 530.936C301.02 530.72 301.194 530.546 301.41 530.414C301.626 530.282 301.86 530.216 302.112 530.216C302.376 530.216 302.616 530.282 302.832 530.414C303.048 530.546 303.222 530.72 303.354 530.936C303.486 531.14 303.552 531.374 303.552 531.638C303.552 531.89 303.486 532.124 303.354 532.34C303.222 532.556 303.048 532.73 302.832 532.862C302.616 532.994 302.376 533.06 302.112 533.06ZM315.15 539.18C314.298 539.18 313.554 538.928 312.918 538.424C312.294 537.92 311.814 537.2 311.478 536.264C311.142 535.316 310.974 534.188 310.974 532.88C310.974 531.584 311.142 530.468 311.478 529.532C311.814 528.584 312.294 527.858 312.918 527.354C313.554 526.838 314.298 526.58 315.15 526.58C316.014 526.58 316.758 526.838 317.382 527.354C318.006 527.858 318.486 528.584 318.822 529.532C319.158 530.468 319.326 531.584 319.326 532.88C319.326 534.188 319.158 535.316 318.822 536.264C318.486 537.2 318.006 537.92 317.382 538.424C316.758 538.928 316.014 539.18 315.15 539.18ZM315.15 537.452C315.702 537.452 316.146 537.254 316.482 536.858C316.83 536.45 317.088 535.898 317.256 535.202C317.424 534.506 317.508 533.732 317.508 532.88C317.508 532.112 317.424 531.38 317.256 530.684C317.088 529.988 316.83 529.418 316.482 528.974C316.146 528.53 315.702 528.308 315.15 528.308C314.586 528.308 314.124 528.53 313.764 528.974C313.416 529.418 313.164 529.988 313.008 530.684C312.852 531.38 312.774 532.112 312.774 532.88C312.774 533.732 312.852 534.506 313.008 535.202C313.164 535.898 313.416 536.45 313.764 536.858C314.124 537.254 314.586 537.452 315.15 537.452ZM325.411 539.18C324.559 539.18 323.815 538.928 323.179 538.424C322.555 537.92 322.075 537.2 321.739 536.264C321.403 535.316 321.235 534.188 321.235 532.88C321.235 531.584 321.403 530.468 321.739 529.532C322.075 528.584 322.555 527.858 323.179 527.354C323.815 526.838 324.559 526.58 325.411 526.58C326.275 526.58 327.019 526.838 327.643 527.354C328.267 527.858 328.747 528.584 329.083 529.532C329.419 530.468 329.587 531.584 329.587 532.88C329.587 534.188 329.419 535.316 329.083 536.264C328.747 537.2 328.267 537.92 327.643 538.424C327.019 538.928 326.275 539.18 325.411 539.18ZM325.411 537.452C325.963 537.452 326.407 537.254 326.743 536.858C327.091 536.45 327.349 535.898 327.517 535.202C327.685 534.506 327.769 533.732 327.769 532.88C327.769 532.112 327.685 531.38 327.517 530.684C327.349 529.988 327.091 529.418 326.743 528.974C326.407 528.53 325.963 528.308 325.411 528.308C324.847 528.308 324.385 528.53 324.025 528.974C323.677 529.418 323.425 529.988 323.269 530.684C323.113 531.38 323.035 532.112 323.035 532.88C323.035 533.732 323.113 534.506 323.269 535.202C323.425 535.898 323.677 536.45 324.025 536.858C324.385 537.254 324.847 537.452 325.411 537.452ZM338.691 534.446H345.297V536.138H338.691V534.446ZM336.387 539L340.761 526.742H343.209L347.583 539H345.747L341.823 528.002H342.147L338.223 539H336.387ZM349.133 539L351.383 526.742H352.985L356.351 535.688H356.405L359.771 526.742H361.373L363.623 539H361.733L360.743 533.168C360.599 532.328 360.479 531.5 360.383 530.684C360.287 529.856 360.227 529.028 360.203 528.2H360.653C360.437 529.196 360.209 530.072 359.969 530.828C359.741 531.584 359.477 532.364 359.177 533.168L357.071 538.802H355.685L353.579 533.168C353.279 532.352 353.009 531.572 352.769 530.828C352.541 530.072 352.319 529.196 352.103 528.2H352.553C352.529 529.028 352.469 529.856 352.373 530.684C352.277 531.5 352.157 532.328 352.013 533.168L351.023 539H349.133Z" fill="#040171"/>
<path d="M147.732 570.18C146.496 570.18 145.41 569.91 144.474 569.37C143.55 568.818 142.83 568.068 142.314 567.12C141.798 566.16 141.54 565.08 141.54 563.88C141.54 562.968 141.696 562.128 142.008 561.36C142.32 560.592 142.752 559.926 143.304 559.362C143.868 558.798 144.522 558.36 145.266 558.048C146.022 557.736 146.844 557.58 147.732 557.58C149.124 557.58 150.264 557.868 151.152 558.444C152.04 559.008 152.766 559.77 153.33 560.73L151.566 561.252C151.014 560.496 150.42 559.986 149.784 559.722C149.16 559.446 148.476 559.308 147.732 559.308C146.904 559.308 146.16 559.506 145.5 559.902C144.852 560.298 144.336 560.838 143.952 561.522C143.568 562.206 143.376 562.992 143.376 563.88C143.376 564.756 143.568 565.542 143.952 566.238C144.336 566.922 144.852 567.462 145.5 567.858C146.16 568.254 146.904 568.452 147.732 568.452C148.476 568.452 149.16 568.32 149.784 568.056C150.42 567.78 151.014 567.264 151.566 566.508L153.33 567.03C152.766 567.99 152.04 568.758 151.152 569.334C150.264 569.898 149.124 570.18 147.732 570.18ZM159.256 570.18C158.368 570.18 157.582 569.994 156.898 569.622C156.226 569.238 155.704 568.704 155.332 568.02C154.96 567.336 154.774 566.538 154.774 565.626C154.774 564.702 154.96 563.898 155.332 563.214C155.704 562.53 156.226 561.996 156.898 561.612C157.582 561.228 158.368 561.036 159.256 561.036C160.156 561.036 160.942 561.228 161.614 561.612C162.286 561.996 162.808 562.53 163.18 563.214C163.564 563.898 163.756 564.702 163.756 565.626C163.756 566.538 163.564 567.336 163.18 568.02C162.808 568.704 162.286 569.238 161.614 569.622C160.942 569.994 160.156 570.18 159.256 570.18ZM159.256 568.452C160.06 568.452 160.702 568.194 161.182 567.678C161.674 567.15 161.92 566.466 161.92 565.626C161.92 564.774 161.674 564.084 161.182 563.556C160.702 563.028 160.06 562.764 159.256 562.764C158.464 562.764 157.822 563.028 157.33 563.556C156.85 564.072 156.61 564.756 156.61 565.608C156.61 566.46 156.85 567.15 157.33 567.678C157.822 568.194 158.464 568.452 159.256 568.452ZM171.018 561.036C171.642 561.036 172.134 561.144 172.494 561.36C172.854 561.564 173.118 561.846 173.286 562.206C173.454 562.554 173.562 562.95 173.61 563.394C173.658 563.838 173.682 564.294 173.682 564.762V570H171.882V564.384C171.882 563.76 171.738 563.34 171.45 563.124C171.174 562.908 170.844 562.8 170.46 562.8C170.076 562.8 169.686 562.878 169.29 563.034C168.894 563.19 168.54 563.4 168.228 563.664C167.916 563.928 167.676 564.222 167.508 564.546V563.538H167.796V570H165.996V561.216H167.364L167.742 562.764L167.292 562.818C167.628 562.434 167.994 562.11 168.39 561.846C168.786 561.582 169.206 561.384 169.65 561.252C170.094 561.108 170.55 561.036 171.018 561.036ZM180.232 570.18C179.332 570.18 178.552 569.988 177.892 569.604C177.232 569.208 176.722 568.668 176.362 567.984C176.002 567.3 175.822 566.508 175.822 565.608C175.822 564.708 176.002 563.916 176.362 563.232C176.722 562.548 177.232 562.014 177.892 561.63C178.552 561.234 179.332 561.036 180.232 561.036C181.084 561.036 181.858 561.27 182.554 561.738C183.25 562.194 183.754 562.806 184.066 563.574L182.356 564.294C182.164 563.79 181.876 563.412 181.492 563.16C181.108 562.896 180.67 562.764 180.178 562.764C179.458 562.764 178.858 563.016 178.378 563.52C177.898 564.012 177.658 564.708 177.658 565.608C177.658 566.508 177.898 567.21 178.378 567.714C178.858 568.206 179.458 568.452 180.178 568.452C180.67 568.452 181.108 568.326 181.492 568.074C181.876 567.81 182.164 567.426 182.356 566.922L184.066 567.642C183.742 568.41 183.232 569.028 182.536 569.496C181.852 569.952 181.084 570.18 180.232 570.18ZM189.734 570.18C188.882 570.18 188.132 569.994 187.484 569.622C186.836 569.238 186.332 568.704 185.972 568.02C185.612 567.336 185.432 566.538 185.432 565.626C185.432 564.702 185.612 563.898 185.972 563.214C186.332 562.53 186.836 561.996 187.484 561.612C188.132 561.228 188.882 561.036 189.734 561.036C190.598 561.036 191.354 561.228 192.002 561.612C192.65 561.996 193.154 562.53 193.514 563.214C193.874 563.898 194.054 564.702 194.054 565.626C194.054 565.71 194.048 565.8 194.036 565.896C194.036 565.98 194.03 566.058 194.018 566.13H187.142V564.582H192.722L192.218 565.626C192.218 564.714 192.014 563.964 191.606 563.376C191.198 562.788 190.574 562.494 189.734 562.494C188.99 562.494 188.396 562.734 187.952 563.214C187.508 563.682 187.286 564.3 187.286 565.068V566.004C187.286 566.808 187.502 567.45 187.934 567.93C188.366 568.398 188.966 568.632 189.734 568.632C190.442 568.632 190.988 568.482 191.372 568.182C191.756 567.882 192.092 567.51 192.38 567.066L193.73 567.912C193.322 568.668 192.794 569.238 192.146 569.622C191.51 569.994 190.706 570.18 189.734 570.18ZM197.654 561.216L198.086 563.592V570H196.286V561.216H197.654ZM197.816 564.33L197.384 564.132V562.818L197.546 562.62C197.666 562.404 197.852 562.176 198.104 561.936C198.368 561.684 198.674 561.474 199.022 561.306C199.37 561.126 199.724 561.036 200.084 561.036C200.264 561.036 200.432 561.048 200.588 561.072C200.756 561.096 200.882 561.138 200.966 561.198V562.818H200.408C199.592 562.818 198.998 562.944 198.626 563.196C198.254 563.436 197.984 563.814 197.816 564.33ZM206.446 570.162C205.678 570.162 205.066 569.94 204.61 569.496C204.166 569.04 203.944 568.338 203.944 567.39V561.324V561.216L204.286 559.236H205.744V567.426C205.744 567.762 205.828 568.014 205.996 568.182C206.176 568.35 206.398 568.434 206.662 568.434C206.866 568.434 207.046 568.422 207.202 568.398C207.358 568.374 207.496 568.344 207.616 568.308V569.982C207.46 570.03 207.286 570.072 207.094 570.108C206.914 570.144 206.698 570.162 206.446 570.162ZM202.594 562.872V561.216H207.616V562.872H202.594ZM213.023 570.18C212.411 570.18 211.805 570.036 211.205 569.748C210.617 569.46 210.131 568.968 209.747 568.272L211.115 567.372C211.451 567.816 211.769 568.14 212.069 568.344C212.369 568.536 212.759 568.632 213.239 568.632C213.623 568.632 213.917 568.536 214.121 568.344C214.337 568.14 214.445 567.894 214.445 567.606C214.445 567.414 214.391 567.246 214.283 567.102C214.187 566.958 214.013 566.826 213.761 566.706C213.509 566.574 213.149 566.448 212.681 566.328C211.817 566.1 211.151 565.8 210.683 565.428C210.215 565.056 209.981 564.468 209.981 563.664C209.981 563.184 210.101 562.746 210.341 562.35C210.581 561.954 210.929 561.636 211.385 561.396C211.841 561.156 212.381 561.036 213.005 561.036C213.749 561.036 214.385 561.192 214.913 561.504C215.441 561.804 215.855 562.164 216.155 562.584L214.769 563.61C214.601 563.394 214.355 563.184 214.031 562.98C213.707 562.764 213.299 562.656 212.807 562.656C212.507 562.656 212.231 562.74 211.979 562.908C211.727 563.076 211.601 563.31 211.601 563.61C211.601 563.91 211.715 564.156 211.943 564.348C212.183 564.528 212.615 564.69 213.239 564.834C214.295 565.086 215.045 565.416 215.489 565.824C215.933 566.22 216.155 566.748 216.155 567.408C216.155 567.984 216.005 568.482 215.705 568.902C215.417 569.31 215.033 569.628 214.553 569.856C214.085 570.072 213.575 570.18 213.023 570.18Z" fill="#525151"/>
<path d="M61.0058 529.632L61.6718 529.902C61.5878 530.13 61.4318 530.352 61.2038 530.568C60.9758 530.784 60.6638 530.964 60.2678 531.108C59.8718 531.252 59.3738 531.324 58.7738 531.324V529.596C59.2898 529.596 59.7338 529.524 60.1058 529.38C60.4778 529.224 60.7838 529.008 61.0238 528.732C61.2758 528.444 61.4618 528.114 61.5818 527.742H62.8058V540H61.0058V529.632ZM69.1181 540.18C68.2661 540.18 67.5461 540.024 66.9581 539.712C66.3701 539.4 65.9261 538.986 65.6261 538.47C65.3261 537.942 65.1761 537.372 65.1761 536.76C65.1761 536.1 65.3141 535.536 65.5901 535.068C65.8661 534.6 66.2441 534.222 66.7241 533.934C67.2041 533.634 67.7501 533.424 68.3621 533.304V534.186C67.8221 534.054 67.3421 533.838 66.9221 533.538C66.5021 533.238 66.1721 532.866 65.9321 532.422C65.6921 531.978 65.5721 531.474 65.5721 530.91C65.5721 530.238 65.7161 529.656 66.0041 529.164C66.3041 528.66 66.7181 528.27 67.2461 527.994C67.7861 527.718 68.4221 527.58 69.1541 527.58C69.8621 527.58 70.4801 527.718 71.0081 527.994C71.5361 528.27 71.9441 528.66 72.2321 529.164C72.5201 529.656 72.6641 530.238 72.6641 530.91C72.6641 531.414 72.5621 531.876 72.3581 532.296C72.1661 532.716 71.8901 533.076 71.5301 533.376C71.1821 533.676 70.7741 533.904 70.3061 534.06L70.2881 533.394C70.8401 533.538 71.3201 533.76 71.7281 534.06C72.1481 534.36 72.4721 534.738 72.7001 535.194C72.9401 535.638 73.0601 536.16 73.0601 536.76C73.0601 537.372 72.9101 537.942 72.6101 538.47C72.3101 538.986 71.8661 539.4 71.2781 539.712C70.6901 540.024 69.9701 540.18 69.1181 540.18ZM69.1181 538.416C69.7541 538.416 70.2641 538.236 70.6481 537.876C71.0441 537.516 71.2421 537.042 71.2421 536.454C71.2421 535.83 71.0441 535.332 70.6481 534.96C70.2641 534.588 69.7541 534.402 69.1181 534.402C68.4821 534.402 67.9661 534.588 67.5701 534.96C67.1861 535.332 66.9941 535.83 66.9941 536.454C66.9941 537.042 67.1861 537.516 67.5701 537.876C67.9661 538.236 68.4821 538.416 69.1181 538.416ZM69.1181 532.71C69.6461 532.71 70.0841 532.548 70.4321 532.224C70.7801 531.888 70.9541 531.474 70.9541 530.982C70.9541 530.514 70.7801 530.124 70.4321 529.812C70.0841 529.5 69.6461 529.344 69.1181 529.344C68.6021 529.344 68.1641 529.5 67.8041 529.812C67.4561 530.124 67.2821 530.514 67.2821 530.982C67.2821 531.474 67.4561 531.888 67.8041 532.224C68.1641 532.548 68.6021 532.71 69.1181 532.71ZM53.4155 562.27C52.7795 562.27 52.1615 562.174 51.5615 561.982C50.9735 561.79 50.4335 561.478 49.9415 561.046C49.4495 560.602 49.0355 560.002 48.6995 559.246L50.1935 558.4C50.6135 559.156 51.0755 559.702 51.5795 560.038C52.0835 560.374 52.7135 560.542 53.4695 560.542C54.2015 560.542 54.7535 560.38 55.1255 560.056C55.5095 559.732 55.7015 559.288 55.7015 558.724C55.7015 558.388 55.6175 558.094 55.4495 557.842C55.2935 557.59 55.0115 557.356 54.6035 557.14C54.1955 556.924 53.6195 556.726 52.8755 556.546C51.9395 556.306 51.2075 556.012 50.6795 555.664C50.1635 555.304 49.8035 554.896 49.5995 554.44C49.3955 553.972 49.2935 553.468 49.2935 552.928C49.2935 552.256 49.4495 551.674 49.7615 551.182C50.0735 550.678 50.5235 550.288 51.1115 550.012C51.6995 549.724 52.3955 549.58 53.1995 549.58C54.1595 549.58 54.9515 549.766 55.5755 550.138C56.1995 550.498 56.7275 550.996 57.1595 551.632L55.6475 552.604C55.2755 552.148 54.8855 551.824 54.4775 551.632C54.0815 551.428 53.6555 551.326 53.1995 551.326C52.5035 551.326 51.9695 551.464 51.5975 551.74C51.2375 552.016 51.0575 552.412 51.0575 552.928C51.0575 553.372 51.2255 553.756 51.5615 554.08C51.9095 554.404 52.5815 554.686 53.5775 554.926C54.5855 555.178 55.3715 555.478 55.9355 555.826C56.5115 556.162 56.9135 556.57 57.1415 557.05C57.3815 557.518 57.5015 558.082 57.5015 558.742C57.5015 559.402 57.3335 559.996 56.9975 560.524C56.6615 561.052 56.1875 561.478 55.5755 561.802C54.9635 562.114 54.2435 562.27 53.4155 562.27ZM62.6523 562.18C61.8003 562.18 61.0503 561.994 60.4023 561.622C59.7543 561.238 59.2503 560.704 58.8903 560.02C58.5303 559.336 58.3503 558.538 58.3503 557.626C58.3503 556.702 58.5303 555.898 58.8903 555.214C59.2503 554.53 59.7543 553.996 60.4023 553.612C61.0503 553.228 61.8003 553.036 62.6523 553.036C63.5163 553.036 64.2723 553.228 64.9203 553.612C65.5683 553.996 66.0723 554.53 66.4323 555.214C66.7923 555.898 66.9723 556.702 66.9723 557.626C66.9723 557.71 66.9663 557.8 66.9543 557.896C66.9543 557.98 66.9483 558.058 66.9363 558.13H60.0603V556.582H65.6403L65.1363 557.626C65.1363 556.714 64.9323 555.964 64.5243 555.376C64.1163 554.788 63.4923 554.494 62.6523 554.494C61.9083 554.494 61.3143 554.734 60.8703 555.214C60.4263 555.682 60.2043 556.3 60.2043 557.068V558.004C60.2043 558.808 60.4203 559.45 60.8523 559.93C61.2843 560.398 61.8843 560.632 62.6523 560.632C63.3603 560.632 63.9063 560.482 64.2903 560.182C64.6743 559.882 65.0103 559.51 65.2983 559.066L66.6483 559.912C66.2403 560.668 65.7123 561.238 65.0643 561.622C64.4283 561.994 63.6243 562.18 62.6523 562.18ZM73.1097 562.18C72.3177 562.18 71.6277 561.994 71.0397 561.622C70.4517 561.238 69.9897 560.704 69.6537 560.02C69.3297 559.336 69.1677 558.538 69.1677 557.626C69.1677 556.702 69.3297 555.898 69.6537 555.214C69.9897 554.53 70.4517 553.996 71.0397 553.612C71.6277 553.228 72.3177 553.036 73.1097 553.036C73.9257 553.036 74.6337 553.228 75.2337 553.612C75.8457 553.996 76.3197 554.53 76.6557 555.214C76.9917 555.898 77.1597 556.702 77.1597 557.626C77.1597 558.538 76.9917 559.336 76.6557 560.02C76.3197 560.704 75.8457 561.238 75.2337 561.622C74.6337 561.994 73.9257 562.18 73.1097 562.18ZM68.6637 565.42V553.216H70.0317L70.4637 554.98H70.2837V559.984H70.4637V565.42H68.6637ZM72.8397 560.632C73.5837 560.632 74.1837 560.356 74.6397 559.804C75.0957 559.252 75.3237 558.526 75.3237 557.626C75.3237 556.714 75.0957 555.982 74.6397 555.43C74.1837 554.866 73.5837 554.584 72.8397 554.584C72.1077 554.584 71.5137 554.86 71.0577 555.412C70.6017 555.964 70.3737 556.696 70.3737 557.608C70.3737 558.52 70.6017 559.252 71.0577 559.804C71.5137 560.356 72.1077 560.632 72.8397 560.632ZM81.8178 562.162C81.0498 562.162 80.4378 561.94 79.9818 561.496C79.5378 561.04 79.3158 560.338 79.3158 559.39V553.324V553.216L79.6578 551.236H81.1158V559.426C81.1158 559.762 81.1998 560.014 81.3678 560.182C81.5478 560.35 81.7698 560.434 82.0338 560.434C82.2378 560.434 82.4178 560.422 82.5738 560.398C82.7298 560.374 82.8678 560.344 82.9878 560.308V561.982C82.8318 562.03 82.6578 562.072 82.4658 562.108C82.2858 562.144 82.0698 562.162 81.8178 562.162ZM77.9658 554.872V553.216H82.9878V554.872H77.9658Z" fill="white"/>
<defs>
<filter id="filter0_d_3196_35" x="0" y="0" width="410" height="483" filterUnits="userSpaceOnUse" color-interpolation-filters="sRGB">
<feFlood flood-opacity="0" result="BackgroundImageFix"/>
<feColorMatrix in="SourceAlpha" type="matrix" values="0 0 0 0 0 0 0 0 0 0 0 0 0 0 0 0 0 0 127 0" result="hardAlpha"/>
<feOffset dy="4"/>
<feGaussianBlur stdDeviation="5"/>
<feComposite in2="hardAlpha" operator="out"/>
<feColorMatrix type="matrix" values="0 0 0 0 0 0 0 0 0 0 0 0 0 0 0 0 0 0 0.2 0"/>
<feBlend mode="normal" in2="BackgroundImageFix" result="effect1_dropShadow_3196_35"/>
<feBlend mode="normal" in="SourceGraphic" in2="effect1_dropShadow_3196_35" result="shape"/>
</filter>
<filter id="filter1_d_3196_35" x="0" y="492" width="410" height="114" filterUnits="userSpaceOnUse" color-interpolation-filters="sRGB">
<feFlood flood-opacity="0" result="BackgroundImageFix"/>
<feColorMatrix in="SourceAlpha" type="matrix" values="0 0 0 0 0 0 0 0 0 0 0 0 0 0 0 0 0 0 127 0" result="hardAlpha"/>
<feOffset dy="4"/>
<feGaussianBlur stdDeviation="5"/>
<feComposite in2="hardAlpha" operator="out"/>
<feColorMatrix type="matrix" values="0 0 0 0 0 0 0 0 0 0 0 0 0 0 0 0 0 0 0.2 0"/>
<feBlend mode="normal" in2="BackgroundImageFix" result="effect1_dropShadow_3196_35"/>
<feBlend mode="normal" in="SourceGraphic" in2="effect1_dropShadow_3196_35" result="shape"/>
</filter>
</defs>
</svg>
