<svg width="32" height="32" viewBox="0 0 32 32" fill="none" xmlns="http://www.w3.org/2000/svg">
<path d="M8.572 3.21743C8.7401 3.0168 8.82284 2.75825 8.80245 2.4973C8.78206 2.23635 8.66017 1.9938 8.46295 1.82171C8.26573 1.64962 8.0089 1.56172 7.74759 1.57687C7.48629 1.59203 7.24134 1.70903 7.06533 1.90276L5.34267 3.87609C4.36584 4.99552 3.81365 6.42272 3.78266 7.90809L3.70666 11.5334C3.70395 11.6647 3.72713 11.7953 3.77488 11.9177C3.82262 12.04 3.89401 12.1518 3.98494 12.2466C4.07588 12.3414 4.1846 12.4173 4.30489 12.4701C4.42518 12.5228 4.55468 12.5514 4.686 12.5541C4.81732 12.5568 4.94789 12.5336 5.07026 12.4859C5.19262 12.4381 5.30438 12.3668 5.39916 12.2758C5.49394 12.1849 5.56987 12.0762 5.62264 11.9559C5.6754 11.8356 5.70395 11.7061 5.70667 11.5748L5.78133 7.95076C5.80272 6.9344 6.18076 5.95791 6.84933 5.19209L8.572 3.21743Z" fill="#040171"/>
<path fill-rule="evenodd" clip-rule="evenodd" d="M8.316 10.2667C8.40555 8.84026 9.03536 7.50152 10.0772 6.52306C11.1191 5.54461 12.4947 4.99999 13.924 5.00008H14.6667V4.00008C14.6667 3.64646 14.8071 3.30732 15.0572 3.05727C15.3072 2.80722 15.6464 2.66675 16 2.66675C16.3536 2.66675 16.6928 2.80722 16.9428 3.05727C17.1929 3.30732 17.3333 3.64646 17.3333 4.00008V5.00008H18.076C19.5053 4.99999 20.8809 5.54461 21.9228 6.52306C22.9646 7.50152 23.5945 8.84026 23.684 10.2667L23.9787 14.9788C24.0926 16.775 24.6957 18.5059 25.7227 19.9841C25.9352 20.2895 26.065 20.6447 26.0995 21.0152C26.1341 21.3856 26.0722 21.7587 25.9199 22.0982C25.7675 22.4376 25.5299 22.7319 25.2302 22.9523C24.9304 23.1727 24.5788 23.3118 24.2093 23.3561L19.6667 23.9001V25.3334C19.6667 26.3059 19.2804 27.2385 18.5927 27.9261C17.9051 28.6138 16.9725 29.0001 16 29.0001C15.0275 29.0001 14.0949 28.6138 13.4073 27.9261C12.7196 27.2385 12.3333 26.3059 12.3333 25.3334V23.9001L7.79067 23.3548C7.42146 23.3104 7.07001 23.1712 6.77046 22.9509C6.47092 22.7305 6.23345 22.4365 6.08114 22.0972C5.92883 21.758 5.86685 21.3851 5.90123 21.0148C5.93561 20.6446 6.06518 20.2895 6.27734 19.9841C7.30433 18.5059 7.90743 16.775 8.02134 14.9788L8.316 10.2667ZM13.924 7.00008C13.0034 6.99997 12.1174 7.35071 11.4464 7.98089C10.7753 8.61108 10.3697 9.47332 10.312 10.3921L10.0187 15.1041C9.88158 17.2651 9.15582 19.3474 7.92 21.1254C7.90463 21.1475 7.89523 21.1732 7.89272 21.2C7.89021 21.2268 7.89467 21.2538 7.90568 21.2783C7.91668 21.3029 7.93385 21.3242 7.95552 21.3401C7.97719 21.3561 8.00262 21.3662 8.02934 21.3694L13.012 21.9681C14.9973 22.2054 17.0027 22.2054 18.988 21.9681L23.9707 21.3694C23.9974 21.3662 24.0228 21.3561 24.0445 21.3401C24.0662 21.3242 24.0833 21.3029 24.0943 21.2783C24.1053 21.2538 24.1098 21.2268 24.1073 21.2C24.1048 21.1732 24.0954 21.1475 24.08 21.1254C22.8447 19.3472 22.1194 17.2649 21.9827 15.1041L21.688 10.3921C21.6303 9.47332 21.2247 8.61108 20.5536 7.98089C19.8826 7.35071 18.9966 6.99997 18.076 7.00008H13.924ZM16 27.0001C15.08 27.0001 14.3333 26.2534 14.3333 25.3334V24.3334H17.6667V25.3334C17.6667 26.2534 16.92 27.0001 16 27.0001Z" fill="#040171"/>
<path d="M23.524 1.80669C23.3242 1.98105 23.2019 2.22761 23.1839 2.49214C23.1659 2.75668 23.2537 3.01754 23.428 3.21735L25.1507 5.19069C25.819 5.95704 26.1966 6.93403 26.2173 7.95069L26.2933 11.5734C26.2988 11.8386 26.4094 12.0907 26.6008 12.2744C26.7922 12.4581 27.0488 12.5582 27.314 12.5527C27.5792 12.5472 27.8314 12.4366 28.015 12.2452C28.1987 12.0538 28.2988 11.7972 28.2933 11.532L28.2173 7.90802C28.1863 6.42265 27.6342 4.99544 26.6573 3.87602L24.9347 1.90269C24.7603 1.70294 24.5137 1.58061 24.2492 1.56261C23.9847 1.54461 23.7238 1.6324 23.524 1.80669Z" fill="#040171"/>
</svg>
