<svg width="25" height="25" viewBox="0 0 25 25" fill="none" xmlns="http://www.w3.org/2000/svg">
<g clip-path="url(#clip0_3223_10)">
<path d="M7.3229 0.0873167C5.99269 0.149817 5.08436 0.362317 4.29165 0.673775C3.45802 0.989558 2.70307 1.48291 2.07915 2.11961C1.44508 2.74525 0.954593 3.50124 0.641653 4.33523C0.334361 5.13107 0.124986 6.04148 0.066653 7.37065C0.00831964 8.69982 -0.00522203 9.12898 0.00102797 12.5238C0.00727797 15.9186 0.022903 16.3436 0.0874863 17.6769C0.151028 19.0071 0.362486 19.9154 0.673945 20.7092C0.994778 21.5311 1.42394 22.2269 2.11978 22.9207C2.74602 23.555 3.50275 24.0455 4.33749 24.3582C5.13228 24.6654 6.04165 24.8748 7.37186 24.9332C8.70311 24.9915 9.13124 25.005 12.525 24.9988C15.9187 24.9925 16.3458 24.9769 17.6781 24.9134C19.0114 24.8509 19.9146 24.6373 20.7094 24.3269C21.5426 24.011 22.2972 23.5176 22.9208 22.8811C23.5551 22.2548 24.0456 21.4981 24.3583 20.6634C24.6656 19.8686 24.875 18.9592 24.9323 17.63C24.9906 16.2967 25.0052 15.8696 24.9979 12.4759C24.9917 9.08211 24.9771 8.65607 24.9135 7.32273C24.851 5.9894 24.6385 5.08523 24.326 4.29044C24.0104 3.45728 23.5174 2.7027 22.8812 2.07898C22.2553 1.44479 21.4989 0.954289 20.6646 0.641483C19.8687 0.335233 18.9604 0.124817 17.6292 0.0685667C16.2989 0.00919166 15.8708 -0.00643334 12.476 -0.000183339C9.08124 0.00606666 8.65624 0.0216917 7.3229 0.0873167ZM7.46874 22.6842C6.24999 22.6321 5.58853 22.429 5.1479 22.2592C4.60411 22.0605 4.11207 21.7418 3.70832 21.3269C3.29201 20.9249 2.97159 20.4343 2.77082 19.8915C2.59894 19.4509 2.39269 18.7894 2.33644 17.5707C2.27394 16.254 2.26144 15.8582 2.25311 12.5207C2.24686 9.18315 2.25936 8.78836 2.31665 7.47065C2.36874 6.25294 2.5729 5.59044 2.74165 5.14982C2.96665 4.56544 3.23853 4.14982 3.67394 3.71023C4.07626 3.2938 4.56724 2.97336 5.1104 2.77273C5.55103 2.60086 6.21144 2.39669 7.43019 2.33836C8.7479 2.27586 9.14269 2.26336 12.4802 2.25503C15.8167 2.24878 16.2125 2.26128 17.5323 2.31961C18.7489 2.37169 19.4114 2.57378 19.8521 2.74461C20.4354 2.96961 20.8521 3.2394 21.2917 3.6769C21.7312 4.1144 22.001 4.52794 22.2292 5.11232C22.401 5.5519 22.6062 6.21232 22.6635 7.43211C22.726 8.74982 22.7406 9.14565 22.7469 12.4821C22.7521 15.8186 22.7406 16.2144 22.6833 17.5321C22.6302 18.7509 22.4281 19.4123 22.2583 19.855C22.0333 20.4384 21.7614 20.855 21.325 21.2925C20.923 21.7088 20.4324 22.0293 19.8896 22.23C19.45 22.4019 18.7875 22.6071 17.5708 22.6654C16.2521 22.7279 15.8573 22.7404 12.5187 22.7477C9.18019 22.755 8.78749 22.7404 7.46874 22.6842ZM17.6594 5.81857C17.6598 6.11528 17.7482 6.40521 17.9134 6.65168C18.0786 6.89814 18.3132 7.09008 18.5875 7.2032C18.8618 7.31632 19.1635 7.34554 19.4544 7.28717C19.7453 7.22881 20.0124 7.08547 20.2219 6.8753C20.4313 6.66512 20.5737 6.39755 20.6311 6.10643C20.6884 5.81531 20.6582 5.51372 20.5441 5.23981C20.43 4.9659 20.2373 4.73197 19.9902 4.56761C19.7432 4.40326 19.4529 4.31587 19.1562 4.31648C18.7586 4.31731 18.3775 4.476 18.0969 4.75766C17.8162 5.03933 17.6588 5.42092 17.6594 5.81857ZM6.08228 12.5123C6.08559 14.2145 6.76498 15.8457 7.97097 17.047C9.17697 18.2483 10.8108 18.9214 12.513 18.918C14.2152 18.9147 15.8464 18.2353 17.0477 17.0294C18.249 15.8234 18.9221 14.1895 18.9187 12.4873C18.8942 10.7991 18.2055 9.1886 17.0018 8.00463C15.7982 6.82066 14.1765 6.1586 12.4882 6.16189C10.7998 6.16517 9.18073 6.83354 7.9817 8.02219C6.78267 9.21085 6.10025 10.8241 6.08228 12.5123ZM8.33332 12.5082C8.33167 11.6841 8.57443 10.878 9.0309 10.1919C9.48737 9.50576 10.137 8.97041 10.8978 8.65352C11.6585 8.33664 12.4961 8.25245 13.3047 8.4116C14.1133 8.57076 14.8565 8.96611 15.4404 9.54766C16.0242 10.1292 16.4226 10.8708 16.5849 11.6788C16.7473 12.4867 16.6665 13.3246 16.3527 14.0866C16.0388 14.8486 15.5061 15.5004 14.8218 15.9596C14.1375 16.4189 13.3324 16.6648 12.5083 16.6665C11.9611 16.6676 11.4191 16.5609 10.9132 16.3525C10.4072 16.1441 9.94728 15.8381 9.5596 15.452C9.17191 15.0659 8.86408 14.6071 8.65367 14.102C8.44327 13.5969 8.33441 13.0553 8.33332 12.5082Z" fill="white"/>
</g>
<defs>
<clipPath id="clip0_3223_10">
<rect width="25" height="25" fill="white"/>
</clipPath>
</defs>
</svg>
