<svg width="25" height="26" viewBox="0 0 25 26" fill="none" xmlns="http://www.w3.org/2000/svg">
<path d="M14.8438 19.25H3.125L3.12266 7.45781L12.0555 13.6422C12.1861 13.7326 12.3412 13.781 12.5 13.781C12.6588 13.781 12.8139 13.7326 12.9445 13.6422L21.875 7.46094V14.5625H23.4375V6.75C23.4369 6.33579 23.2721 5.93872 22.9792 5.64583C22.6863 5.35294 22.2892 5.18812 21.875 5.1875H3.125C2.7106 5.1875 2.31317 5.35212 2.02015 5.64515C1.72712 5.93817 1.5625 6.3356 1.5625 6.75V19.25C1.56312 19.6642 1.72794 20.0613 2.02083 20.3542C2.31372 20.6471 2.71079 20.8119 3.125 20.8125H14.8438V19.25ZM20.1555 6.75L12.5 12.05L4.84453 6.75H20.1555Z" fill="#6E6D6D"/>
<path d="M20.3125 22.375C22.0384 22.375 23.4375 20.9759 23.4375 19.25C23.4375 17.5241 22.0384 16.125 20.3125 16.125C18.5866 16.125 17.1875 17.5241 17.1875 19.25C17.1875 20.9759 18.5866 22.375 20.3125 22.375Z" fill="#6E6D6D"/>
</svg>
