<svg width="25" height="25" viewBox="0 0 25 25" fill="none" xmlns="http://www.w3.org/2000/svg">
<g clip-path="url(#clip0_3223_8)">
<path d="M24.9508 4.76017C24.0149 5.17107 23.0239 5.4427 22.0094 5.56642C23.0791 4.92463 23.8798 3.91679 24.2633 2.7297C23.2515 3.3162 22.1504 3.73292 21.0039 3.96329C20.2328 3.13943 19.2114 2.59308 18.0981 2.409C16.9848 2.22491 15.8419 2.41339 14.8467 2.9452C13.8515 3.477 13.0596 4.32239 12.5939 5.35021C12.1282 6.37803 12.0147 7.53081 12.2711 8.6297C8.01091 8.43048 4.23435 6.38361 1.70857 3.29142C1.24886 4.07339 1.00839 4.96481 1.01248 5.87189C1.01219 6.71507 1.21996 7.54531 1.61734 8.28898C2.01473 9.03265 2.58947 9.66679 3.2906 10.1352C2.47773 10.1111 1.68251 9.89225 0.971851 9.49689V9.55861C0.972044 10.7421 1.38121 11.8892 2.13008 12.8056C2.87894 13.722 3.9215 14.3515 5.08123 14.5875C4.64178 14.7046 4.18912 14.7647 3.73435 14.7664C3.40544 14.7664 3.09138 14.7344 2.7781 14.6766C3.1082 15.6951 3.74764 16.5854 4.6074 17.2235C5.46717 17.8616 6.50449 18.2158 7.57498 18.2367C5.7612 19.6571 3.52324 20.4276 1.21951 20.425C0.811464 20.4266 0.403694 20.4037 -0.00158691 20.3563C2.34856 21.8619 5.08154 22.6613 7.87263 22.6594C17.3 22.6594 22.4515 14.8508 22.4515 8.08829C22.4515 7.87267 22.4515 7.65314 22.4351 7.43282C23.4432 6.71102 24.3117 5.81204 24.9984 4.7797L24.9508 4.76017Z" fill="white"/>
</g>
<defs>
<clipPath id="clip0_3223_8">
<rect width="25" height="25" fill="white"/>
</clipPath>
</defs>
</svg>
