<svg width="25" height="25" viewBox="0 0 25 25" fill="none" xmlns="http://www.w3.org/2000/svg">
<path d="M10.3125 0H8.90625L7.96875 3.59375L7.03125 0H5.46875C5.78125 0.9375 6.09375 1.71875 6.40625 2.65625C6.875 3.90625 7.1875 5 7.1875 5.625V9.375H8.59375V5.625L10.3125 0ZM14.0625 7.03125V4.6875C14.0625 3.90625 13.9062 3.4375 13.5937 2.96875C13.2812 2.5 12.8125 2.34375 12.1875 2.34375C11.5625 2.34375 11.0938 2.65625 10.7813 3.125C10.4688 3.4375 10.3125 3.90625 10.3125 4.6875V7.1875C10.3125 7.96875 10.4688 8.4375 10.7813 8.75C11.0938 9.21875 11.5625 9.375 12.1875 9.375C12.8125 9.375 13.2812 9.0625 13.5937 8.59375C13.9062 8.4375 14.0625 7.8125 14.0625 7.03125ZM12.8125 7.34375C12.8125 7.96875 12.6563 8.28125 12.1875 8.28125C11.7188 8.28125 11.5625 7.96875 11.5625 7.34375V4.375C11.5625 3.75 11.7188 3.4375 12.1875 3.4375C12.6563 3.4375 12.8125 3.75 12.8125 4.375V7.34375ZM18.75 9.375V2.34375H17.5V7.65625C17.1875 8.125 17.0312 8.28125 16.7187 8.28125C16.5625 8.28125 16.4062 8.125 16.4062 7.96875V2.34375H15.1562V7.8125C15.1562 8.28125 15.1563 8.59375 15.3125 8.90625C15.3125 9.21875 15.625 9.375 16.0938 9.375C16.5625 9.375 17.0312 9.0625 17.5 8.59375V9.375H18.75ZM19.375 16.4062C18.9062 16.4062 18.75 16.7188 18.75 17.3438V17.9688H20V17.3438C20 16.7188 19.8437 16.4062 19.375 16.4062ZM14.8438 16.4062C14.6875 16.4062 14.375 16.5625 14.2188 16.7187V20.9375C14.375 21.0937 14.6875 21.25 14.8438 21.25C15.1563 21.25 15.3125 20.9375 15.3125 20.3125V17.3438C15.3125 16.7188 15.1563 16.4062 14.8438 16.4062Z" fill="white"/>
<path d="M22.5 12.9688C22.1875 11.875 21.25 10.9375 20.3125 10.9375C17.8125 10.625 15.1562 10.625 12.5 10.625C9.84375 10.625 7.34375 10.625 4.6875 10.9375C3.75 10.9375 2.8125 11.875 2.5 12.9688C2.1875 14.5312 2.1875 16.25 2.1875 17.8125C2.1875 19.375 2.1875 21.0937 2.5 22.6562C2.8125 23.75 3.59375 24.5312 4.6875 24.6875C7.34375 25 9.84375 25 12.5 25C15.1562 25 17.6563 25 20.3125 24.6875C21.4063 24.5312 22.3437 23.75 22.5 22.6562C22.8125 21.0937 22.8125 19.375 22.8125 17.8125C22.8125 16.25 22.8125 14.5312 22.5 12.9688ZM8.125 14.375H6.5625V22.3438H5.15625V14.375H3.75V12.9688H8.125V14.375ZM11.875 22.3438H10.625V21.5625C10.1563 22.1875 9.6875 22.3438 9.21875 22.3438C8.75 22.3438 8.59375 22.1875 8.4375 21.875C8.4375 21.7187 8.28125 21.4063 8.28125 20.7812V15.3125H9.53125V20.7812C9.53125 20.9375 9.6875 21.0937 9.84375 21.0937C10.1563 21.0937 10.3125 20.9375 10.625 20.4688V15.3125H11.875V22.3438ZM16.5625 20.1562C16.5625 20.7812 16.5625 21.25 16.4063 21.5625C16.25 22.0313 15.9375 22.3438 15.4688 22.3438C15 22.3438 14.5313 22.0313 14.2188 21.5625V22.1875H12.9688V12.9688H14.2188V15.9375C14.6875 15.4687 15 15.1562 15.4688 15.1562C15.9375 15.1562 16.25 15.4687 16.4063 15.9375C16.5625 16.25 16.5625 16.7188 16.5625 17.3438V20.1562ZM21.25 19.0625H18.75V20.3125C18.75 20.9375 18.9062 21.25 19.375 21.25C19.6875 21.25 19.8438 21.0938 20 20.7812V20H21.25V20.9375C21.25 21.25 21.0938 21.4062 20.9375 21.7187C20.625 22.1875 20.1562 22.5 19.375 22.5C18.75 22.5 18.2813 22.1875 17.8125 21.7187C17.5 21.4062 17.3438 20.7812 17.3438 20.1562V17.8125C17.3438 17.0312 17.5 16.5625 17.6563 16.25C17.9688 15.7812 18.4375 15.4687 19.2188 15.4687C19.8438 15.4687 20.3125 15.7812 20.625 16.25C20.9375 16.5625 20.9375 17.1875 20.9375 17.8125V19.0625H21.25Z" fill="white"/>
</svg>
